{
copyright = "Copyright 2018 The Primera Project Authors (https://github.com/vladimirnikolic1/CommittedAdultery/) ";
designer = "Vladimir Nikolic";
designerURL = "https://www.coroflot.com/vladimirnikolic";
familyName = Primera;
customParameters = (
{
name = glyphOrder;
value = (
.notdef,
uni0000,
uni000D,
space,
exclam,
quotedbl,
numbersign,
dollar,
percent,
ampersand,
quotesingle,
parenleft,
parenright,
asterisk,
plus,
comma,
hyphen,
period,
slash,
zero,
one,
two,
three,
four,
five,
six,
seven,
eight,
nine,
colon,
semicolon,
less,
equal,
greater,
question,
at,
A,
B,
C,
D,
E,
F,
G,
H,
I,
J,
K,
L,
M,
N,
O,
P,
Q,
R,
S,
T,
U,
V,
W,
X,
Y,
Z,
bracketleft,
backslash,
bracketright,
asciicircum,
underscore,
grave,
a,
b,
c,
d,
e,
f,
g,
h,
i,
j,
k,
l,
m,
n,
o,
p,
q,
r,
s,
t,
u,
v,
w,
x,
y,
z,
braceleft,
bar,
braceright,
asciitilde,
uni00A0,
exclamdown,
cent,
sterling,
yen,
section,
dieresis,
copyright,
ordfeminine,
registered,
macron,
degree,
acute,
paragraph,
periodcentered,
cedilla,
ordmasculine,
questiondown,
Agrave,
Aacute,
Acircumflex,
Atilde,
Adieresis,
Aring,
AE,
Ccedilla,
Egrave,
Eacute,
Ecircumflex,
Edieresis,
Igrave,
Iacute,
Icircumflex,
Idieresis,
Eth,
Ntilde,
Ograve,
Oacute,
Ocircumflex,
Otilde,
Odieresis,
multiply,
Oslash,
Ugrave,
Uacute,
Ucircumflex,
Udieresis,
Yacute,
Thorn,
germandbls,
agrave,
aacute,
acircumflex,
atilde,
adieresis,
aring,
ae,
ccedilla,
egrave,
eacute,
ecircumflex,
edieresis,
igrave,
iacute,
icircumflex,
idieresis,
eth,
ntilde,
ograve,
oacute,
ocircumflex,
otilde,
odieresis,
divide,
oslash,
ugrave,
uacute,
ucircumflex,
udieresis,
yacute,
thorn,
ydieresis,
Amacron,
amacron,
Abreve,
abreve,
Aogonek,
aogonek,
Cacute,
cacute,
Cdotaccent,
cdotaccent,
Ccaron,
ccaron,
Dcaron,
dcaron,
Dcroat,
dcroat,
Emacron,
emacron,
Edotaccent,
edotaccent,
Eogonek,
eogonek,
Ecaron,
ecaron,
Gbreve,
gbreve,
Gdotaccent,
gdotaccent,
uni0122,
uni0123,
Hbar,
hbar,
Imacron,
imacron,
Iogonek,
iogonek,
Idotaccent,
dotlessi,
uni0136,
uni0137,
Lacute,
lacute,
uni013B,

glyphs = (
{
glyphname = .notdef;
layers = (
{
hints = (
{
horizontal = 1;
place = "{-23, 66}";
type = Stem;
},
{
horizontal = 1;
place = "{672, 66}";
type = Stem;
},
{
place = "{112, 66}";
type = Stem;
},
{
place = "{578, 66}";
type = Stem;
}
);
layerId = "0D67ACED-73D3-49C3-92B3-C98855658409";
paths = (
{
nodes = (
"112 -23 LINE",
"644 -23 LINE",
"644 738 LINE",
"112 738 LINE"
);
},
{
nodes = (
"178 672 LINE",
"578 672 LINE",
"578 43 LINE",
"178 43 LINE"
);
}
);
width = 658;
}
);
},
{
glyphname = exclam;
layers = (
{
hints = (
{
horizontal = 1;
place = "{10, 111}";
type = Stem;
},
{
horizontal = 1;
place = "{686, -20}";
target = down;
type = TopGhost;
},
{
place = "{13, 220}";
type = Stem;
}
);
layerId = "0D67ACED-73D3-49C3-92B3-C98855658409";
paths = (
{
nodes = (
"37 164 LINE",
"150 164 LINE",
"233 686 LINE",
"120 686 LINE"
);
},
{
nodes = (
"126 10 LINE",
"143 121 LINE",
"30 121 LINE",
"13 10 LINE"
);
}
);
width = 137;
}
);
unicode = 0021;
},
{
glyphname = quotedbl;
layers = (
{
hints = (
{
horizontal = 1;
place = "{451, 235}";
type = Stem;
},
{
place = "{90, 292}";
type = Stem;
}
);
layerId = "0D67ACED-73D3-49C3-92B3-C98855658409";
paths = (
{
nodes = (
"90 451 LINE",
"203 451 LINE",
"241 686 LINE",
"128 686 LINE"
);
},
{
nodes = (
"231 451 LINE",
"344 451 LINE",
"382 686 LINE",
"269 686 LINE"
);
}
);
width = 294;
}
);
unicode = 0022;
},
{
glyphname = numbersign;
layers = (
{
hints = (
{
horizontal = 1;
place = "{163, 114}";
type = Stem;
},
{
horizontal = 1;
place = "{413, 114}";
type = Stem;
},
{
horizontal = 1;
place = "{686, -20}";
target = down;
type = TopGhost;
},
{
place = "{63, 688}";
type = Stem;
}
);
layerId = "0D67ACED-73D3-49C3-92B3-C98855658409";
paths = (
{
nodes = (
"326 277 LINE",
"348 413 LINE",
"479 413 LINE",
"457 277 LINE"
);
},
{
nodes = (
"570 277 LINE",
"592 413 LINE",
"733 413 LINE",
"751 527 LINE",
"610 527 LINE",
"635 686 LINE",
"522 686 LINE",
"497 527 LINE",
"366 527 LINE",
"391 686 LINE",
"278 686 LINE",
"253 527 LINE",
"120 527 LINE",
"102 413 LINE",
"235 413 LINE",
"213 277 LINE",
"81 277 LINE",
"63 163 LINE",
"195 163 LINE",
"171 10 LINE",
"284 10 LINE",
"308 163 LINE",
"439 163 LINE",
"415 10 LINE",
"528 10 LINE",
"552 163 LINE",
"694 163 LINE",
"712 277 LINE"
);
}
);
width = 716;
}
);
unicode = 0023;
},
{
glyphname = dollar;
layers = (
{
hints = (
{
horizontal = 1;
place = "{10, 123}";
type = Stem;
},
{
horizontal = 1;
place = "{569, 117}";
type = Stem;
},
{
place = "{13, 506}";
type = Stem;
}
);
layerId = "0D67ACED-73D3-49C3-92B3-C98855658409";
paths = (
{
nodes = (
"303 273 LINE",
"337 253 LINE",
"318 133 LINE",
"280 133 LINE"
);
},
{
nodes = (
"250 443 LINE",
"199 472 LINE",
"215 569 LINE",
"270 569 LINE"
);
},
{
nodes = (
"246 -79 LINE",
"260 10 LINE",
"412 10 LINE",
"462 323 LINE",
"323 402 LINE",
"350 569 LINE",
"387 569 LINE",
"370 467 LINE",
"492 516 LINE",
"519 686 LINE",
"369 686 LINE",
"386 793 LINE",
"306 793 LINE",
"289 686 LINE",
"120 686 LINE",
"76 405 LINE",
"229 316 LINE",
"200 133 LINE",
"145 133 LINE",
"161 239 LINE",
"49 239 LINE",
"13 10 LINE",
"180 10 LINE",
"166 -79 LINE"
);
}
);
width = 423;
}
);
unicode = 0024;
},
{
glyphname = percent;
layers = (
{
hints = (
{
horizontal = 1;
place = "{10, 123}";
type = Stem;
},
{
horizontal = 1;
place = "{237, 117}";
type = Stem;
},
{
horizontal = 1;
place = "{342, 123}";
type = Stem;
},
{
horizontal = 1;
place = "{569, 117}";
type = Stem;
},
{
place = "{35, 705}";
type = Stem;
}
);
layerId = "0D67ACED-73D3-49C3-92B3-C98855658409";
paths = (
{
nodes = (
"436 133 LINE",
"453 237 LINE",
"546 237 LINE",
"529 133 LINE"
);
},
{
nodes = (
"224 465 LINE",
"241 569 LINE",
"334 569 LINE",
"317 465 LINE"
);
},
{
nodes = (
"92 342 LINE",
"306 342 LINE",
"35 10 LINE",
"188 10 LINE",
"332 187 LINE",
"304 10 LINE",
"622 10 LINE",
"677 354 LINE",
"469 354 LINE",
"740 686 LINE",
"587 686 LINE",
"435 500 LINE",
"465 686 LINE",
"147 686 LINE"
);
}
);
width = 647;
}
);
unicode = 0025;
},
{
glyphname = ampersand;
layers = (
{
hints = (
{
horizontal = 1;
place = "{10, 123}";
type = Stem;
},
{
horizontal = 1;
place = "{569, 117}";
type = Stem;
},
{
place = "{25, 538}";
type = Stem;
}
);
layerId = "0D67ACED-73D3-49C3-92B3-C98855658409";
paths = (
{
nodes = (
"176 242 LINE",
"354 292 LINE",
"330 133 LINE",
"157 133 LINE"
);
},
{
nodes = (
"197 369 LINE",
"227 569 LINE",
"512 569 LINE",
"531 686 LINE",
"132 686 LINE",
"25 10 LINE",
"424 10 LINE",
"473 325 LINE",
"543 345 LINE",
"563 461 LINE",
"492 443 LINE",
"500 495 LINE",
"385 495 LINE",
"372 413 LINE"
);
}
);
width = 522;
}
);
unicode = 0026;
},
{
glyphname = quotesingle;
layers = (
{
hints = (
{
horizontal = 1;
place = "{451, 235}";
type = Stem;
},
{
place = "{129, 151}";
type = Stem;
}
);
layerId = "0D67ACED-73D3-49C3-92B3-C98855658409";
paths = (
{
nodes = (
"129 451 LINE",
"242 451 LINE",
"280 686 LINE",
"167 686 LINE"
);
}
);
width = 224;
}
);
unicode = 0027;
},
{
glyphname = parenleft;
layers = (
{
hints = (
{
horizontal = 1;
place = "{-183, 117}";
type = Stem;
},
{
horizontal = 1;
place = "{735, 116}";
type = Stem;
},
{
place = "{51, 446}";
type = Stem;
}
);
layerId = "0D67ACED-73D3-49C3-92B3-C98855658409";
paths = (
{
nodes = (
"333 -183 LINE",
"352 -66 LINE",
"275 -66 LINE",
"174 8 LINE",
"278 661 LINE",
"403 735 LINE",
"479 735 LINE",
"497 851 LINE",
"393 851 LINE",
"177 729 LINE",
"51 -60 LINE",
"229 -183 LINE"
);
}
);
width = 242;
}
);
unicode = 0028;
},
{
glyphname = parenright;
layers = (
{
hints = (
{
horizontal = 1;
place = "{-183, 116}";
type = Stem;
},
{
horizontal = 1;
place = "{734, 117}";
type = Stem;
},
{
place = "{-91, 446}";
type = Stem;
}
);
layerId = "0D67ACED-73D3-49C3-92B3-C98855658409";
paths = (
{
nodes = (
"73 851 LINE",
"54 734 LINE",
"131 734 LINE",
"232 660 LINE",
"128 7 LINE",
"3 -67 LINE",
"-73 -67 LINE",
"-91 -183 LINE",
"13 -183 LINE",
"229 -61 LINE",
"355 728 LINE",
"177 851 LINE"
);
}
);
width = 318;
}
);
unicode = 0029;
},
{
glyphname = asterisk;
layers = (
{
hints = (
{
horizontal = 1;
place = "{295, 405}";
type = Stem;
},
{
place = "{108, 423}";
type = Stem;
}
);
layerId = "0D67ACED-73D3-49C3-92B3-C98855658409";
paths = (
{
nodes = (
"145 602 LINE",
"236 512 LINE",
"108 430 LINE",
"184 347 LINE",
"237 381 LINE",
"222 295 LINE",
"323 295 LINE",
"342 407 LINE",
"417 333 LINE",
"495 397 LINE",
"402 488 LINE",
"531 572 LINE",
"467 658 LINE",
"375 599 LINE",
"392 700 LINE",
"291 700 LINE",
"276 613 LINE",
"224 664 LINE"
);
}
);
width = 474;
}
);
unicode = 002A;
},
{
glyphname = plus;
layers = (
{
hints = (
{
horizontal = 1;
place = "{330, 114}";
type = Stem;
},
{
place = "{78, 285}";
type = Stem;
}
);
layerId = "0D67ACED-73D3-49C3-92B3-C98855658409";
paths = (
{
nodes = (
"167 444 LINE",
"96 444 LINE",
"78 330 LINE",
"149 330 LINE",
"139 264 LINE",
"252 264 LINE",
"262 330 LINE",
"345 330 LINE",
"363 444 LINE",
"280 444 LINE",
"291 510 LINE",
"178 510 LINE"
);
}
);
width = 310;
}
);
unicode = 002B;
},
{
glyphname = comma;
layers = (
{
hints = (
{
horizontal = 1;
place = "{10, 167}";
type = Stem;
},
{
place = "{13, 139}";
type = Stem;
}
);
layerId = "0D67ACED-73D3-49C3-92B3-C98855658409";
paths = (
{
nodes = (
"126 10 LINE",
"152 177 LINE",
"39 177 LINE",
"13 10 LINE"
);
}
);
width = 181;
}
);
unicode = 002C;
},
{
glyphname = hyphen;
layers = (
{
hints = (
{
horizontal = 1;
place = "{318, 114}";
type = Stem;
},
{
place = "{82, 298}";
type = Stem;
}
);
layerId = "0D67ACED-73D3-49C3-92B3-C98855658409";
paths = (
{
nodes = (
"380 432 LINE",
"100 432 LINE",
"82 318 LINE",
"362 318 LINE"
);
}
);
width = 337;
}
);
unicode = 002D;
},
{
glyphname = period;
layers = (
{
hints = (
{
horizontal = 1;
place = "{69, 108}";
type = Stem;
},
{
place = "{36, 130}";
type = Stem;
}
);
layerId = "0D67ACED-73D3-49C3-92B3-C98855658409";
paths = (
{
nodes = (
"36 69 LINE",
"149 69 LINE",
"166 177 LINE",
"53 177 LINE"
);
}
);
width = 168;
}
);
unicode = 002E;
},
{
glyphname = slash;
layers = (
{
hints = (
{
horizontal = 1;
place = "{686, -20}";
target = down;
type = TopGhost;
},
{
place = "{35, 488}";
type = Stem;
}
);
layerId = "0D67ACED-73D3-49C3-92B3-C98855658409";
paths = (
{
nodes = (
"35 10 LINE",
"164 10 LINE",
"523 686 LINE",
"394 686 LINE"
);
}
);
width = 432;
}
);
unicode = 002F;
},
{
glyphname = zero;
layers = (
{
hints = (
{
horizontal = 1;
place = "{10, 123}";
type = Stem;
},
{
horizontal = 1;
place = "{569, 117}";
type = Stem;
},
{
place = "{13, 506}";
type = Stem;
}
);
layerId = "0D67ACED-73D3-49C3-92B3-C98855658409";
paths = (
{
nodes = (
"120 686 LINE",
"13 10 LINE",
"412 10 LINE",
"519 686 LINE"
);
},
{
nodes = (
"319 133 LINE",
"145 133 LINE",
"214 569 LINE",
"388 569 LINE"
);
}
);
width = 423;
}
);
unicode = 0030;
},
{
glyphname = one;
layers = (
{
hints = (
{
horizontal = 1;
place = "{569, 117}";
type = Stem;
},
{
place = "{155, 247}";
type = Stem;
}
);
layerId = "0D67ACED-73D3-49C3-92B3-C98855658409";
paths = (
{
nodes = (
"183 10 LINE",
"295 10 LINE",
"402 686 LINE",
"174 686 LINE",
"155 569 LINE",
"272 569 LINE"
);
}
);
width = 407;
}
);
unicode = 0031;
},
{
glyphname = two;
layers = (
{
hints = (
{
horizontal = 1;
place = "{10, 123}";
type = Stem;
},
{
horizontal = 1;
place = "{569, 117}";
type = Stem;
},
{
place = "{13, 506}";
type = Stem;
}
);
layerId = "0D67ACED-73D3-49C3-92B3-C98855658409";
paths = (
{
nodes = (
"412 10 LINE",
"440 189 LINE",
"327 189 LINE",
"319 133 LINE",
"145 133 LINE",
"159 223 LINE",
"487 481 LINE",
"519 686 LINE",
"120 686 LINE",
"95 527 LINE",
"208 527 LINE",
"215 569 LINE",
"389 569 LINE",
"381 523 LINE",
"51 273 LINE",
"13 10 LINE"
);
}
);
width = 423;
}
);
unicode = 0032;
},
{
glyphname = three;
layers = (
{
hints = (
{
horizontal = 1;
place = "{10, 123}";
type = Stem;
},
{
horizontal = 1;
place = "{328, 97}";
type = Stem;
},
{
horizontal = 1;
place = "{569, 117}";
type = Stem;
},
{
place = "{13, 506}";
type = Stem;
}
);
layerId = "0D67ACED-73D3-49C3-92B3-C98855658409";
paths = (
{
nodes = (
"329 192 LINE",
"233 133 LINE",
"146 133 LINE",
"155 192 LINE",
"42 192 LINE",
"13 10 LINE",
"257 10 LINE",
"428 113 LINE",
"478 425 LINE",
"408 425 LINE",
"487 481 LINE",
"519 686 LINE",
"120 686 LINE",
"95 527 LINE",
"208 527 LINE",
"215 569 LINE",
"389 569 LINE",
"381 523 LINE",
"203 398 LINE",
"203 279 LINE",
"271 328 LINE",
"350 328 LINE"
);
}
);
width = 423;
}
);
unicode = 0033;
},
{
glyphname = four;
layers = (
{
hints = (
{
horizontal = 1;
place = "{330, 114}";
type = Stem;
},
{
horizontal = 1;
place = "{686, -20}";
target = down;
type = TopGhost;
},
{
place = "{63, 459}";
type = Stem;
}
);
layerId = "0D67ACED-73D3-49C3-92B3-C98855658409";
paths = (
{
nodes = (
"522 686 LINE",
"408 686 LINE",
"370 444 LINE",
"195 444 LINE",
"233 686 LINE",
"120 686 LINE",
"63 330 LINE",
"352 330 LINE",
"301 10 LINE",
"415 10 LINE"
);
}
);
width = 426;
}
);
unicode = 0034;
},
{
glyphname = five;
layers = (
{
hints = (
{
horizontal = 1;
place = "{10, 123}";
type = Stem;
},
{
horizontal = 1;
place = "{569, 117}";
type = Stem;
},
{
place = "{13, 506}";
type = Stem;
}
);
layerId = "0D67ACED-73D3-49C3-92B3-C98855658409";
paths = (
{
nodes = (
"199 472 LINE",
"215 569 LINE",
"500 569 LINE",
"519 686 LINE",
"120 686 LINE",
"76 405 LINE",
"337 253 LINE",
"318 133 LINE",
"145 133 LINE",
"161 239 LINE",
"49 239 LINE",
"13 10 LINE",
"412 10 LINE",
"462 323 LINE"
);
}
);
width = 423;
}
);
unicode = 0035;
},
{
glyphname = six;
layers = (
{
hints = (
{
horizontal = 1;
place = "{10, 123}";
type = Stem;
},
{
horizontal = 1;
place = "{569, 117}";
type = Stem;
},
{
place = "{13, 506}";
type = Stem;
}
);
layerId = "0D67ACED-73D3-49C3-92B3-C98855658409";
paths = (
{
nodes = (
"178 345 LINE",
"337 253 LINE",
"318 133 LINE",
"145 133 LINE"
);
},
{
nodes = (
"215 569 LINE",
"387 569 LINE",
"370 467 LINE",
"492 516 LINE",
"519 686 LINE",
"120 686 LINE",
"13 10 LINE",
"412 10 LINE",
"462 323 LINE",
"199 472 LINE"
);
}
);
width = 423;
}
);
unicode = 0036;
},
{
glyphname = seven;
layers = (
{
hints = (
{
horizontal = 1;
place = "{569, 117}";
type = Stem;
},
{
place = "{101, 418}";
type = Stem;
}
);
layerId = "0D67ACED-73D3-49C3-92B3-C98855658409";
paths = (
{
nodes = (
"300 10 LINE",
"412 10 LINE",
"519 686 LINE",
"120 686 LINE",
"101 569 LINE",
"389 569 LINE"
);
}
);
width = 423;
}
);
unicode = 0037;
},
{
glyphname = eight;
layers = (
{
hints = (
{
horizontal = 1;
place = "{10, 123}";
type = Stem;
},
{
horizontal = 1;
place = "{569, 117}";
type = Stem;
},
{
place = "{13, 506}";
type = Stem;
}
);
layerId = "0D67ACED-73D3-49C3-92B3-C98855658409";
paths = (
{
nodes = (
"519 686 LINE",
"120 686 LINE",
"13 10 LINE",
"412 10 LINE"
);
},
{
nodes = (
"145 133 LINE",
"178 345 LINE",
"337 253 LINE",
"318 133 LINE"
);
},
{
nodes = (
"357 382 LINE",
"199 472 LINE",
"215 569 LINE",
"387 569 LINE"
);
}
);
width = 423;
}
);
unicode = 0038;
},
{
glyphname = nine;
layers = (
{
hints = (
{
horizontal = 1;
place = "{10, 123}";
type = Stem;
},
{
horizontal = 1;
place = "{569, 117}";
type = Stem;
},
{
place = "{13, 506}";
type = Stem;
}
);
layerId = "0D67ACED-73D3-49C3-92B3-C98855658409";
paths = (
{
nodes = (
"199 472 LINE",
"215 569 LINE",
"385 569 LINE",
"356 383 LINE"
);
},
{
nodes = (
"120 686 LINE",
"76 405 LINE",
"337 253 LINE",
"318 133 LINE",
"145 133 LINE",
"161 239 LINE",
"49 239 LINE",
"13 10 LINE",
"412 10 LINE",
"519 686 LINE"
);
}
);
width = 423;
}
);
unicode = 0039;
},
{
glyphname = colon;
layers = (
{
hints = (
{
horizontal = 1;
place = "{69, 108}";
type = Stem;
},
{
horizontal = 1;
place = "{538, 114}";
type = Stem;
},
{
place = "{63, 205}";
type = Stem;
}
);
layerId = "0D67ACED-73D3-49C3-92B3-C98855658409";
paths = (
{
nodes = (
"137 538 LINE",
"250 538 LINE",
"268 652 LINE",
"155 652 LINE"
);
},
{
nodes = (
"63 69 LINE",
"176 69 LINE",
"193 177 LINE",
"80 177 LINE"
);
}
);
width = 213;
}
);
unicode = 003A;
},
{
glyphname = semicolon;
layers = (
{
hints = (
{
horizontal = 1;
place = "{10, 167}";
type = Stem;
},
{
horizontal = 1;
place = "{538, 114}";
type = Stem;
},
{
place = "{59, 214}";
type = Stem;
}
);
layerId = "0D67ACED-73D3-49C3-92B3-C98855658409";
paths = (
{
nodes = (
"142 538 LINE",
"255 538 LINE",
"273 652 LINE",
"160 652 LINE"
);
},
{
nodes = (
"172 10 LINE",
"198 177 LINE",
"85 177 LINE",
"59 10 LINE"
);
}
);
width = 228;
}
);
unicode = 003B;
},
{
glyphname = less;
layers = (
{
hints = (
{
horizontal = 1;
place = "{41, 612}";
type = Stem;
},
{
place = "{23, 308}";
type = Stem;
}
);
layerId = "0D67ACED-73D3-49C3-92B3-C98855658409";
paths = (
{
nodes = (
"238 41 LINE",
"263 194 LINE",
"161 331 LINE",
"303 474 LINE",
"331 653 LINE",
"23 343 LINE"
);
}
);
width = 281;
}
);
unicode = 003C;
},
{
glyphname = equal;
layers = (
{
hints = (
{
horizontal = 1;
place = "{156, 114}";
type = Stem;
},
{
horizontal = 1;
place = "{330, 114}";
type = Stem;
},
{
place = "{56, 312}";
type = Stem;
}
);
layerId = "0D67ACED-73D3-49C3-92B3-C98855658409";
paths = (
{
nodes = (
"368 444 LINE",
"101 444 LINE",
"83 330 LINE",
"350 330 LINE"
);
},
{
nodes = (
"341 270 LINE",
"74 270 LINE",
"56 156 LINE",
"323 156 LINE"
);
}
);
width = 328;
}
);
unicode = 003D;
},
{
glyphname = greater;
layers = (
{
hints = (
{
horizontal = 1;
place = "{41, 612}";
type = Stem;
},
{
place = "{23, 308}";
type = Stem;
}
);
layerId = "0D67ACED-73D3-49C3-92B3-C98855658409";
paths = (
{
nodes = (
"116 653 LINE",
"91 500 LINE",
"193 363 LINE",
"51 220 LINE",
"23 41 LINE",
"331 351 LINE"
);
}
);
width = 281;
}
);
unicode = 003E;
},
{
glyphname = question;
layers = (
{
hints = (
{
horizontal = 1;
place = "{10, 122}";
type = Stem;
},
{
horizontal = 1;
place = "{569, 117}";
type = Stem;
},
{
place = "{57, 506}";
type = Stem;
}
);
layerId = "0D67ACED-73D3-49C3-92B3-C98855658409";
paths = (
{
nodes = (
"82 171 LINE",
"195 171 LINE",
"203 223 LINE",
"531 481 LINE",
"563 686 LINE",
"164 686 LINE",
"139 527 LINE",
"252 527 LINE",
"259 569 LINE",
"433 569 LINE",
"425 523 LINE",
"95 269 LINE"
);
},
{
nodes = (
"172 10 LINE",
"191 132 LINE",
"76 132 LINE",
"57 10 LINE"
);
}
);
width = 500;
}
);
unicode = 003F;
},
{
glyphname = at;
layers = (
{
hints = (
{
horizontal = 1;
place = "{-150, 123}";
type = Stem;
},
{
horizontal = 1;
place = "{103, 86}";
type = Stem;
},
{
horizontal = 1;
place = "{440, 117}";
type = Stem;
},
{
horizontal = 1;
place = "{682, 117}";
type = Stem;
},
{
place = "{15, 973}";
type = Stem;
}
);
layerId = "0D67ACED-73D3-49C3-92B3-C98855658409";
paths = (
{
nodes = (
"393 226 LINE",
"429 440 LINE",
"603 440 LINE",
"567 226 LINE"
);
},
{
nodes = (
"261 103 LINE",
"878 103 LINE",
"988 799 LINE",
"164 799 LINE",
"15 -150 LINE",
"839 -150 LINE",
"858 -27 LINE",
"147 -27 LINE",
"258 682 LINE",
"857 682 LINE",
"780 189 LINE",
"674 189 LINE",
"734 557 LINE",
"335 557 LINE"
);
}
);
width = 928;
}
);
unicode = 0040;
},
{
glyphname = A;
layers = (
{
hints = (
{
horizontal = 1;
place = "{232, 113}";
type = Stem;
},
{
horizontal = 1;
place = "{569, 117}";
type = Stem;
},
{
place = "{13, 486}";
type = Stem;
}
);
layerId = "0D67ACED-73D3-49C3-92B3-C98855658409";
paths = (
{
nodes = (
"215 569 LINE",
"275 569 LINE",
"376 496 LINE",
"352 345 LINE",
"179 345 LINE"
);
},
{
nodes = (
"411 10 LINE",
"499 564 LINE",
"321 686 LINE",
"120 686 LINE",
"13 10 LINE",
"126 10 LINE",
"161 232 LINE",
"334 232 LINE",
"299 10 LINE"
);
}
);
width = 422;
}
);
unicode = 0041;
},
{
glyphname = B;
layers = (
{
hints = (
{
horizontal = 1;
place = "{10, 123}";
type = Stem;
},
{
horizontal = 1;
place = "{328, 97}";
type = Stem;
},
{
horizontal = 1;
place = "{569, 117}";
type = Stem;
},
{
place = "{13, 506}";
type = Stem;
}
);
layerId = "0D67ACED-73D3-49C3-92B3-C98855658409";
paths = (
{
nodes = (
"233 133 LINE",
"146 133 LINE",
"164 252 LINE",
"271 328 LINE",
"350 328 LINE",
"329 192 LINE"
);
},
{
nodes = (
"215 569 LINE",
"389 569 LINE",
"381 523 LINE",
"186 386 LINE"
);
},
{
nodes = (
"13 10 LINE",
"257 10 LINE",
"428 113 LINE",
"478 425 LINE",
"408 425 LINE",
"487 481 LINE",
"519 686 LINE",
"120 686 LINE"
);
}
);
width = 423;
}
);
unicode = 0042;
},
{
glyphname = C;
layers = (
{
hints = (
{
horizontal = 1;
place = "{10, 123}";
type = Stem;
},
{
horizontal = 1;
place = "{569, 117}";
type = Stem;
},
{
place = "{13, 506}";
type = Stem;
}
);
layerId = "0D67ACED-73D3-49C3-92B3-C98855658409";
paths = (
{
nodes = (
"120 686 LINE",
"13 10 LINE",
"412 10 LINE",
"432 133 LINE",
"146 133 LINE",
"215 569 LINE",
"501 569 LINE",
"519 686 LINE"
);
}
);
width = 423;
}
);
unicode = 0043;
},
{
glyphname = D;
layers = (
{
hints = (
{
horizontal = 1;
place = "{10, 123}";
type = Stem;
},
{
horizontal = 1;
place = "{569, 117}";
type = Stem;
},
{
place = "{13, 486}";
type = Stem;
}
);
layerId = "0D67ACED-73D3-49C3-92B3-C98855658409";
paths = (
{
nodes = (
"120 686 LINE",
"13 10 LINE",
"411 10 LINE",
"499 563 LINE",
"321 686 LINE"
);
},
{
nodes = (
"275 569 LINE",
"376 495 LINE",
"319 133 LINE",
"146 133 LINE",
"215 569 LINE"
);
}
);
width = 422;
}
);
unicode = 0044;
},
{
glyphname = E;
layers = (
{
hints = (
{
horizontal = 1;
place = "{10, 123}";
type = Stem;
},
{
horizontal = 1;
place = "{569, 117}";
type = Stem;
},
{
place = "{13, 494}";
type = Stem;
}
);
layerId = "0D67ACED-73D3-49C3-92B3-C98855658409";
paths = (
{
nodes = (
"215 569 LINE",
"489 569 LINE",
"507 686 LINE",
"120 686 LINE",
"13 10 LINE",
"400 10 LINE",
"420 133 LINE",
"146 133 LINE",
"169 280 LINE",
"354 358 LINE",
"374 484 LINE",
"189 406 LINE"
);
}
);
width = 411;
}
);
unicode = 0045;
},
{
glyphname = F;
layers = (
{
hints = (
{
horizontal = 1;
place = "{569, 117}";
type = Stem;
},
{
place = "{13, 467}";
type = Stem;
}
);
layerId = "0D67ACED-73D3-49C3-92B3-C98855658409";
paths = (
{
nodes = (
"120 686 LINE",
"13 10 LINE",
"126 10 LINE",
"169 284 LINE",
"346 365 LINE",
"366 491 LINE",
"189 410 LINE",
"215 569 LINE",
"462 569 LINE",
"480 686 LINE"
);
}
);
width = 384;
}
);
unicode = 0046;
},
{
glyphname = G;
layers = (
{
hints = (
{
horizontal = 1;
place = "{10, 123}";
type = Stem;
},
{
horizontal = 1;
place = "{569, 117}";
type = Stem;
},
{
place = "{13, 506}";
type = Stem;
}
);
layerId = "0D67ACED-73D3-49C3-92B3-C98855658409";
paths = (
{
nodes = (
"120 686 LINE",
"13 10 LINE",
"412 10 LINE",
"485 472 LINE",
"249 359 LINE",
"229 227 LINE",
"344 288 LINE",
"320 133 LINE",
"146 133 LINE",
"215 569 LINE",
"501 569 LINE",
"519 686 LINE"
);
}
);
width = 423;
}
);
unicode = 0047;
},
{
glyphname = H;
layers = (
{
hints = (
{
horizontal = 1;
place = "{330, 114}";
type = Stem;
},
{
horizontal = 1;
place = "{686, -20}";
target = down;
type = TopGhost;
},
{
place = "{13, 509}";
type = Stem;
}
);
layerId = "0D67ACED-73D3-49C3-92B3-C98855658409";
paths = (
{
nodes = (
"522 686 LINE",
"408 686 LINE",
"370 444 LINE",
"195 444 LINE",
"233 686 LINE",
"120 686 LINE",
"13 10 LINE",
"126 10 LINE",
"177 330 LINE",
"352 330 LINE",
"301 10 LINE",
"415 10 LINE"
);
}
);
width = 426;
}
);
unicode = 0048;
},
{
glyphname = I;
layers = (
{
hints = (
{
horizontal = 1;
place = "{686, -20}";
target = down;
type = TopGhost;
},
{
place = "{13, 220}";
type = Stem;
}
);
layerId = "0D67ACED-73D3-49C3-92B3-C98855658409";
paths = (
{
nodes = (
"13 10 LINE",
"126 10 LINE",
"233 686 LINE",
"120 686 LINE"
);
}
);
width = 137;
}
);
unicode = 0049;
},
{
glyphname = J;
layers = (
{
hints = (
{
horizontal = 1;
place = "{170, 117}";
type = Stem;
},
{
horizontal = 1;
place = "{569, 117}";
type = Stem;
},
{
place = "{27, 487}";
type = Stem;
}
);
layerId = "0D67ACED-73D3-49C3-92B3-C98855658409";
paths = (
{
nodes = (
"383 569 LINE",
"319 170 LINE",
"228 133 LINE",
"150 170 LINE",
"169 287 LINE",
"57 287 LINE",
"27 95 LINE",
"208 10 LINE",
"421 95 LINE",
"514 686 LINE",
"120 686 LINE",
"102 569 LINE"
);
}
);
width = 418;
}
);
unicode = 004A;
},
{
glyphname = K;
layers = (
{
hints = (
{
horizontal = 1;
place = "{324, 97}";
type = Stem;
},
{
horizontal = 1;
place = "{686, -20}";
target = down;
type = TopGhost;
},
{
place = "{13, 506}";
type = Stem;
}
);
layerId = "0D67ACED-73D3-49C3-92B3-C98855658409";
paths = (
{
nodes = (
"186 390 LINE",
"233 686 LINE",
"120 686 LINE",
"13 10 LINE",
"126 10 LINE",
"164 248 LINE",
"271 324 LINE",
"350 324 LINE",
"300 10 LINE",
"412 10 LINE",
"477 421 LINE",
"407 421 LINE",
"486 477 LINE",
"519 686 LINE",
"397 686 LINE",
"370 514 LINE"
);
}
);
width = 423;
}
);
unicode = 004B;
},
{
glyphname = L;
layers = (
{
hints = (
{
horizontal = 1;
place = "{10, 123}";
type = Stem;
},
{
horizontal = 1;
place = "{686, -20}";
target = down;
type = TopGhost;
},
{
place = "{13, 390}";
type = Stem;
}
);
layerId = "0D67ACED-73D3-49C3-92B3-C98855658409";
paths = (
{
nodes = (
"233 686 LINE",
"120 686 LINE",
"13 10 LINE",
"383 10 LINE",
"403 133 LINE",
"146 133 LINE"
);
}
);
width = 394;
}
);
unicode = 004C;
},
{
glyphname = M;
layers = (
{
hints = (
{
horizontal = 1;
place = "{569, 117}";
type = Stem;
},
{
place = "{13, 675}";
type = Stem;
}
);
layerId = "0D67ACED-73D3-49C3-92B3-C98855658409";
paths = (
{
nodes = (
"248 10 LINE",
"361 10 LINE",
"450 569 LINE",
"464 569 LINE",
"565 496 LINE",
"488 10 LINE",
"600 10 LINE",
"688 564 LINE",
"510 686 LINE",
"120 686 LINE",
"13 10 LINE",
"126 10 LINE",
"215 569 LINE",
"337 569 LINE"
);
}
);
width = 611;
}
);
unicode = 004D;
},
{
glyphname = N;
layers = (
{
hints = (
{
horizontal = 1;
place = "{569, 117}";
type = Stem;
},
{
place = "{13, 486}";
type = Stem;
}
);
layerId = "0D67ACED-73D3-49C3-92B3-C98855658409";
paths = (
{
nodes = (
"275 569 LINE",
"376 495 LINE",
"299 10 LINE",
"411 10 LINE",
"499 563 LINE",
"321 686 LINE",
"120 686 LINE",
"13 10 LINE",
"126 10 LINE",
"215 569 LINE"
);
}
);
width = 422;
}
);
unicode = 004E;
},
{
glyphname = O;
layers = (
{
hints = (
{
horizontal = 1;
place = "{10, 123}";
type = Stem;
},
{
horizontal = 1;
place = "{569, 117}";
type = Stem;
},
{
place = "{13, 506}";
type = Stem;
}
);
layerId = "0D67ACED-73D3-49C3-92B3-C98855658409";
paths = (
{
nodes = (
"120 686 LINE",
"13 10 LINE",
"412 10 LINE",
"519 686 LINE"
);
},
{
nodes = (
"319 133 LINE",
"145 133 LINE",
"214 569 LINE",
"388 569 LINE"
);
}
);
width = 423;
}
);
unicode = 004F;
},
{
glyphname = P;
layers = (
{
hints = (
{
horizontal = 1;
place = "{569, 117}";
type = Stem;
},
{
place = "{13, 493}";
type = Stem;
}
);
layerId = "0D67ACED-73D3-49C3-92B3-C98855658409";
paths = (
{
nodes = (
"215 569 LINE",
"372 569 LINE",
"356 469 LINE",
"177 332 LINE"
);
},
{
nodes = (
"464 419 LINE",
"506 686 LINE",
"120 686 LINE",
"13 10 LINE",
"126 10 LINE",
"155 190 LINE"
);
}
);
width = 410;
}
);
unicode = 0050;
},
{
glyphname = Q;
layers = (
{
hints = (
{
horizontal = 1;
place = "{10, 123}";
type = Stem;
},
{
horizontal = 1;
place = "{569, 117}";
type = Stem;
},
{
place = "{13, 534}";
type = Stem;
}
);
layerId = "0D67ACED-73D3-49C3-92B3-C98855658409";
paths = (
{
nodes = (
"120 686 LINE",
"13 10 LINE",
"146 10 LINE",
"166 133 LINE",
"145 133 LINE",
"214 569 LINE",
"416 569 LINE",
"347 133 LINE",
"323 133 LINE",
"303 10 LINE",
"440 10 LINE",
"547 686 LINE"
);
},
{
nodes = (
"334 335 LINE",
"210 267 LINE",
"151 -106 LINE",
"276 -28 LINE"
);
}
);
width = 451;
}
);
unicode = 0051;
},
{
glyphname = R;
layers = (
{
hints = (
{
horizontal = 1;
place = "{281, 97}";
type = Stem;
},
{
horizontal = 1;
place = "{569, 117}";
type = Stem;
},
{
place = "{13, 506}";
type = Stem;
}
);
layerId = "0D67ACED-73D3-49C3-92B3-C98855658409";
paths = (
{
nodes = (
"215 569 LINE",
"389 569 LINE",
"375 482 LINE",
"179 347 LINE"
);
},
{
nodes = (
"264 281 LINE",
"343 281 LINE",
"300 10 LINE",
"412 10 LINE",
"470 378 LINE",
"400 378 LINE",
"479 434 LINE",
"519 686 LINE",
"120 686 LINE",
"13 10 LINE",
"126 10 LINE",
"157 205 LINE"
);
}
);
width = 423;
}
);
unicode = 0052;
},
{
glyphname = S;
layers = (
{
hints = (
{
horizontal = 1;
place = "{10, 123}";
type = Stem;
},
{
horizontal = 1;
place = "{569, 117}";
type = Stem;
},
{
place = "{13, 506}";
type = Stem;
}
);
layerId = "0D67ACED-73D3-49C3-92B3-C98855658409";
paths = (
{
nodes = (
"199 472 LINE",
"215 569 LINE",
"387 569 LINE",
"370 467 LINE",
"492 516 LINE",
"519 686 LINE",
"120 686 LINE",
"76 405 LINE",
"337 253 LINE",
"318 133 LINE",
"145 133 LINE",
"161 239 LINE",
"49 239 LINE",
"13 10 LINE",
"412 10 LINE",
"462 323 LINE"
);
}
);
width = 423;
}
);
unicode = 0053;
},
{
glyphname = T;
layers = (
{
hints = (
{
horizontal = 1;
place = "{569, 117}";
type = Stem;
},
{
place = "{102, 371}";
type = Stem;
}
);
layerId = "0D67ACED-73D3-49C3-92B3-C98855658409";
paths = (
{
nodes = (
"102 569 LINE",
"224 569 LINE",
"135 10 LINE",
"248 10 LINE",
"337 569 LINE",
"455 569 LINE",
"473 686 LINE",
"120 686 LINE"
);
}
);
width = 377;
}
);
unicode = 0054;
},
{
glyphname = U;
layers = (
{
hints = (
{
horizontal = 1;
place = "{10, 123}";
type = Stem;
},
{
horizontal = 1;
place = "{686, -20}";
target = down;
type = TopGhost;
},
{
place = "{13, 506}";
type = Stem;
}
);
layerId = "0D67ACED-73D3-49C3-92B3-C98855658409";
paths = (
{
nodes = (
"319 133 LINE",
"145 133 LINE",
"232 686 LINE",
"120 686 LINE",
"13 10 LINE",
"412 10 LINE",
"519 686 LINE",
"406 686 LINE"
);
}
);
width = 423;
}
);
unicode = 0055;
},
{
glyphname = V;
layers = (
{
hints = (
{
horizontal = 1;
place = "{10, 116}";
type = Stem;
},
{
horizontal = 1;
place = "{686, -20}";
target = down;
type = TopGhost;
},
{
place = "{13, 505}";
type = Stem;
}
);
layerId = "0D67ACED-73D3-49C3-92B3-C98855658409";
paths = (
{
nodes = (
"144 126 LINE",
"233 686 LINE",
"120 686 LINE",
"13 10 LINE",
"214 10 LINE",
"430 132 LINE",
"518 686 LINE",
"406 686 LINE",
"329 200 LINE",
"204 126 LINE"
);
}
);
width = 422;
}
);
unicode = 0056;
},
{
glyphname = W;
layers = (
{
hints = (
{
horizontal = 1;
place = "{10, 116}";
type = Stem;
},
{
horizontal = 1;
place = "{686, -20}";
target = down;
type = TopGhost;
},
{
place = "{13, 694}";
type = Stem;
}
);
layerId = "0D67ACED-73D3-49C3-92B3-C98855658409";
paths = (
{
nodes = (
"266 126 LINE",
"144 126 LINE",
"233 686 LINE",
"120 686 LINE",
"13 10 LINE",
"403 10 LINE",
"619 132 LINE",
"707 686 LINE",
"595 686 LINE",
"518 200 LINE",
"393 126 LINE",
"379 126 LINE",
"468 686 LINE",
"355 686 LINE"
);
}
);
width = 611;
}
);
unicode = 0057;
},
{
glyphname = X;
layers = (
{
hints = (
{
horizontal = 1;
place = "{686, -20}";
target = down;
type = TopGhost;
},
{
place = "{13, 488}";
type = Stem;
}
);
layerId = "0D67ACED-73D3-49C3-92B3-C98855658409";
paths = (
{
nodes = (
"273 450 LINE",
"213 560 LINE",
"233 686 LINE",
"120 686 LINE",
"93 512 LINE",
"183 346 LINE",
"40 181 LINE",
"13 10 LINE",
"126 10 LINE",
"145 132 LINE",
"240 242 LINE",
"300 132 LINE",
"281 10 LINE",
"394 10 LINE",
"421 181 LINE",
"330 346 LINE",
"474 512 LINE",
"501 686 LINE",
"388 686 LINE",
"368 560 LINE"
);
}
);
width = 405;
}
);
unicode = 0058;
},
{
glyphname = Y;
layers = (
{
hints = (
{
horizontal = 1;
place = "{686, -20}";
target = down;
type = TopGhost;
},
{
place = "{76, 427}";
type = Stem;
}
);
layerId = "0D67ACED-73D3-49C3-92B3-C98855658409";
paths = (
{
nodes = (
"199 474 LINE",
"232 686 LINE",
"120 686 LINE",
"76 410 LINE",
"194 313 LINE",
"146 10 LINE",
"260 10 LINE",
"308 314 LINE",
"459 410 LINE",
"503 686 LINE",
"391 686 LINE",
"358 474 LINE",
"269 420 LINE"
);
}
);
width = 407;
}
);
unicode = 0059;
},
{
glyphname = Z;
layers = (
{
hints = (
{
horizontal = 1;
place = "{10, 123}";
type = Stem;
},
{
horizontal = 1;
place = "{569, 117}";
type = Stem;
},
{
place = "{13, 506}";
type = Stem;
}
);
layerId = "0D67ACED-73D3-49C3-92B3-C98855658409";
paths = (
{
nodes = (
"102 569 LINE",
"366 569 LINE",
"32 132 LINE",
"13 10 LINE",
"412 10 LINE",
"433 133 LINE",
"175 133 LINE",
"501 569 LINE",
"519 686 LINE",
"120 686 LINE"
);
}
);
width = 424;
}
);
unicode = 005A;
},
{
glyphname = bracketleft;
layers = (
{
hints = (
{
horizontal = 1;
place = "{-201, 117}";
type = Stem;
},
{
horizontal = 1;
place = "{781, 123}";
type = Stem;
},
{
place = "{25, 574}";
type = Stem;
}
);
layerId = "0D67ACED-73D3-49C3-92B3-C98855658409";
paths = (
{
nodes = (
"293 781 LINE",
"580 781 LINE",
"599 904 LINE",
"200 904 LINE",
"25 -201 LINE",
"424 -201 LINE",
"443 -84 LINE",
"156 -84 LINE"
);
}
);
width = 235;
}
);
unicode = 005B;
},
{
glyphname = backslash;
layers = (
{
hints = (
{
horizontal = 1;
place = "{686, -20}";
target = down;
type = TopGhost;
},
{
place = "{115, 365}";
type = Stem;
}
);
layerId = "0D67ACED-73D3-49C3-92B3-C98855658409";
paths = (
{
nodes = (
"356 10 LINE",
"480 10 LINE",
"239 686 LINE",
"115 686 LINE"
);
}
);
width = 500;
}
);
unicode = 005C;
},
{
glyphname = bracketright;
layers = (
{
hints = (
{
horizontal = 1;
place = "{-201, 123}";
type = Stem;
},
{
horizontal = 1;
place = "{787, 117}";
type = Stem;
},
{
place = "{-244, 574}";
type = Stem;
}
);
layerId = "0D67ACED-73D3-49C3-92B3-C98855658409";
paths = (
{
nodes = (
"62 -78 LINE",
"-225 -78 LINE",
"-244 -201 LINE",
"155 -201 LINE",
"330 904 LINE",
"-69 904 LINE",
"-88 787 LINE",
"199 787 LINE"
);
}
);
width = 235;
}
);
unicode = 005D;
},
{
glyphname = asciicircum;
layers = (
{
hints = (
{
horizontal = 1;
place = "{297, 374}";
type = Stem;
},
{
place = "{74, 603}";
type = Stem;
}
);
layerId = "0D67ACED-73D3-49C3-92B3-C98855658409";
paths = (
{
nodes = (
"433 513 LINE",
"547 297 LINE",
"677 297 LINE",
"486 671 LINE",
"423 671 LINE",
"74 297 LINE",
"229 297 LINE"
);
}
);
width = 651;
}
);
unicode = 005E;
},
{
glyphname = underscore;
layers = (
{
hints = (
{
horizontal = 1;
place = "{-163, 114}";
type = Stem;
},
{
place = "{16, 363}";
type = Stem;
}
);
layerId = "0D67ACED-73D3-49C3-92B3-C98855658409";
paths = (
{
nodes = (
"379 -49 LINE",
"34 -49 LINE",
"16 -163 LINE",
"361 -163 LINE"
);
}
);
width = 394;
}
);
unicode = 005F;
},
{
glyphname = grave;
layers = (
{
hints = (
{
horizontal = 1;
place = "{726, 107}";
type = Stem;
},
{
place = "{247, 188}";
type = Stem;
}
);
layerId = "0D67ACED-73D3-49C3-92B3-C98855658409";
paths = (
{
nodes = (
"320 726 LINE",
"435 726 LINE",
"362 833 LINE",
"247 833 LINE"
);
}
);
width = 343;
}
);
unicode = 0060;
},
{
glyphname = a;
layers = (
{
hints = (
{
horizontal = 1;
place = "{232, 113}";
type = Stem;
},
{
horizontal = 1;
place = "{569, 117}";
type = Stem;
},
{
place = "{13, 486}";
type = Stem;
}
);
layerId = "0D67ACED-73D3-49C3-92B3-C98855658409";
paths = (
{
nodes = (
"215 569 LINE",
"275 569 LINE",
"376 496 LINE",
"352 345 LINE",
"179 345 LINE"
);
},
{
nodes = (
"411 10 LINE",
"499 564 LINE",
"321 686 LINE",
"120 686 LINE",
"13 10 LINE",
"126 10 LINE",
"161 232 LINE",
"334 232 LINE",
"299 10 LINE"
);
}
);
width = 422;
}
);
unicode = 0061;
},
{
glyphname = b;
layers = (
{
hints = (
{
horizontal = 1;
place = "{10, 123}";
type = Stem;
},
{
horizontal = 1;
place = "{328, 97}";
type = Stem;
},
{
horizontal = 1;
place = "{569, 117}";
type = Stem;
},
{
place = "{13, 506}";
type = Stem;
}
);
layerId = "0D67ACED-73D3-49C3-92B3-C98855658409";
paths = (
{
nodes = (
"233 133 LINE",
"146 133 LINE",
"164 252 LINE",
"271 328 LINE",
"350 328 LINE",
"329 192 LINE"
);
},
{
nodes = (
"215 569 LINE",
"389 569 LINE",
"381 523 LINE",
"186 386 LINE"
);
},
{
nodes = (
"13 10 LINE",
"257 10 LINE",
"428 113 LINE",
"478 425 LINE",
"408 425 LINE",
"487 481 LINE",
"519 686 LINE",
"120 686 LINE"
);
}
);
width = 423;
}
);
unicode = 0062;
},
{
glyphname = c;
layers = (
{
hints = (
{
horizontal = 1;
place = "{10, 123}";
type = Stem;
},
{
horizontal = 1;
place = "{569, 117}";
type = Stem;
},
{
place = "{13, 506}";
type = Stem;
}
);
layerId = "0D67ACED-73D3-49C3-92B3-C98855658409";
paths = (
{
nodes = (
"120 686 LINE",
"13 10 LINE",
"412 10 LINE",
"432 133 LINE",
"146 133 LINE",
"215 569 LINE",
"501 569 LINE",
"519 686 LINE"
);
}
);
width = 423;
}
);
unicode = 0063;
},
{
glyphname = d;
layers = (
{
hints = (
{
horizontal = 1;
place = "{10, 123}";
type = Stem;
},
{
horizontal = 1;
place = "{569, 117}";
type = Stem;
},
{
place = "{13, 486}";
type = Stem;
}
);
layerId = "0D67ACED-73D3-49C3-92B3-C98855658409";
paths = (
{
nodes = (
"120 686 LINE",
"13 10 LINE",
"411 10 LINE",
"499 563 LINE",
"321 686 LINE"
);
},
{
nodes = (
"275 569 LINE",
"376 495 LINE",
"319 133 LINE",
"146 133 LINE",
"215 569 LINE"
);
}
);
width = 422;
}
);
unicode = 0064;
},
{
glyphname = e;
layers = (
{
hints = (
{
horizontal = 1;
place = "{10, 123}";
type = Stem;
},
{
horizontal = 1;
place = "{569, 117}";
type = Stem;
},
{
place = "{13, 494}";
type = Stem;
}
);
layerId = "0D67ACED-73D3-49C3-92B3-C98855658409";
paths = (
{
nodes = (
"215 569 LINE",
"489 569 LINE",
"507 686 LINE",
"120 686 LINE",
"13 10 LINE",
"400 10 LINE",
"420 133 LINE",
"146 133 LINE",
"169 280 LINE",
"354 358 LINE",
"374 484 LINE",
"189 406 LINE"
);
}
);
width = 411;
}
);
unicode = 0065;
},
{
glyphname = f;
layers = (
{
hints = (
{
horizontal = 1;
place = "{569, 117}";
type = Stem;
},
{
place = "{13, 467}";
type = Stem;
}
);
layerId = "0D67ACED-73D3-49C3-92B3-C98855658409";
paths = (
{
nodes = (
"120 686 LINE",
"13 10 LINE",
"126 10 LINE",
"169 284 LINE",
"346 365 LINE",
"366 491 LINE",
"189 410 LINE",
"215 569 LINE",
"462 569 LINE",
"480 686 LINE"
);
}
);
width = 384;
}
);
unicode = 0066;
},
{
glyphname = g;
layers = (
{
hints = (
{
horizontal = 1;
place = "{10, 123}";
type = Stem;
},
{
horizontal = 1;
place = "{569, 117}";
type = Stem;
},
{
place = "{13, 506}";
type = Stem;
}
);
layerId = "0D67ACED-73D3-49C3-92B3-C98855658409";
paths = (
{
nodes = (
"120 686 LINE",
"13 10 LINE",
"412 10 LINE",
"485 472 LINE",
"249 359 LINE",
"229 227 LINE",
"344 288 LINE",
"320 133 LINE",
"146 133 LINE",
"215 569 LINE",
"501 569 LINE",
"519 686 LINE"
);
}
);
width = 423;
}
);
unicode = 0067;
},
{
glyphname = h;
layers = (
{
hints = (
{
horizontal = 1;
place = "{330, 114}";
type = Stem;
},
{
horizontal = 1;
place = "{686, -20}";
target = down;
type = TopGhost;
},
{
place = "{13, 509}";
type = Stem;
}
);
layerId = "0D67ACED-73D3-49C3-92B3-C98855658409";
paths = (
{
nodes = (
"522 686 LINE",
"408 686 LINE",
"370 444 LINE",
"195 444 LINE",
"233 686 LINE",
"120 686 LINE",
"13 10 LINE",
"126 10 LINE",
"177 330 LINE",
"352 330 LINE",
"301 10 LINE",
"415 10 LINE"
);
}
);
width = 426;
}
);
unicode = 0068;
},
{
glyphname = i;
layers = (
{
hints = (
{
horizontal = 1;
place = "{686, -20}";
target = down;
type = TopGhost;
},
{
place = "{13, 220}";
type = Stem;
}
);
layerId = "0D67ACED-73D3-49C3-92B3-C98855658409";
paths = (
{
nodes = (
"13 10 LINE",
"126 10 LINE",
"233 686 LINE",
"120 686 LINE"
);
}
);
width = 137;
}
);
unicode = 0069;
},
{
glyphname = j;
layers = (
{
hints = (
{
horizontal = 1;
place = "{170, 117}";
type = Stem;
},
{
horizontal = 1;
place = "{569, 117}";
type = Stem;
},
{
place = "{27, 487}";
type = Stem;
}
);
layerId = "0D67ACED-73D3-49C3-92B3-C98855658409";
paths = (
{
nodes = (
"383 569 LINE",
"319 170 LINE",
"228 133 LINE",
"150 170 LINE",
"169 287 LINE",
"57 287 LINE",
"27 95 LINE",
"208 10 LINE",
"421 95 LINE",
"514 686 LINE",
"120 686 LINE",
"102 569 LINE"
);
}
);
width = 418;
}
);
unicode = 006A;
},
{
glyphname = k;
layers = (
{
hints = (
{
horizontal = 1;
place = "{324, 97}";
type = Stem;
},
{
horizontal = 1;
place = "{686, -20}";
target = down;
type = TopGhost;
},
{
place = "{13, 506}";
type = Stem;
}
);
layerId = "0D67ACED-73D3-49C3-92B3-C98855658409";
paths = (
{
nodes = (
"186 390 LINE",
"233 686 LINE",
"120 686 LINE",
"13 10 LINE",
"126 10 LINE",
"164 248 LINE",
"271 324 LINE",
"350 324 LINE",
"300 10 LINE",
"412 10 LINE",
"477 421 LINE",
"407 421 LINE",
"486 477 LINE",
"519 686 LINE",
"397 686 LINE",
"370 514 LINE"
);
}
);
width = 423;
}
);
unicode = 006B;
},
{
glyphname = l;
layers = (
{
hints = (
{
horizontal = 1;
place = "{10, 123}";
type = Stem;
},
{
horizontal = 1;
place = "{686, -20}";
target = down;
type = TopGhost;
},
{
place = "{13, 390}";
type = Stem;
}
);
layerId = "0D67ACED-73D3-49C3-92B3-C98855658409";
paths = (
{
nodes = (
"233 686 LINE",
"120 686 LINE",
"13 10 LINE",
"383 10 LINE",
"403 133 LINE",
"146 133 LINE"
);
}
);
width = 394;
}
);
unicode = 006C;
},
{
glyphname = m;
layers = (
{
hints = (
{
horizontal = 1;
place = "{569, 117}";
type = Stem;
},
{
place = "{13, 675}";
type = Stem;
}
);
layerId = "0D67ACED-73D3-49C3-92B3-C98855658409";
paths = (
{
nodes = (
"248 10 LINE",
"361 10 LINE",
"450 569 LINE",
"464 569 LINE",
"565 496 LINE",
"488 10 LINE",
"600 10 LINE",
"688 564 LINE",
"510 686 LINE",
"120 686 LINE",
"13 10 LINE",
"126 10 LINE",
"215 569 LINE",
"337 569 LINE"
);
}
);
width = 611;
}
);
unicode = 006D;
},
{
glyphname = n;
layers = (
{
hints = (
{
horizontal = 1;
place = "{569, 117}";
type = Stem;
},
{
place = "{13, 486}";
type = Stem;
}
);
layerId = "0D67ACED-73D3-49C3-92B3-C98855658409";
paths = (
{
nodes = (
"275 569 LINE",
"376 495 LINE",
"299 10 LINE",
"411 10 LINE",
"499 563 LINE",
"321 686 LINE",
"120 686 LINE",
"13 10 LINE",
"126 10 LINE",
"215 569 LINE"
);
}
);
width = 422;
}
);
unicode = 006E;
},
{
glyphname = o;
layers = (
{
hints = (
{
horizontal = 1;
place = "{10, 123}";
type = Stem;
},
{
horizontal = 1;
place = "{569, 117}";
type = Stem;
},
{
place = "{13, 506}";
type = Stem;
}
);
layerId = "0D67ACED-73D3-49C3-92B3-C98855658409";
paths = (
{
nodes = (
"120 686 LINE",
"13 10 LINE",
"412 10 LINE",
"519 686 LINE"
);
},
{
nodes = (
"319 133 LINE",
"145 133 LINE",
"214 569 LINE",
"388 569 LINE"
);
}
);
width = 423;
}
);
unicode = 006F;
},
{
glyphname = p;
layers = (
{
hints = (
{
horizontal = 1;
place = "{569, 117}";
type = Stem;
},
{
place = "{13, 493}";
type = Stem;
}
);
layerId = "0D67ACED-73D3-49C3-92B3-C98855658409";
paths = (
{
nodes = (
"215 569 LINE",
"372 569 LINE",
"356 469 LINE",
"177 332 LINE"
);
},
{
nodes = (
"464 419 LINE",
"506 686 LINE",
"120 686 LINE",
"13 10 LINE",
"126 10 LINE",
"155 190 LINE"
);
}
);
width = 410;
}
);
unicode = 0070;
},
{
glyphname = q;
layers = (
{
hints = (
{
horizontal = 1;
place = "{10, 123}";
type = Stem;
},
{
horizontal = 1;
place = "{569, 117}";
type = Stem;
},
{
place = "{13, 534}";
type = Stem;
}
);
layerId = "0D67ACED-73D3-49C3-92B3-C98855658409";
paths = (
{
nodes = (
"120 686 LINE",
"13 10 LINE",
"146 10 LINE",
"166 133 LINE",
"145 133 LINE",
"214 569 LINE",
"416 569 LINE",
"347 133 LINE",
"323 133 LINE",
"303 10 LINE",
"440 10 LINE",
"547 686 LINE"
);
},
{
nodes = (
"334 335 LINE",
"210 267 LINE",
"151 -106 LINE",
"276 -28 LINE"
);
}
);
width = 451;
}
);
unicode = 0071;
},
{
glyphname = r;
layers = (
{
hints = (
{
horizontal = 1;
place = "{281, 97}";
type = Stem;
},
{
horizontal = 1;
place = "{569, 117}";
type = Stem;
},
{
place = "{13, 506}";
type = Stem;
}
);
layerId = "0D67ACED-73D3-49C3-92B3-C98855658409";
paths = (
{
nodes = (
"215 569 LINE",
"389 569 LINE",
"375 482 LINE",
"179 347 LINE"
);
},
{
nodes = (
"264 281 LINE",
"343 281 LINE",
"300 10 LINE",
"412 10 LINE",
"470 378 LINE",
"400 378 LINE",
"479 434 LINE",
"519 686 LINE",
"120 686 LINE",
"13 10 LINE",
"126 10 LINE",
"157 205 LINE"
);
}
);
width = 423;
}
);
unicode = 0072;
},
{
glyphname = s;
layers = (
{
hints = (
{
horizontal = 1;
place = "{10, 123}";
type = Stem;
},
{
horizontal = 1;
place = "{569, 117}";
type = Stem;
},
{
place = "{13, 506}";
type = Stem;
}
);
layerId = "0D67ACED-73D3-49C3-92B3-C98855658409";
paths = (
{
nodes = (
"199 472 LINE",
"215 569 LINE",
"387 569 LINE",
"370 467 LINE",
"492 516 LINE",
"519 686 LINE",
"120 686 LINE",
"76 405 LINE",
"337 253 LINE",
"318 133 LINE",
"145 133 LINE",
"161 239 LINE",
"49 239 LINE",
"13 10 LINE",
"412 10 LINE",
"462 323 LINE"
);
}
);
width = 423;
}
);
unicode = 0073;
},
{
glyphname = t;
layers = (
{
hints = (
{
horizontal = 1;
place = "{569, 117}";
type = Stem;
},
{
place = "{102, 371}";
type = Stem;
}
);
layerId = "0D67ACED-73D3-49C3-92B3-C98855658409";
paths = (
{
nodes = (
"102 569 LINE",
"224 569 LINE",
"135 10 LINE",
"248 10 LINE",
"337 569 LINE",
"455 569 LINE",
"473 686 LINE",
"120 686 LINE"
);
}
);
width = 377;
}
);
unicode = 0074;
},
{
glyphname = u;
layers = (
{
hints = (
{
horizontal = 1;
place = "{10, 123}";
type = Stem;
},
{
horizontal = 1;
place = "{686, -20}";
target = down;
type = TopGhost;
},
{
place = "{13, 506}";
type = Stem;
}
);
layerId = "0D67ACED-73D3-49C3-92B3-C98855658409";
paths = (
{
nodes = (
"319 133 LINE",
"145 133 LINE",
"232 686 LINE",
"120 686 LINE",
"13 10 LINE",
"412 10 LINE",
"519 686 LINE",
"406 686 LINE"
);
}
);
width = 423;
}
);
unicode = 0075;
},
{
glyphname = v;
layers = (
{
hints = (
{
horizontal = 1;
place = "{10, 116}";
type = Stem;
},
{
horizontal = 1;
place = "{686, -20}";
target = down;
type = TopGhost;
},
{
place = "{13, 505}";
type = Stem;
}
);
layerId = "0D67ACED-73D3-49C3-92B3-C98855658409";
paths = (
{
nodes = (
"144 126 LINE",
"233 686 LINE",
"120 686 LINE",
"13 10 LINE",
"214 10 LINE",
"430 132 LINE",
"518 686 LINE",
"406 686 LINE",
"329 200 LINE",
"204 126 LINE"
);
}
);
width = 422;
}
);
unicode = 0076;
},
{
glyphname = w;
layers = (
{
hints = (
{
horizontal = 1;
place = "{10, 116}";
type = Stem;
},
{
horizontal = 1;
place = "{686, -20}";
target = down;
type = TopGhost;
},
{
place = "{13, 694}";
type = Stem;
}
);
layerId = "0D67ACED-73D3-49C3-92B3-C98855658409";
paths = (
{
nodes = (
"266 126 LINE",
"144 126 LINE",
"233 686 LINE",
"120 686 LINE",
"13 10 LINE",
"403 10 LINE",
"619 132 LINE",
"707 686 LINE",
"595 686 LINE",
"518 200 LINE",
"393 126 LINE",
"379 126 LINE",
"468 686 LINE",
"355 686 LINE"
);
}
);
width = 611;
}
);
unicode = 0077;
},
{
glyphname = x;
layers = (
{
hints = (
{
horizontal = 1;
place = "{686, -20}";
target = down;
type = TopGhost;
},
{
place = "{13, 488}";
type = Stem;
}
);
layerId = "0D67ACED-73D3-49C3-92B3-C98855658409";
paths = (
{
nodes = (
"273 450 LINE",
"213 560 LINE",
"233 686 LINE",
"120 686 LINE",
"93 512 LINE",
"183 346 LINE",
"40 181 LINE",
"13 10 LINE",
"126 10 LINE",
"145 132 LINE",
"240 242 LINE",
"300 132 LINE",
"281 10 LINE",
"394 10 LINE",
"421 181 LINE",
"330 346 LINE",
"474 512 LINE",
"501 686 LINE",
"388 686 LINE",
"368 560 LINE"
);
}
);
width = 405;
}
);
unicode = 0078;
},
{
glyphname = y;
layers = (
{
hints = (
{
horizontal = 1;
place = "{686, -20}";
target = down;
type = TopGhost;
},
{
place = "{76, 427}";
type = Stem;
}
);
layerId = "0D67ACED-73D3-49C3-92B3-C98855658409";
paths = (
{
nodes = (
"199 474 LINE",
"232 686 LINE",
"120 686 LINE",
"76 410 LINE",
"194 313 LINE",
"146 10 LINE",
"260 10 LINE",
"308 314 LINE",
"459 410 LINE",
"503 686 LINE",
"391 686 LINE",
"358 474 LINE",
"269 420 LINE"
);
}
);
width = 407;
}
);
unicode = 0079;
},
{
glyphname = z;
layers = (
{
hints = (
{
horizontal = 1;
place = "{10, 123}";
type = Stem;
},
{
horizontal = 1;
place = "{569, 117}";
type = Stem;
},
{
place = "{13, 506}";
type = Stem;
}
);
layerId = "0D67ACED-73D3-49C3-92B3-C98855658409";
paths = (
{
nodes = (
"102 569 LINE",
"366 569 LINE",
"32 132 LINE",
"13 10 LINE",
"412 10 LINE",
"433 133 LINE",
"175 133 LINE",
"501 569 LINE",
"519 686 LINE",
"120 686 LINE"
);
}
);
width = 424;
}
);
unicode = 007A;
},
{
glyphname = braceleft;
layers = (
{
hints = (
{
horizontal = 1;
place = "{-183, 117}";
type = Stem;
},
{
horizontal = 1;
place = "{736, 116}";
type = Stem;
},
{
place = "{63, 382}";
type = Stem;
}
);
layerId = "0D67ACED-73D3-49C3-92B3-C98855658409";
paths = (
{
nodes = (
"63 270 LINE",
"133 219 LINE",
"68 -183 LINE",
"285 -183 LINE",
"304 -66 LINE",
"200 -66 LINE",
"256 287 LINE",
"165 350 LINE",
"273 393 LINE",
"328 736 LINE",
"427 736 LINE",
"445 852 LINE",
"235 852 LINE",
"171 468 LINE",
"89 434 LINE"
);
}
);
width = 273;
}
);
unicode = 007B;
},
{
glyphname = bar;
layers = (
{
hints = (
{
horizontal = 1;
place = "{-79, 872}";
type = Stem;
},
{
place = "{60, 220}";
type = Stem;
}
);
layerId = "0D67ACED-73D3-49C3-92B3-C98855658409";
paths = (
{
nodes = (
"60 -79 LINE",
"140 -79 LINE",
"280 793 LINE",
"200 793 LINE"
);
}
);
width = 231;
}
);
unicode = 007C;
},
{
glyphname = braceright;
layers = (
{
hints = (
{
horizontal = 1;
place = "{-183, 116}";
type = Stem;
},
{
horizontal = 1;
place = "{735, 117}";
type = Stem;
},
{
place = "{-77, 382}";
type = Stem;
}
);
layerId = "0D67ACED-73D3-49C3-92B3-C98855658409";
paths = (
{
nodes = (
"305 399 LINE",
"235 450 LINE",
"300 852 LINE",
"83 852 LINE",
"64 735 LINE",
"168 735 LINE",
"112 382 LINE",
"203 319 LINE",
"95 276 LINE",
"40 -67 LINE",
"-59 -67 LINE",
"-77 -183 LINE",
"133 -183 LINE",
"197 201 LINE",
"279 235 LINE"
);
}
);
width = 273;
}
);
unicode = 007D;
},
{
glyphname = asciitilde;
layers = (
{
hints = (
{
horizontal = 1;
place = "{273, 117}";
type = Stem;
},
{
horizontal = 1;
place = "{353, 116}";
type = Stem;
},
{
place = "{73, 577}";
type = Stem;
}
);
layerId = "0D67ACED-73D3-49C3-92B3-C98855658409";
paths = (
{
nodes = (
"584 452 LINE",
"553 417 OFFCURVE",
"510 390 OFFCURVE",
"466 390 CURVE SMOOTH",
"429 390 OFFCURVE",
"400 408 OFFCURVE",
"373 427 CURVE SMOOTH",
"345 447 OFFCURVE",
"312 469 OFFCURVE",
"261 469 CURVE SMOOTH",
"189 469 OFFCURVE",
"122 428 OFFCURVE",
"73 365 CURVE",
"137 292 LINE",
"170 329 OFFCURVE",
"209 353 OFFCURVE",
"257 353 CURVE SMOOTH",
"296 353 OFFCURVE",
"323 335 OFFCURVE",
"351 316 CURVE SMOOTH",
"382 296 OFFCURVE",
"414 273 OFFCURVE",
"469 273 CURVE SMOOTH",
"541 273 OFFCURVE",
"605 315 OFFCURVE",
"650 379 CURVE"
);
}
);
width = 591;
}
);
unicode = 007E;
},
{
glyphname = exclamdown;
layers = (
{
hints = (
{
horizontal = 1;
place = "{575, 111}";
type = Stem;
},
{
place = "{13, 220}";
type = Stem;
}
);
layerId = "0D67ACED-73D3-49C3-92B3-C98855658409";
paths = (
{
nodes = (
"209 532 LINE",
"96 532 LINE",
"13 10 LINE",
"126 10 LINE"
);
},
{
nodes = (
"120 686 LINE",
"103 575 LINE",
"216 575 LINE",
"233 686 LINE"
);
}
);
width = 137;
}
);
unicode = 00A1;
},
{
glyphname = cent;
layers = (
{
hints = (
{
horizontal = 1;
place = "{164, 123}";
type = Stem;
},
{
horizontal = 1;
place = "{452, 117}";
type = Stem;
},
{
place = "{52, 484}";
type = Stem;
}
);
layerId = "0D67ACED-73D3-49C3-92B3-C98855658409";
paths = (
{
nodes = (
"262 287 LINE",
"185 287 LINE",
"210 452 LINE",
"288 452 LINE"
);
},
{
nodes = (
"285 -79 LINE",
"324 164 LINE",
"473 164 LINE",
"493 287 LINE",
"344 287 LINE",
"370 452 LINE",
"518 452 LINE",
"536 569 LINE",
"389 569 LINE",
"425 793 LINE",
"343 793 LINE",
"307 569 LINE",
"115 569 LINE",
"52 164 LINE",
"242 164 LINE",
"203 -79 LINE"
);
}
);
width = 492;
}
);
unicode = 00A2;
},
{
glyphname = sterling;
layers = (
{
hints = (
{
horizontal = 1;
place = "{10, 114}";
type = Stem;
},
{
horizontal = 1;
place = "{241, 114}";
type = Stem;
},
{
horizontal = 1;
place = "{569, 117}";
type = Stem;
},
{
place = "{18, 562}";
type = Stem;
}
);
layerId = "0D67ACED-73D3-49C3-92B3-C98855658409";
paths = (
{
nodes = (
"241 355 LINE",
"276 569 LINE",
"448 569 LINE",
"431 467 LINE",
"553 516 LINE",
"580 686 LINE",
"181 686 LINE",
"129 355 LINE",
"80 355 LINE",
"62 241 LINE",
"111 241 LINE",
"92 124 LINE",
"35 124 LINE",
"18 10 LINE",
"481 10 LINE",
"498 124 LINE",
"204 124 LINE",
"223 241 LINE",
"346 241 LINE",
"364 355 LINE"
);
}
);
width = 534;
}
);
unicode = 00A3;
},
{
glyphname = yen;
layers = (
{
hints = (
{
horizontal = 1;
place = "{47, 114}";
type = Stem;
},
{
horizontal = 1;
place = "{221, 114}";
type = Stem;
},
{
horizontal = 1;
place = "{686, -20}";
target = down;
type = TopGhost;
},
{
place = "{36, 467}";
type = Stem;
},
{
place = "{174, 114}";
type = Stem;
}
);
layerId = "0D67ACED-73D3-49C3-92B3-C98855658409";
paths = (
{
nodes = (
"284 161 LINE",
"293 221 LINE",
"403 221 LINE",
"421 335 LINE",
"341 335 LINE",
"459 410 LINE",
"503 686 LINE",
"391 686 LINE",
"358 474 LINE",
"269 420 LINE",
"199 474 LINE",
"232 686 LINE",
"120 686 LINE",
"76 410 LINE",
"167 335 LINE",
"81 335 LINE",
"63 221 LINE",
"179 221 LINE",
"170 161 LINE",
"54 161 LINE",
"36 47 LINE",
"152 47 LINE",
"146 10 LINE",
"260 10 LINE",
"266 47 LINE",
"376 47 LINE",
"394 161 LINE"
);
}
);
width = 407;
}
);
unicode = 00A5;
},
{
glyphname = section;
layers = (
{
hints = (
{
horizontal = 1;
place = "{-177, 123}";
type = Stem;
},
{
horizontal = 1;
place = "{201, 102}";
type = Stem;
},
{
horizontal = 1;
place = "{382, 117}";
type = Stem;
},
{
horizontal = 1;
place = "{739, 117}";
type = Stem;
},
{
place = "{23, 564}";
type = Stem;
}
);
layerId = "0D67ACED-73D3-49C3-92B3-C98855658409";
paths = (
{
nodes = (
"225 382 LINE",
"394 382 LINE",
"380 303 LINE",
"213 303 LINE"
);
},
{
nodes = (
"480 201 LINE",
"530 493 LINE",
"267 642 LINE",
"283 739 LINE",
"455 739 LINE",
"438 637 LINE",
"560 686 LINE",
"587 856 LINE",
"188 856 LINE",
"144 575 LINE",
"274 499 LINE",
"130 499 LINE",
"86 218 LINE",
"347 66 LINE",
"328 -54 LINE",
"155 -54 LINE",
"171 52 LINE",
"59 52 LINE",
"23 -177 LINE",
"422 -177 LINE",
"472 136 LINE",
"341 201 LINE"
);
}
);
width = 497;
}
);
unicode = 00A7;
},
{
glyphname = dieresis;
layers = (
{
hints = (
{
horizontal = 1;
place = "{727, 108}";
type = Stem;
},
{
place = "{270, 313}";
type = Stem;
}
);
layerId = "0D67ACED-73D3-49C3-92B3-C98855658409";
paths = (
{
nodes = (
"270 727 LINE",
"383 727 LINE",
"400 835 LINE",
"287 835 LINE"
);
},
{
nodes = (
"453 727 LINE",
"566 727 LINE",
"583 835 LINE",
"470 835 LINE"
);
}
);
width = 833;
}
);
unicode = 00A8;
},
{
glyphname = copyright;
layers = (
{
hints = (
{
horizontal = 1;
place = "{183, 64}";
type = Stem;
},
{
horizontal = 1;
place = "{328, 66}";
type = Stem;
},
{
horizontal = 1;
place = "{484, 65}";
type = Stem;
},
{
horizontal = 1;
place = "{613, 64}";
type = Stem;
},
{
place = "{114, 64}";
type = Stem;
},
{
place = "{544, 64}";
type = Stem;
}
);
layerId = "0D67ACED-73D3-49C3-92B3-C98855658409";
paths = (
{
nodes = (
"114 294 OFFCURVE",
"225 183 OFFCURVE",
"361 183 CURVE SMOOTH",
"497 183 OFFCURVE",
"608 294 OFFCURVE",
"608 430 CURVE SMOOTH",
"608 566 OFFCURVE",
"497 677 OFFCURVE",
"361 677 CURVE SMOOTH",
"225 677 OFFCURVE",
"114 566 OFFCURVE",
"114 430 CURVE SMOOTH"
);
},
{
nodes = (
"178 531 OFFCURVE",
"260 613 OFFCURVE",
"361 613 CURVE SMOOTH",
"462 613 OFFCURVE",
"544 531 OFFCURVE",
"544 430 CURVE SMOOTH",
"544 329 OFFCURVE",
"462 247 OFFCURVE",
"361 247 CURVE SMOOTH",
"260 247 OFFCURVE",
"178 329 OFFCURVE",
"178 430 CURVE SMOOTH"
);
},
{
nodes = (
"298 549 LINE",
"260 328 LINE",
"413 328 LINE",
"425 394 LINE",
"336 394 LINE",
"343 430 OFFCURVE",
"345 452 OFFCURVE",
"352 484 CURVE",
"440 484 LINE",
"451 549 LINE"
);
}
);
width = 599;
}
);
unicode = 00A9;
},
{
glyphname = ordfeminine;
layers = (
{
hints = (
{
horizontal = 1;
place = "{481, 48}";
type = Stem;
},
{
horizontal = 1;
place = "{623, 50}";
type = Stem;
},
{
place = "{90, 206}";
type = Stem;
}
);
layerId = "0D67ACED-73D3-49C3-92B3-C98855658409";
paths = (
{
nodes = (
"176 623 LINE",
"201 623 LINE",
"244 592 LINE",
"234 529 LINE",
"160 529 LINE"
);
},
{
nodes = (
"259 387 LINE",
"296 622 LINE",
"221 673 LINE",
"136 673 LINE",
"90 387 LINE",
"138 387 LINE",
"153 481 LINE",
"226 481 LINE",
"211 387 LINE"
);
}
);
width = 221;
}
);
unicode = 00AA;
},
{
glyphname = registered;
layers = (
{
hints = (
{
horizontal = 1;
place = "{287, 41}";
type = Stem;
},
{
horizontal = 1;
place = "{464, 32}";
type = Stem;
},
{
horizontal = 1;
place = "{559, 38}";
type = Stem;
},
{
horizontal = 1;
place = "{644, 41}";
type = Stem;
},
{
place = "{104, 39}";
type = Stem;
},
{
place = "{459, 39}";
type = Stem;
}
);
layerId = "0D67ACED-73D3-49C3-92B3-C98855658409";
paths = (
{
nodes = (
"104 376 OFFCURVE",
"193 287 OFFCURVE",
"301 287 CURVE SMOOTH",
"409 287 OFFCURVE",
"498 376 OFFCURVE",
"498 485 CURVE SMOOTH",
"498 594 OFFCURVE",
"409 685 OFFCURVE",
"301 685 CURVE SMOOTH",
"193 685 OFFCURVE",
"104 594 OFFCURVE",
"104 485 CURVE SMOOTH"
);
},
{
nodes = (
"143 573 OFFCURVE",
"214 644 OFFCURVE",
"301 644 CURVE SMOOTH",
"388 644 OFFCURVE",
"459 573 OFFCURVE",
"459 486 CURVE SMOOTH",
"459 399 OFFCURVE",
"388 328 OFFCURVE",
"301 328 CURVE SMOOTH",
"214 328 OFFCURVE",
"143 399 OFFCURVE",
"143 486 CURVE SMOOTH"
);
},
{
nodes = (
"261 439 LINE",
"296 464 LINE",
"321 464 LINE",
"307 375 LINE",
"343 375 LINE",
"362 496 LINE",
"340 496 LINE",
"366 514 LINE",
"378 597 LINE",
"249 597 LINE",
"213 375 LINE",
"251 375 LINE"
);
},
{
nodes = (
"268 485 LINE",
"279 559 LINE",
"336 559 LINE",
"332 530 LINE"
);
}
);
width = 450;
}
);
unicode = 00AE;
},
{
glyphname = macron;
layers = (
{
hints = (
{
horizontal = 1;
place = "{727, 114}";
type = Stem;
},
{
place = "{186, 298}";
type = Stem;
}
);
layerId = "0D67ACED-73D3-49C3-92B3-C98855658409";
paths = (
{
nodes = (
"484 841 LINE",
"204 841 LINE",
"186 727 LINE",
"466 727 LINE"
);
}
);
width = 504;
}
);
unicode = 00AF;
},
{
glyphname = degree;
layers = (
{
hints = (
{
horizontal = 1;
place = "{391, 66}";
type = Stem;
},
{
horizontal = 1;
place = "{630, 66}";
type = Stem;
},
{
place = "{106, 66}";
type = Stem;
},
{
place = "{345, 66}";
type = Stem;
}
);
layerId = "0D67ACED-73D3-49C3-92B3-C98855658409";
paths = (
{
nodes = (
"106 459 OFFCURVE",
"174 391 OFFCURVE",
"258 391 CURVE SMOOTH",
"342 391 OFFCURVE",
"411 459 OFFCURVE",
"411 543 CURVE SMOOTH",
"411 627 OFFCURVE",
"342 696 OFFCURVE",
"258 696 CURVE SMOOTH",
"174 696 OFFCURVE",
"106 627 OFFCURVE",
"106 543 CURVE SMOOTH"
);
},
{
nodes = (
"172 591 OFFCURVE",
"210 630 OFFCURVE",
"258 630 CURVE SMOOTH",
"306 630 OFFCURVE",
"345 591 OFFCURVE",
"345 543 CURVE SMOOTH",
"345 495 OFFCURVE",
"306 457 OFFCURVE",
"258 457 CURVE SMOOTH",
"210 457 OFFCURVE",
"172 495 OFFCURVE",
"172 543 CURVE SMOOTH"
);
}
);
width = 346;
}
);
unicode = 00B0;
},
{
glyphname = acute;
layers = (
{
hints = (
{
horizontal = 1;
place = "{726, 107}";
type = Stem;
},
{
place = "{247, 188}";
type = Stem;
}
);
layerId = "0D67ACED-73D3-49C3-92B3-C98855658409";
paths = (
{
nodes = (
"435 833 LINE",
"320 833 LINE",
"247 726 LINE",
"362 726 LINE"
);
}
);
width = 343;
}
);
unicode = 00B4;
},
{
glyphname = paragraph;
layers = (
{
hints = (
{
horizontal = 1;
place = "{572, 114}";
type = Stem;
},
{
place = "{82, 724}";
type = Stem;
}
);
layerId = "0D67ACED-73D3-49C3-92B3-C98855658409";
paths = (
{
nodes = (
"82 346 LINE",
"308 346 LINE",
"222 -203 LINE",
"335 -203 LINE",
"457 572 LINE",
"584 572 LINE",
"462 -203 LINE",
"575 -203 LINE",
"697 572 LINE",
"788 572 LINE",
"806 686 LINE",
"138 686 LINE"
);
}
);
width = 728;
}
);
unicode = 00B6;
},
{
glyphname = periodcentered;
layers = (
{
hints = (
{
horizontal = 1;
place = "{312, 132}";
type = Stem;
},
{
place = "{75, 161}";
type = Stem;
}
);
layerId = "0D67ACED-73D3-49C3-92B3-C98855658409";
paths = (
{
nodes = (
"75 312 LINE",
"214 312 LINE",
"236 444 LINE",
"97 444 LINE"
);
}
);
width = 184;
}
);
unicode = 00B7;
},
{
glyphname = cedilla;
layers = (
{
hints = (
{
horizontal = 1;
place = "{-301, 103}";
type = Stem;
},
{
horizontal = 1;
place = "{-63, 73}";
type = Stem;
},
{
place = "{122, 306}";
type = Stem;
}
);
layerId = "0D67ACED-73D3-49C3-92B3-C98855658409";
paths = (
{
nodes = (
"270 -63 LINE",
"285 10 LINE",
"178 10 LINE",
"154 -119 LINE",
"311 -198 LINE",
"140 -198 LINE",
"122 -301 LINE",
"401 -301 LINE",
"428 -140 LINE"
);
}
);
width = 481;
}
);
unicode = 00B8;
},
{
glyphname = ordmasculine;
layers = (
{
hints = (
{
horizontal = 1;
place = "{387, 52}";
type = Stem;
},
{
horizontal = 1;
place = "{623, 50}";
type = Stem;
},
{
place = "{81, 214}";
type = Stem;
}
);
layerId = "0D67ACED-73D3-49C3-92B3-C98855658409";
paths = (
{
nodes = (
"127 673 LINE",
"81 387 LINE",
"250 387 LINE",
"295 673 LINE"
);
},
{
nodes = (
"211 439 LINE",
"137 439 LINE",
"166 623 LINE",
"240 623 LINE"
);
}
);
width = 229;
}
);
unicode = 00BA;
},
{
glyphname = questiondown;
layers = (
{
hints = (
{
horizontal = 1;
place = "{10, 117}";
type = Stem;
},
{
horizontal = 1;
place = "{564, 122}";
type = Stem;
},
{
place = "{57, 506}";
type = Stem;
}
);
layerId = "0D67ACED-73D3-49C3-92B3-C98855658409";
paths = (
{
nodes = (
"538 525 LINE",
"425 525 LINE",
"417 473 LINE",
"89 215 LINE",
"57 10 LINE",
"456 10 LINE",
"481 169 LINE",
"368 169 LINE",
"361 127 LINE",
"187 127 LINE",
"195 173 LINE",
"525 427 LINE"
);
},
{
nodes = (
"448 686 LINE",
"429 564 LINE",
"544 564 LINE",
"563 686 LINE"
);
}
);
width = 500;
}
);
unicode = 00BF;
},
{
glyphname = Agrave;
layers = (
{
hints = (
{
horizontal = 1;
place = "{232, 113}";
type = Stem;
},
{
horizontal = 1;
place = "{569, 117}";
type = Stem;
},
{
horizontal = 1;
place = "{726, 107}";
type = Stem;
},
{
place = "{13, 486}";
type = Stem;
}
);
layerId = "0D67ACED-73D3-49C3-92B3-C98855658409";
paths = (
{
nodes = (
"215 569 LINE",
"275 569 LINE",
"376 496 LINE",
"352 345 LINE",
"179 345 LINE"
);
},
{
nodes = (
"411 10 LINE",
"499 564 LINE",
"321 686 LINE",
"120 686 LINE",
"13 10 LINE",
"126 10 LINE",
"161 232 LINE",
"334 232 LINE",
"299 10 LINE"
);
},
{
nodes = (
"381 726 LINE",
"308 833 LINE",
"193 833 LINE",
"266 726 LINE"
);
}
);
width = 422;
}
);
unicode = 00C0;
},
{
glyphname = Aacute;
layers = (
{
hints = (
{
horizontal = 1;
place = "{232, 113}";
type = Stem;
},
{
horizontal = 1;
place = "{569, 117}";
type = Stem;
},
{
horizontal = 1;
place = "{726, 107}";
type = Stem;
},
{
place = "{13, 486}";
type = Stem;
}
);
layerId = "0D67ACED-73D3-49C3-92B3-C98855658409";
paths = (
{
nodes = (
"215 569 LINE",
"275 569 LINE",
"376 496 LINE",
"352 345 LINE",
"179 345 LINE"
);
},
{
nodes = (
"411 10 LINE",
"499 564 LINE",
"321 686 LINE",
"120 686 LINE",
"13 10 LINE",
"126 10 LINE",
"161 232 LINE",
"334 232 LINE",
"299 10 LINE"
);
},
{
nodes = (
"315 833 LINE",
"242 726 LINE",
"357 726 LINE",
"430 833 LINE"
);
}
);
width = 422;
}
);
unicode = 00C1;
},
{
glyphname = Acircumflex;
layers = (
{
hints = (
{
horizontal = 1;
place = "{232, 113}";
type = Stem;
},
{
horizontal = 1;
place = "{569, 117}";
type = Stem;
},
{
horizontal = 1;
place = "{726, 107}";
type = Stem;
},
{
place = "{13, 486}";
type = Stem;
}
);
layerId = "0D67ACED-73D3-49C3-92B3-C98855658409";
paths = (
{
nodes = (
"215 569 LINE",
"275 569 LINE",
"376 496 LINE",
"352 345 LINE",
"179 345 LINE"
);
},
{
nodes = (
"411 10 LINE",
"499 564 LINE",
"321 686 LINE",
"120 686 LINE",
"13 10 LINE",
"126 10 LINE",
"161 232 LINE",
"334 232 LINE",
"299 10 LINE"
);
},
{
nodes = (
"239 833 LINE",
"164 728 LINE",
"274 728 LINE",
"316 788 LINE",
"357 726 LINE",
"472 726 LINE",
"399 833 LINE"
);
}
);
width = 422;
}
);
unicode = 00C2;
},
{
glyphname = Atilde;
layers = (
{
hints = (
{
horizontal = 1;
place = "{232, 113}";
type = Stem;
},
{
horizontal = 1;
place = "{569, 117}";
type = Stem;
},
{
horizontal = 1;
place = "{730, 101}";
type = Stem;
},
{
horizontal = 1;
place = "{777, 100}";
type = Stem;
},
{
place = "{13, 495}";
type = Stem;
}
);
layerId = "0D67ACED-73D3-49C3-92B3-C98855658409";
paths = (
{
nodes = (
"448 876 LINE",
"431 849 OFFCURVE",
"407 831 OFFCURVE",
"378 831 CURVE SMOOTH",
"338 831 OFFCURVE",
"320 877 OFFCURVE",
"256 877 CURVE SMOOTH",
"205 877 OFFCURVE",
"157 845 OFFCURVE",
"125 798 CURVE",
"184 733 LINE",
"201 757 OFFCURVE",
"226 777 OFFCURVE",
"254 777 CURVE SMOOTH",
"296 777 OFFCURVE",
"313 730 OFFCURVE",
"380 730 CURVE SMOOTH",
"431 730 OFFCURVE",
"477 763 OFFCURVE",
"508 810 CURVE"
);
},
{
nodes = (
"299 10 LINE",
"411 10 LINE",
"499 564 LINE",
"321 686 LINE",
"120 686 LINE",
"13 10 LINE",
"126 10 LINE",
"161 232 LINE",
"334 232 LINE"
);
},
{
nodes = (
"179 345 LINE",
"215 569 LINE",
"275 569 LINE",
"376 496 LINE",
"352 345 LINE"
);
}
);
width = 422;
}
);
unicode = 00C3;
},
{
glyphname = Adieresis;
layers = (
{
hints = (
{
horizontal = 1;
place = "{232, 113}";
type = Stem;
},
{
horizontal = 1;
place = "{569, 117}";
type = Stem;
},
{
horizontal = 1;
place = "{727, 108}";
type = Stem;
},
{
place = "{13, 486}";
type = Stem;
}
);
layerId = "0D67ACED-73D3-49C3-92B3-C98855658409";
paths = (
{
nodes = (
"215 569 LINE",
"275 569 LINE",
"376 496 LINE",
"352 345 LINE",
"179 345 LINE"
);
},
{
nodes = (
"411 10 LINE",
"499 564 LINE",
"321 686 LINE",
"120 686 LINE",
"13 10 LINE",
"126 10 LINE",
"161 232 LINE",
"334 232 LINE",
"299 10 LINE"
);
},
{
nodes = (
"285 727 LINE",
"302 835 LINE",
"189 835 LINE",
"172 727 LINE"
);
},
{
nodes = (
"468 727 LINE",
"485 835 LINE",
"372 835 LINE",
"355 727 LINE"
);
}
);
width = 422;
}
);
unicode = 00C4;
},
{
glyphname = Aring;
layers = (
{
hints = (
{
horizontal = 1;
place = "{232, 113}";
type = Stem;
},
{
horizontal = 1;
place = "{569, 117}";
type = Stem;
},
{
horizontal = 1;
place = "{725, 66}";
type = Stem;
},
{
horizontal = 1;
place = "{861, 67}";
type = Stem;
},
{
place = "{212, 63}";
type = Stem;
},
{
place = "{346, 66}";
type = Stem;
}
);
layerId = "0D67ACED-73D3-49C3-92B3-C98855658409";
paths = (
{
nodes = (
"212 770 OFFCURVE",
"255 725 OFFCURVE",
"312 725 CURVE SMOOTH",
"367 725 OFFCURVE",
"412 770 OFFCURVE",
"412 826 CURVE SMOOTH",
"412 882 OFFCURVE",
"367 928 OFFCURVE",
"312 928 CURVE SMOOTH",
"255 928 OFFCURVE",
"212 882 OFFCURVE",
"212 826 CURVE SMOOTH"
);
},
{
nodes = (
"275 846 OFFCURVE",
"291 861 OFFCURVE",
"310 861 CURVE SMOOTH",
"331 861 OFFCURVE",
"346 846 OFFCURVE",
"346 826 CURVE SMOOTH",
"346 806 OFFCURVE",
"331 791 OFFCURVE",
"310 791 CURVE SMOOTH",
"291 791 OFFCURVE",
"275 806 OFFCURVE",
"275 826 CURVE SMOOTH"
);
},
{
nodes = (
"299 10 LINE",
"411 10 LINE",
"499 564 LINE",
"321 686 LINE",
"120 686 LINE",
"13 10 LINE",
"126 10 LINE",
"161 232 LINE",
"334 232 LINE"
);
},
{
nodes = (
"179 345 LINE",
"215 569 LINE",
"275 569 LINE",
"376 496 LINE",
"352 345 LINE"
);
}
);
width = 422;
}
);
unicode = 00C5;
},
{
glyphname = AE;
layers = (
{
hints = (
{
horizontal = 1;
place = "{10, 123}";
type = Stem;
},
{
horizontal = 1;
place = "{232, 113}";
type = Stem;
},
{
horizontal = 1;
place = "{569, 117}";
type = Stem;
},
{
place = "{13, 782}";
type = Stem;
}
);
layerId = "0D67ACED-73D3-49C3-92B3-C98855658409";
paths = (
{
nodes = (
"215 569 LINE",
"275 569 LINE",
"376 496 LINE",
"352 345 LINE",
"179 345 LINE"
);
},
{
nodes = (
"777 569 LINE",
"795 686 LINE",
"408 686 LINE",
"399 632 LINE",
"321 686 LINE",
"120 686 LINE",
"13 10 LINE",
"126 10 LINE",
"161 232 LINE",
"334 232 LINE",
"299 10 LINE",
"688 10 LINE",
"708 133 LINE",
"434 133 LINE",
"457 280 LINE",
"642 358 LINE",
"662 484 LINE",
"477 406 LINE",
"503 569 LINE"
);
}
);
width = 709;
}
);
unicode = 00C6;
},
{
glyphname = Ccedilla;
layers = (
{
hints = (
{
horizontal = 1;
place = "{-301, 103}";
type = Stem;
},
{
horizontal = 1;
place = "{10, 123}";
type = Stem;
},
{
horizontal = 1;
place = "{569, 117}";
type = Stem;
},
{
place = "{13, 506}";
type = Stem;
}
);
layerId = "0D67ACED-73D3-49C3-92B3-C98855658409";
paths = (
{
nodes = (
"222 10 LINE",
"412 10 LINE",
"432 133 LINE",
"146 133 LINE",
"215 569 LINE",
"501 569 LINE",
"519 686 LINE",
"120 686 LINE",
"13 10 LINE",
"115 10 LINE",
"91 -119 LINE",
"248 -198 LINE",
"77 -198 LINE",
"59 -301 LINE",
"338 -301 LINE",
"365 -140 LINE",
"207 -63 LINE"
);
}
);
width = 423;
}
);
unicode = 00C7;
},
{
glyphname = Egrave;
layers = (
{
hints = (
{
horizontal = 1;
place = "{10, 123}";
type = Stem;
},
{
horizontal = 1;
place = "{569, 117}";
type = Stem;
},
{
horizontal = 1;
place = "{726, 107}";
type = Stem;
},
{
place = "{13, 494}";
type = Stem;
}
);
layerId = "0D67ACED-73D3-49C3-92B3-C98855658409";
paths = (
{
nodes = (
"215 569 LINE",
"489 569 LINE",
"507 686 LINE",
"120 686 LINE",
"13 10 LINE",
"400 10 LINE",
"420 133 LINE",
"146 133 LINE",
"169 280 LINE",
"354 358 LINE",
"374 484 LINE",
"189 406 LINE"
);
},
{
nodes = (
"282 726 LINE",
"397 726 LINE",
"324 833 LINE",
"209 833 LINE"
);
}
);
width = 411;
}
);
unicode = 00C8;
},
{
glyphname = Eacute;
layers = (
{
hints = (
{
horizontal = 1;
place = "{10, 123}";
type = Stem;
},
{
horizontal = 1;
place = "{569, 117}";
type = Stem;
},
{
horizontal = 1;
place = "{726, 107}";
type = Stem;
},
{
place = "{13, 494}";
type = Stem;
}
);
layerId = "0D67ACED-73D3-49C3-92B3-C98855658409";
paths = (
{
nodes = (
"215 569 LINE",
"489 569 LINE",
"507 686 LINE",
"120 686 LINE",
"13 10 LINE",
"400 10 LINE",
"420 133 LINE",
"146 133 LINE",
"169 280 LINE",
"354 358 LINE",
"374 484 LINE",
"189 406 LINE"
);
},
{
nodes = (
"438 833 LINE",
"323 833 LINE",
"250 726 LINE",
"365 726 LINE"
);
}
);
width = 411;
}
);
unicode = 00C9;
},
{
glyphname = Ecircumflex;
layers = (
{
hints = (
{
horizontal = 1;
place = "{10, 123}";
type = Stem;
},
{
horizontal = 1;
place = "{569, 117}";
type = Stem;
},
{
horizontal = 1;
place = "{726, 107}";
type = Stem;
},
{
place = "{13, 494}";
type = Stem;
}
);
layerId = "0D67ACED-73D3-49C3-92B3-C98855658409";
paths = (
{
nodes = (
"215 569 LINE",
"489 569 LINE",
"507 686 LINE",
"120 686 LINE",
"13 10 LINE",
"400 10 LINE",
"420 133 LINE",
"146 133 LINE",
"169 280 LINE",
"354 358 LINE",
"374 484 LINE",
"189 406 LINE"
);
},
{
nodes = (
"392 833 LINE",
"232 833 LINE",
"157 728 LINE",
"267 728 LINE",
"309 788 LINE",
"350 726 LINE",
"465 726 LINE"
);
}
);
width = 411;
}
);
unicode = 00CA;
},
{
glyphname = Edieresis;
layers = (
{
hints = (
{
horizontal = 1;
place = "{10, 123}";
type = Stem;
},
{
horizontal = 1;
place = "{569, 117}";
type = Stem;
},
{
horizontal = 1;
place = "{727, 108}";
type = Stem;
},
{
place = "{13, 494}";
type = Stem;
}
);
layerId = "0D67ACED-73D3-49C3-92B3-C98855658409";
paths = (
{
nodes = (
"215 569 LINE",
"489 569 LINE",
"507 686 LINE",
"120 686 LINE",
"13 10 LINE",
"400 10 LINE",
"420 133 LINE",
"146 133 LINE",
"169 280 LINE",
"354 358 LINE",
"374 484 LINE",
"189 406 LINE"
);
},
{
nodes = (
"156 727 LINE",
"269 727 LINE",
"286 835 LINE",
"173 835 LINE"
);
},
{
nodes = (
"339 727 LINE",
"452 727 LINE",
"469 835 LINE",
"356 835 LINE"
);
}
);
width = 411;
}
);
unicode = 00CB;
},
{
glyphname = Igrave;
layers = (
{
hints = (
{
horizontal = 1;
place = "{686, -20}";
target = down;
type = TopGhost;
},
{
horizontal = 1;
place = "{726, 107}";
type = Stem;
},
{
place = "{13, 257}";
type = Stem;
}
);
layerId = "0D67ACED-73D3-49C3-92B3-C98855658409";
paths = (
{
nodes = (
"13 10 LINE",
"126 10 LINE",
"233 686 LINE",
"120 686 LINE"
);
},
{
nodes = (
"155 726 LINE",
"270 726 LINE",
"197 833 LINE",
"82 833 LINE"
);
}
);
width = 137;
}
);
unicode = 00CC;
},
{
glyphname = Iacute;
layers = (
{
hints = (
{
horizontal = 1;
place = "{686, -20}";
target = down;
type = TopGhost;
},
{
horizontal = 1;
place = "{726, 107}";
type = Stem;
},
{
place = "{13, 291}";
type = Stem;
}
);
layerId = "0D67ACED-73D3-49C3-92B3-C98855658409";
paths = (
{
nodes = (
"13 10 LINE",
"126 10 LINE",
"233 686 LINE",
"120 686 LINE"
);
},
{
nodes = (
"304 833 LINE",
"189 833 LINE",
"116 726 LINE",
"231 726 LINE"
);
}
);
width = 137;
}
);
unicode = 00CD;
},
{
glyphname = Icircumflex;
layers = (
{
hints = (
{
horizontal = 1;
place = "{686, -20}";
target = down;
type = TopGhost;
},
{
horizontal = 1;
place = "{726, 107}";
type = Stem;
},
{
place = "{13, 326}";
type = Stem;
}
);
layerId = "0D67ACED-73D3-49C3-92B3-C98855658409";
paths = (
{
nodes = (
"13 10 LINE",
"126 10 LINE",
"233 686 LINE",
"120 686 LINE"
);
},
{
nodes = (
"266 833 LINE",
"106 833 LINE",
"31 728 LINE",
"141 728 LINE",
"183 788 LINE",
"224 726 LINE",
"339 726 LINE"
);
}
);
width = 137;
}
);
unicode = 00CE;
},
{
glyphname = Idieresis;
layers = (
{
hints = (
{
horizontal = 1;
place = "{686, -20}";
target = down;
type = TopGhost;
},
{
horizontal = 1;
place = "{727, 108}";
type = Stem;
},
{
place = "{13, 348}";
type = Stem;
}
);
layerId = "0D67ACED-73D3-49C3-92B3-C98855658409";
paths = (
{
nodes = (
"13 10 LINE",
"126 10 LINE",
"233 686 LINE",
"120 686 LINE"
);
},
{
nodes = (
"48 727 LINE",
"161 727 LINE",
"178 835 LINE",
"65 835 LINE"
);
},
{
nodes = (
"231 727 LINE",
"344 727 LINE",
"361 835 LINE",
"248 835 LINE"
);
}
);
width = 137;
}
);
unicode = 00CF;
},
{
glyphname = Eth;
layers = (
{
hints = (
{
horizontal = 1;
place = "{10, 123}";
type = Stem;
},
{
horizontal = 1;
place = "{310, 114}";
type = Stem;
},
{
horizontal = 1;
place = "{569, 117}";
type = Stem;
},
{
place = "{69, 493}";
type = Stem;
}
);
layerId = "0D67ACED-73D3-49C3-92B3-C98855658409";
paths = (
{
nodes = (
"255 424 LINE",
"278 569 LINE",
"338 569 LINE",
"439 495 LINE",
"382 133 LINE",
"209 133 LINE",
"237 310 LINE",
"349 310 LINE",
"367 424 LINE"
);
},
{
nodes = (
"87 424 LINE",
"69 310 LINE",
"123 310 LINE",
"76 10 LINE",
"474 10 LINE",
"562 563 LINE",
"384 686 LINE",
"183 686 LINE",
"142 424 LINE"
);
}
);
width = 493;
}
);
unicode = 00D0;
},
{
glyphname = Ntilde;
layers = (
{
hints = (
{
horizontal = 1;
place = "{569, 117}";
type = Stem;
},
{
horizontal = 1;
place = "{730, 101}";
type = Stem;
},
{
horizontal = 1;
place = "{777, 100}";
type = Stem;
},
{
place = "{13, 486}";
type = Stem;
}
);
layerId = "0D67ACED-73D3-49C3-92B3-C98855658409";
paths = (
{
nodes = (
"430 876 LINE",
"413 849 OFFCURVE",
"389 831 OFFCURVE",
"360 831 CURVE SMOOTH",
"320 831 OFFCURVE",
"302 877 OFFCURVE",
"238 877 CURVE SMOOTH",
"187 877 OFFCURVE",
"139 845 OFFCURVE",
"107 798 CURVE",
"166 733 LINE",
"183 757 OFFCURVE",
"208 777 OFFCURVE",
"236 777 CURVE SMOOTH",
"278 777 OFFCURVE",
"295 730 OFFCURVE",
"362 730 CURVE SMOOTH",
"413 730 OFFCURVE",
"459 763 OFFCURVE",
"490 810 CURVE"
);
},
{
nodes = (
"275 569 LINE",
"376 495 LINE",
"299 10 LINE",
"411 10 LINE",
"499 563 LINE",
"321 686 LINE",
"120 686 LINE",
"13 10 LINE",
"126 10 LINE",
"215 569 LINE"
);
}
);
width = 422;
}
);
unicode = 00D1;
},
{
glyphname = Ograve;
layers = (
{
hints = (
{
horizontal = 1;
place = "{10, 123}";
type = Stem;
},
{
horizontal = 1;
place = "{569, 117}";
type = Stem;
},
{
horizontal = 1;
place = "{726, 107}";
type = Stem;
},
{
place = "{13, 506}";
type = Stem;
}
);
layerId = "0D67ACED-73D3-49C3-92B3-C98855658409";
paths = (
{
nodes = (
"120 686 LINE",
"13 10 LINE",
"412 10 LINE",
"519 686 LINE"
);
},
{
nodes = (
"319 133 LINE",
"145 133 LINE",
"214 569 LINE",
"388 569 LINE"
);
},
{
nodes = (
"282 726 LINE",
"397 726 LINE",
"324 833 LINE",
"209 833 LINE"
);
}
);
width = 423;
}
);
unicode = 00D2;
},
{
glyphname = Oacute;
layers = (
{
hints = (
{
horizontal = 1;
place = "{10, 123}";
type = Stem;
},
{
horizontal = 1;
place = "{569, 117}";
type = Stem;
},
{
horizontal = 1;
place = "{726, 107}";
type = Stem;
},
{
place = "{13, 506}";
type = Stem;
}
);
layerId = "0D67ACED-73D3-49C3-92B3-C98855658409";
paths = (
{
nodes = (
"120 686 LINE",
"13 10 LINE",
"412 10 LINE",
"519 686 LINE"
);
},
{
nodes = (
"319 133 LINE",
"145 133 LINE",
"214 569 LINE",
"388 569 LINE"
);
},
{
nodes = (
"432 833 LINE",
"317 833 LINE",
"244 726 LINE",
"359 726 LINE"
);
}
);
width = 423;
}
);
unicode = 00D3;
},
{
glyphname = Ocircumflex;
layers = (
{
hints = (
{
horizontal = 1;
place = "{10, 123}";
type = Stem;
},
{
horizontal = 1;
place = "{569, 117}";
type = Stem;
},
{
horizontal = 1;
place = "{726, 107}";
type = Stem;
},
{
place = "{13, 506}";
type = Stem;
}
);
layerId = "0D67ACED-73D3-49C3-92B3-C98855658409";
paths = (
{
nodes = (
"145 133 LINE",
"214 569 LINE",
"388 569 LINE",
"319 133 LINE"
);
},
{
nodes = (
"13 10 LINE",
"412 10 LINE",
"519 686 LINE",
"120 686 LINE"
);
},
{
nodes = (
"252 833 LINE",
"177 728 LINE",
"287 728 LINE",
"329 788 LINE",
"370 726 LINE",
"485 726 LINE",
"412 833 LINE"
);
}
);
width = 423;
}
);
unicode = 00D4;
},
{
glyphname = Otilde;
layers = (
{
hints = (
{
horizontal = 1;
place = "{10, 123}";
type = Stem;
},
{
horizontal = 1;
place = "{569, 117}";
type = Stem;
},
{
horizontal = 1;
place = "{730, 101}";
type = Stem;
},
{
horizontal = 1;
place = "{777, 100}";
type = Stem;
},
{
place = "{13, 506}";
type = Stem;
}
);
layerId = "0D67ACED-73D3-49C3-92B3-C98855658409";
paths = (
{
nodes = (
"438 876 LINE",
"421 849 OFFCURVE",
"397 831 OFFCURVE",
"368 831 CURVE SMOOTH",
"328 831 OFFCURVE",
"310 877 OFFCURVE",
"246 877 CURVE SMOOTH",
"195 877 OFFCURVE",
"147 845 OFFCURVE",
"115 798 CURVE",
"174 733 LINE",
"191 757 OFFCURVE",
"216 777 OFFCURVE",
"244 777 CURVE SMOOTH",
"286 777 OFFCURVE",
"303 730 OFFCURVE",
"370 730 CURVE SMOOTH",
"421 730 OFFCURVE",
"467 763 OFFCURVE",
"498 810 CURVE"
);
},
{
nodes = (
"120 686 LINE",
"13 10 LINE",
"412 10 LINE",
"519 686 LINE"
);
},
{
nodes = (
"319 133 LINE",
"145 133 LINE",
"214 569 LINE",
"388 569 LINE"
);
}
);
width = 423;
}
);
unicode = 00D5;
},
{
glyphname = Odieresis;
layers = (
{
hints = (
{
horizontal = 1;
place = "{10, 123}";
type = Stem;
},
{
horizontal = 1;
place = "{569, 117}";
type = Stem;
},
{
horizontal = 1;
place = "{727, 108}";
type = Stem;
},
{
place = "{13, 506}";
type = Stem;
}
);
layerId = "0D67ACED-73D3-49C3-92B3-C98855658409";
paths = (
{
nodes = (
"120 686 LINE",
"13 10 LINE",
"412 10 LINE",
"519 686 LINE"
);
},
{
nodes = (
"319 133 LINE",
"145 133 LINE",
"214 569 LINE",
"388 569 LINE"
);
},
{
nodes = (
"164 727 LINE",
"277 727 LINE",
"294 835 LINE",
"181 835 LINE"
);
},
{
nodes = (
"347 727 LINE",
"460 727 LINE",
"477 835 LINE",
"364 835 LINE"
);
}
);
width = 423;
}
);
unicode = 00D6;
},
{
glyphname = multiply;
layers = (
{
hints = (
{
horizontal = 1;
place = "{181, 342}";
type = Stem;
},
{
place = "{87, 363}";
type = Stem;
}
);
layerId = "0D67ACED-73D3-49C3-92B3-C98855658409";
paths = (
{
nodes = (
"177 349 LINE",
"87 270 LINE",
"163 181 LINE",
"269 271 LINE",
"374 181 LINE",
"450 270 LINE",
"360 349 LINE",
"450 426 LINE",
"374 523 LINE",
"269 430 LINE",
"163 523 LINE",
"87 426 LINE"
);
}
);
width = 451;
}
);
unicode = 00D7;
},
{
glyphname = Oslash;
layers = (
{
hints = (
{
horizontal = 1;
place = "{10, 123}";
type = Stem;
},
{
horizontal = 1;
place = "{569, 117}";
type = Stem;
},
{
place = "{13, 506}";
type = Stem;
}
);
layerId = "0D67ACED-73D3-49C3-92B3-C98855658409";
paths = (
{
nodes = (
"152 133 LINE",
"145 133 LINE",
"214 569 LINE",
"309 569 LINE"
);
},
{
nodes = (
"379 569 LINE",
"388 569 LINE",
"319 133 LINE",
"222 133 LINE"
);
},
{
nodes = (
"145 -81 LINE",
"178 10 LINE",
"412 10 LINE",
"519 686 LINE",
"421 686 LINE",
"455 779 LINE",
"385 779 LINE",
"351 686 LINE",
"120 686 LINE",
"13 10 LINE",
"108 10 LINE",
"75 -81 LINE"
);
}
);
width = 423;
}
);
unicode = 00D8;
},
{
glyphname = Ugrave;
layers = (
{
hints = (
{
horizontal = 1;
place = "{10, 123}";
type = Stem;
},
{
horizontal = 1;
place = "{686, -20}";
target = down;
type = TopGhost;
},
{
horizontal = 1;
place = "{726, 107}";
type = Stem;
},
{
place = "{13, 506}";
type = Stem;
}
);
layerId = "0D67ACED-73D3-49C3-92B3-C98855658409";
paths = (
{
nodes = (
"319 133 LINE",
"145 133 LINE",
"232 686 LINE",
"120 686 LINE",
"13 10 LINE",
"412 10 LINE",
"519 686 LINE",
"406 686 LINE"
);
},
{
nodes = (
"294 726 LINE",
"409 726 LINE",
"336 833 LINE",
"221 833 LINE"
);
}
);
width = 423;
}
);
unicode = 00D9;
},
{
glyphname = Uacute;
layers = (
{
hints = (
{
horizontal = 1;
place = "{10, 123}";
type = Stem;
},
{
horizontal = 1;
place = "{686, -20}";
target = down;
type = TopGhost;
},
{
horizontal = 1;
place = "{726, 107}";
type = Stem;
},
{
place = "{13, 506}";
type = Stem;
}
);
layerId = "0D67ACED-73D3-49C3-92B3-C98855658409";
paths = (
{
nodes = (
"319 133 LINE",
"145 133 LINE",
"232 686 LINE",
"120 686 LINE",
"13 10 LINE",
"412 10 LINE",
"519 686 LINE",
"406 686 LINE"
);
},
{
nodes = (
"458 833 LINE",
"343 833 LINE",
"270 726 LINE",
"385 726 LINE"
);
}
);
width = 423;
}
);
unicode = 00DA;
},
{
glyphname = Ucircumflex;
layers = (
{
hints = (
{
horizontal = 1;
place = "{10, 123}";
type = Stem;
},
{
horizontal = 1;
place = "{686, -20}";
target = down;
type = TopGhost;
},
{
horizontal = 1;
place = "{726, 107}";
type = Stem;
},
{
place = "{13, 506}";
type = Stem;
}
);
layerId = "0D67ACED-73D3-49C3-92B3-C98855658409";
paths = (
{
nodes = (
"319 133 LINE",
"145 133 LINE",
"232 686 LINE",
"120 686 LINE",
"13 10 LINE",
"412 10 LINE",
"519 686 LINE",
"406 686 LINE"
);
},
{
nodes = (
"398 833 LINE",
"238 833 LINE",
"163 728 LINE",
"273 728 LINE",
"315 788 LINE",
"356 726 LINE",
"471 726 LINE"
);
}
);
width = 423;
}
);
unicode = 00DB;
},
{
glyphname = Udieresis;
layers = (
{
hints = (
{
horizontal = 1;
place = "{10, 123}";
type = Stem;
},
{
horizontal = 1;
place = "{686, -20}";
target = down;
type = TopGhost;
},
{
horizontal = 1;
place = "{727, 108}";
type = Stem;
},
{
place = "{13, 506}";
type = Stem;
}
);
layerId = "0D67ACED-73D3-49C3-92B3-C98855658409";
paths = (
{
nodes = (
"319 133 LINE",
"145 133 LINE",
"232 686 LINE",
"120 686 LINE",
"13 10 LINE",
"412 10 LINE",
"519 686 LINE",
"406 686 LINE"
);
},
{
nodes = (
"169 727 LINE",
"282 727 LINE",
"299 835 LINE",
"186 835 LINE"
);
},
{
nodes = (
"352 727 LINE",
"465 727 LINE",
"482 835 LINE",
"369 835 LINE"
);
}
);
width = 423;
}
);
unicode = 00DC;
},
{
glyphname = Yacute;
layers = (
{
hints = (
{
horizontal = 1;
place = "{686, -20}";
target = down;
type = TopGhost;
},
{
horizontal = 1;
place = "{726, 107}";
type = Stem;
},
{
place = "{76, 427}";
type = Stem;
}
);
layerId = "0D67ACED-73D3-49C3-92B3-C98855658409";
paths = (
{
nodes = (
"199 474 LINE",
"232 686 LINE",
"120 686 LINE",
"76 410 LINE",
"194 313 LINE",
"146 10 LINE",
"260 10 LINE",
"308 314 LINE",
"459 410 LINE",
"503 686 LINE",
"391 686 LINE",
"358 474 LINE",
"269 420 LINE"
);
},
{
nodes = (
"448 833 LINE",
"333 833 LINE",
"260 726 LINE",
"375 726 LINE"
);
}
);
width = 407;
}
);
unicode = 00DD;
},
{
glyphname = Thorn;
layers = (
{
hints = (
{
horizontal = 1;
place = "{117, 123}";
type = Stem;
},
{
horizontal = 1;
place = "{481, 117}";
type = Stem;
},
{
place = "{-4, 507}";
type = Stem;
}
);
layerId = "0D67ACED-73D3-49C3-92B3-C98855658409";
paths = (
{
nodes = (
"159 240 LINE",
"198 481 LINE",
"372 481 LINE",
"333 240 LINE"
);
},
{
nodes = (
"245 793 LINE",
"136 793 LINE",
"-4 -79 LINE",
"105 -79 LINE",
"138 117 LINE",
"426 117 LINE",
"503 598 LINE",
"213 598 LINE"
);
}
);
width = 431;
}
);
unicode = 00DE;
},
{
glyphname = germandbls;
layers = (
{
hints = (
{
horizontal = 1;
place = "{10, 123}";
type = Stem;
},
{
horizontal = 1;
place = "{328, 97}";
type = Stem;
},
{
horizontal = 1;
place = "{569, 116}";
type = Stem;
},
{
place = "{14, 555}";
type = Stem;
}
);
layerId = "0D67ACED-73D3-49C3-92B3-C98855658409";
paths = (
{
nodes = (
"14 10 LINE",
"126 10 LINE",
"198 495 LINE",
"323 569 LINE",
"439 569 LINE",
"431 523 LINE",
"229 396 LINE",
"207 255 LINE",
"321 328 LINE",
"400 328 LINE",
"379 192 LINE",
"283 133 LINE",
"197 133 LINE",
"178 10 LINE",
"307 10 LINE",
"478 113 LINE",
"528 425 LINE",
"458 425 LINE",
"537 481 LINE",
"569 685 LINE",
"313 685 LINE",
"97 563 LINE"
);
}
);
width = 486;
}
);
unicode = 00DF;
},
{
glyphname = agrave;
layers = (
{
hints = (
{
horizontal = 1;
place = "{232, 113}";
type = Stem;
},
{
horizontal = 1;
place = "{569, 117}";
type = Stem;
},
{
horizontal = 1;
place = "{726, 107}";
type = Stem;
},
{
place = "{13, 486}";
type = Stem;
}
);
layerId = "0D67ACED-73D3-49C3-92B3-C98855658409";
paths = (
{
nodes = (
"215 569 LINE",
"275 569 LINE",
"376 496 LINE",
"352 345 LINE",
"179 345 LINE"
);
},
{
nodes = (
"411 10 LINE",
"499 564 LINE",
"321 686 LINE",
"120 686 LINE",
"13 10 LINE",
"126 10 LINE",
"161 232 LINE",
"334 232 LINE",
"299 10 LINE"
);
},
{
nodes = (
"381 726 LINE",
"308 833 LINE",
"193 833 LINE",
"266 726 LINE"
);
}
);
width = 422;
}
);
unicode = 00E0;
},
{
glyphname = aacute;
layers = (
{
hints = (
{
horizontal = 1;
place = "{232, 113}";
type = Stem;
},
{
horizontal = 1;
place = "{569, 117}";
type = Stem;
},
{
horizontal = 1;
place = "{726, 107}";
type = Stem;
},
{
place = "{13, 486}";
type = Stem;
}
);
layerId = "0D67ACED-73D3-49C3-92B3-C98855658409";
paths = (
{
nodes = (
"215 569 LINE",
"275 569 LINE",
"376 496 LINE",
"352 345 LINE",
"179 345 LINE"
);
},
{
nodes = (
"411 10 LINE",
"499 564 LINE",
"321 686 LINE",
"120 686 LINE",
"13 10 LINE",
"126 10 LINE",
"161 232 LINE",
"334 232 LINE",
"299 10 LINE"
);
},
{
nodes = (
"315 833 LINE",
"242 726 LINE",
"357 726 LINE",
"430 833 LINE"
);
}
);
width = 422;
}
);
unicode = 00E1;
},
{
glyphname = acircumflex;
layers = (
{
hints = (
{
horizontal = 1;
place = "{232, 113}";
type = Stem;
},
{
horizontal = 1;
place = "{569, 117}";
type = Stem;
},
{
horizontal = 1;
place = "{726, 107}";
type = Stem;
},
{
place = "{13, 486}";
type = Stem;
}
);
layerId = "0D67ACED-73D3-49C3-92B3-C98855658409";
paths = (
{
nodes = (
"215 569 LINE",
"275 569 LINE",
"376 496 LINE",
"352 345 LINE",
"179 345 LINE"
);
},
{
nodes = (
"411 10 LINE",
"499 564 LINE",
"321 686 LINE",
"120 686 LINE",
"13 10 LINE",
"126 10 LINE",
"161 232 LINE",
"334 232 LINE",
"299 10 LINE"
);
},
{
nodes = (
"239 833 LINE",
"164 728 LINE",
"274 728 LINE",
"316 788 LINE",
"357 726 LINE",
"472 726 LINE",
"399 833 LINE"
);
}
);
width = 422;
}
);
unicode = 00E2;
},
{
glyphname = atilde;
layers = (
{
hints = (
{
horizontal = 1;
place = "{232, 113}";
type = Stem;
},
{
horizontal = 1;
place = "{569, 117}";
type = Stem;
},
{
horizontal = 1;
place = "{730, 101}";
type = Stem;
},
{
horizontal = 1;
place = "{777, 100}";
type = Stem;
},
{
place = "{13, 495}";
type = Stem;
}
);
layerId = "0D67ACED-73D3-49C3-92B3-C98855658409";
paths = (
{
nodes = (
"448 876 LINE",
"431 849 OFFCURVE",
"407 831 OFFCURVE",
"378 831 CURVE SMOOTH",
"338 831 OFFCURVE",
"320 877 OFFCURVE",
"256 877 CURVE SMOOTH",
"205 877 OFFCURVE",
"157 845 OFFCURVE",
"125 798 CURVE",
"184 733 LINE",
"201 757 OFFCURVE",
"226 777 OFFCURVE",
"254 777 CURVE SMOOTH",
"296 777 OFFCURVE",
"313 730 OFFCURVE",
"380 730 CURVE SMOOTH",
"431 730 OFFCURVE",
"477 763 OFFCURVE",
"508 810 CURVE"
);
},
{
nodes = (
"299 10 LINE",
"411 10 LINE",
"499 564 LINE",
"321 686 LINE",
"120 686 LINE",
"13 10 LINE",
"126 10 LINE",
"161 232 LINE",
"334 232 LINE"
);
},
{
nodes = (
"179 345 LINE",
"215 569 LINE",
"275 569 LINE",
"376 496 LINE",
"352 345 LINE"
);
}
);
width = 422;
}
);
unicode = 00E3;
},
{
glyphname = adieresis;
layers = (
{
hints = (
{
horizontal = 1;
place = "{232, 113}";
type = Stem;
},
{
horizontal = 1;
place = "{569, 117}";
type = Stem;
},
{
horizontal = 1;
place = "{727, 108}";
type = Stem;
},
{
place = "{13, 486}";
type = Stem;
}
);
layerId = "0D67ACED-73D3-49C3-92B3-C98855658409";
paths = (
{
nodes = (
"215 569 LINE",
"275 569 LINE",
"376 496 LINE",
"352 345 LINE",
"179 345 LINE"
);
},
{
nodes = (
"411 10 LINE",
"499 564 LINE",
"321 686 LINE",
"120 686 LINE",
"13 10 LINE",
"126 10 LINE",
"161 232 LINE",
"334 232 LINE",
"299 10 LINE"
);
},
{
nodes = (
"285 727 LINE",
"302 835 LINE",
"189 835 LINE",
"172 727 LINE"
);
},
{
nodes = (
"468 727 LINE",
"485 835 LINE",
"372 835 LINE",
"355 727 LINE"
);
}
);
width = 422;
}
);
unicode = 00E4;
},
{
glyphname = aring;
layers = (
{
hints = (
{
horizontal = 1;
place = "{232, 113}";
type = Stem;
},
{
horizontal = 1;
place = "{569, 117}";
type = Stem;
},
{
horizontal = 1;
place = "{725, 66}";
type = Stem;
},
{
horizontal = 1;
place = "{861, 67}";
type = Stem;
},
{
place = "{212, 63}";
type = Stem;
},
{
place = "{346, 66}";
type = Stem;
}
);
layerId = "0D67ACED-73D3-49C3-92B3-C98855658409";
paths = (
{
nodes = (
"212 770 OFFCURVE",
"255 725 OFFCURVE",
"312 725 CURVE SMOOTH",
"367 725 OFFCURVE",
"412 770 OFFCURVE",
"412 826 CURVE SMOOTH",
"412 882 OFFCURVE",
"367 928 OFFCURVE",
"312 928 CURVE SMOOTH",
"255 928 OFFCURVE",
"212 882 OFFCURVE",
"212 826 CURVE SMOOTH"
);
},
{
nodes = (
"275 846 OFFCURVE",
"291 861 OFFCURVE",
"310 861 CURVE SMOOTH",
"331 861 OFFCURVE",
"346 846 OFFCURVE",
"346 826 CURVE SMOOTH",
"346 806 OFFCURVE",
"331 791 OFFCURVE",
"310 791 CURVE SMOOTH",
"291 791 OFFCURVE",
"275 806 OFFCURVE",
"275 826 CURVE SMOOTH"
);
},
{
nodes = (
"299 10 LINE",
"411 10 LINE",
"499 564 LINE",
"321 686 LINE",
"120 686 LINE",
"13 10 LINE",
"126 10 LINE",
"161 232 LINE",
"334 232 LINE"
);
},
{
nodes = (
"179 345 LINE",
"215 569 LINE",
"275 569 LINE",
"376 496 LINE",
"352 345 LINE"
);
}
);
width = 422;
}
);
unicode = 00E5;
},
{
glyphname = ae;
layers = (
{
hints = (
{
horizontal = 1;
place = "{10, 123}";
type = Stem;
},
{
horizontal = 1;
place = "{232, 113}";
type = Stem;
},
{
horizontal = 1;
place = "{569, 117}";
type = Stem;
},
{
place = "{13, 782}";
type = Stem;
}
);
layerId = "0D67ACED-73D3-49C3-92B3-C98855658409";
paths = (
{
nodes = (
"215 569 LINE",
"275 569 LINE",
"376 496 LINE",
"352 345 LINE",
"179 345 LINE"
);
},
{
nodes = (
"777 569 LINE",
"795 686 LINE",
"408 686 LINE",
"399 632 LINE",
"321 686 LINE",
"120 686 LINE",
"13 10 LINE",
"126 10 LINE",
"161 232 LINE",
"334 232 LINE",
"299 10 LINE",
"688 10 LINE",
"708 133 LINE",
"434 133 LINE",
"457 280 LINE",
"642 358 LINE",
"662 484 LINE",
"477 406 LINE",
"503 569 LINE"
);
}
);
width = 709;
}
);
unicode = 00E6;
},
{
glyphname = ccedilla;
layers = (
{
hints = (
{
horizontal = 1;
place = "{-301, 103}";
type = Stem;
},
{
horizontal = 1;
place = "{10, 123}";
type = Stem;
},
{
horizontal = 1;
place = "{569, 117}";
type = Stem;
},
{
place = "{13, 506}";
type = Stem;
}
);
layerId = "0D67ACED-73D3-49C3-92B3-C98855658409";
paths = (
{
nodes = (
"222 10 LINE",
"412 10 LINE",
"432 133 LINE",
"146 133 LINE",
"215 569 LINE",
"501 569 LINE",
"519 686 LINE",
"120 686 LINE",
"13 10 LINE",
"115 10 LINE",
"91 -119 LINE",
"248 -198 LINE",
"77 -198 LINE",
"59 -301 LINE",
"338 -301 LINE",
"365 -140 LINE",
"207 -63 LINE"
);
}
);
width = 423;
}
);
unicode = 00E7;
},
{
glyphname = egrave;
layers = (
{
hints = (
{
horizontal = 1;
place = "{10, 123}";
type = Stem;
},
{
horizontal = 1;
place = "{569, 117}";
type = Stem;
},
{
horizontal = 1;
place = "{726, 107}";
type = Stem;
},
{
place = "{13, 494}";
type = Stem;
}
);
layerId = "0D67ACED-73D3-49C3-92B3-C98855658409";
paths = (
{
nodes = (
"215 569 LINE",
"489 569 LINE",
"507 686 LINE",
"120 686 LINE",
"13 10 LINE",
"400 10 LINE",
"420 133 LINE",
"146 133 LINE",
"169 280 LINE",
"354 358 LINE",
"374 484 LINE",
"189 406 LINE"
);
},
{
nodes = (
"282 726 LINE",
"397 726 LINE",
"324 833 LINE",
"209 833 LINE"
);
}
);
width = 411;
}
);
unicode = 00E8;
},
{
glyphname = eacute;
layers = (
{
hints = (
{
horizontal = 1;
place = "{10, 123}";
type = Stem;
},
{
horizontal = 1;
place = "{569, 117}";
type = Stem;
},
{
horizontal = 1;
place = "{726, 107}";
type = Stem;
},
{
place = "{13, 494}";
type = Stem;
}
);
layerId = "0D67ACED-73D3-49C3-92B3-C98855658409";
paths = (
{
nodes = (
"215 569 LINE",
"489 569 LINE",
"507 686 LINE",
"120 686 LINE",
"13 10 LINE",
"400 10 LINE",
"420 133 LINE",
"146 133 LINE",
"169 280 LINE",
"354 358 LINE",
"374 484 LINE",
"189 406 LINE"
);
},
{
nodes = (
"438 833 LINE",
"323 833 LINE",
"250 726 LINE",
"365 726 LINE"
);
}
);
width = 411;
}
);
unicode = 00E9;
},
{
glyphname = ecircumflex;
layers = (
{
hints = (
{
horizontal = 1;
place = "{10, 123}";
type = Stem;
},
{
horizontal = 1;
place = "{569, 117}";
type = Stem;
},
{
horizontal = 1;
place = "{726, 107}";
type = Stem;
},
{
place = "{13, 494}";
type = Stem;
}
);
layerId = "0D67ACED-73D3-49C3-92B3-C98855658409";
paths = (
{
nodes = (
"215 569 LINE",
"489 569 LINE",
"507 686 LINE",
"120 686 LINE",
"13 10 LINE",
"400 10 LINE",
"420 133 LINE",
"146 133 LINE",
"169 280 LINE",
"354 358 LINE",
"374 484 LINE",
"189 406 LINE"
);
},
{
nodes = (
"392 833 LINE",
"232 833 LINE",
"157 728 LINE",
"267 728 LINE",
"309 788 LINE",
"350 726 LINE",
"465 726 LINE"
);
}
);
width = 411;
}
);
unicode = 00EA;
},
{
glyphname = edieresis;
layers = (
{
hints = (
{
horizontal = 1;
place = "{10, 123}";
type = Stem;
},
{
horizontal = 1;
place = "{569, 117}";
type = Stem;
},
{
horizontal = 1;
place = "{727, 108}";
type = Stem;
},
{
place = "{13, 494}";
type = Stem;
}
);
layerId = "0D67ACED-73D3-49C3-92B3-C98855658409";
paths = (
{
nodes = (
"215 569 LINE",
"489 569 LINE",
"507 686 LINE",
"120 686 LINE",
"13 10 LINE",
"400 10 LINE",
"420 133 LINE",
"146 133 LINE",
"169 280 LINE",
"354 358 LINE",
"374 484 LINE",
"189 406 LINE"
);
},
{
nodes = (
"156 727 LINE",
"269 727 LINE",
"286 835 LINE",
"173 835 LINE"
);
},
{
nodes = (
"339 727 LINE",
"452 727 LINE",
"469 835 LINE",
"356 835 LINE"
);
}
);
width = 411;
}
);
unicode = 00EB;
},
{
glyphname = igrave;
layers = (
{
hints = (
{
horizontal = 1;
place = "{686, -20}";
target = down;
type = TopGhost;
},
{
horizontal = 1;
place = "{726, 107}";
type = Stem;
},
{
place = "{13, 257}";
type = Stem;
}
);
layerId = "0D67ACED-73D3-49C3-92B3-C98855658409";
paths = (
{
nodes = (
"13 10 LINE",
"126 10 LINE",
"233 686 LINE",
"120 686 LINE"
);
},
{
nodes = (
"155 726 LINE",
"270 726 LINE",
"197 833 LINE",
"82 833 LINE"
);
}
);
width = 137;
}
);
unicode = 00EC;
},
{
glyphname = iacute;
layers = (
{
hints = (
{
horizontal = 1;
place = "{686, -20}";
target = down;
type = TopGhost;
},
{
horizontal = 1;
place = "{726, 107}";
type = Stem;
},
{
place = "{13, 291}";
type = Stem;
}
);
layerId = "0D67ACED-73D3-49C3-92B3-C98855658409";
paths = (
{
nodes = (
"13 10 LINE",
"126 10 LINE",
"233 686 LINE",
"120 686 LINE"
);
},
{
nodes = (
"304 833 LINE",
"189 833 LINE",
"116 726 LINE",
"231 726 LINE"
);
}
);
width = 137;
}
);
unicode = 00ED;
},
{
glyphname = icircumflex;
layers = (
{
hints = (
{
horizontal = 1;
place = "{686, -20}";
target = down;
type = TopGhost;
},
{
horizontal = 1;
place = "{726, 107}";
type = Stem;
},
{
place = "{13, 326}";
type = Stem;
}
);
layerId = "0D67ACED-73D3-49C3-92B3-C98855658409";
paths = (
{
nodes = (
"13 10 LINE",
"126 10 LINE",
"233 686 LINE",
"120 686 LINE"
);
},
{
nodes = (
"266 833 LINE",
"106 833 LINE",
"31 728 LINE",
"141 728 LINE",
"183 788 LINE",
"224 726 LINE",
"339 726 LINE"
);
}
);
width = 137;
}
);
unicode = 00EE;
},
{
glyphname = idieresis;
layers = (
{
hints = (
{
horizontal = 1;
place = "{686, -20}";
target = down;
type = TopGhost;
},
{
horizontal = 1;
place = "{727, 108}";
type = Stem;
},
{
place = "{13, 348}";
type = Stem;
}
);
layerId = "0D67ACED-73D3-49C3-92B3-C98855658409";
paths = (
{
nodes = (
"13 10 LINE",
"126 10 LINE",
"233 686 LINE",
"120 686 LINE"
);
},
{
nodes = (
"48 727 LINE",
"161 727 LINE",
"178 835 LINE",
"65 835 LINE"
);
},
{
nodes = (
"231 727 LINE",
"344 727 LINE",
"361 835 LINE",
"248 835 LINE"
);
}
);
width = 137;
}
);
unicode = 00EF;
},
{
glyphname = eth;
layers = (
{
hints = (
{
horizontal = 1;
place = "{10, 123}";
type = Stem;
},
{
horizontal = 1;
place = "{310, 114}";
type = Stem;
},
{
horizontal = 1;
place = "{569, 117}";
type = Stem;
},
{
place = "{69, 493}";
type = Stem;
}
);
layerId = "0D67ACED-73D3-49C3-92B3-C98855658409";
paths = (
{
nodes = (
"255 424 LINE",
"278 569 LINE",
"338 569 LINE",
"439 495 LINE",
"382 133 LINE",
"209 133 LINE",
"237 310 LINE",
"349 310 LINE",
"367 424 LINE"
);
},
{
nodes = (
"87 424 LINE",
"69 310 LINE",
"123 310 LINE",
"76 10 LINE",
"474 10 LINE",
"562 563 LINE",
"384 686 LINE",
"183 686 LINE",
"142 424 LINE"
);
}
);
width = 493;
}
);
unicode = 00F0;
},
{
glyphname = ntilde;
layers = (
{
hints = (
{
horizontal = 1;
place = "{569, 117}";
type = Stem;
},
{
horizontal = 1;
place = "{730, 101}";
type = Stem;
},
{
horizontal = 1;
place = "{777, 100}";
type = Stem;
},
{
place = "{13, 486}";
type = Stem;
}
);
layerId = "0D67ACED-73D3-49C3-92B3-C98855658409";
paths = (
{
nodes = (
"430 876 LINE",
"413 849 OFFCURVE",
"389 831 OFFCURVE",
"360 831 CURVE SMOOTH",
"320 831 OFFCURVE",
"302 877 OFFCURVE",
"238 877 CURVE SMOOTH",
"187 877 OFFCURVE",
"139 845 OFFCURVE",
"107 798 CURVE",
"166 733 LINE",
"183 757 OFFCURVE",
"208 777 OFFCURVE",
"236 777 CURVE SMOOTH",
"278 777 OFFCURVE",
"295 730 OFFCURVE",
"362 730 CURVE SMOOTH",
"413 730 OFFCURVE",
"459 763 OFFCURVE",
"490 810 CURVE"
);
},
{
nodes = (
"275 569 LINE",
"376 495 LINE",
"299 10 LINE",
"411 10 LINE",
"499 563 LINE",
"321 686 LINE",
"120 686 LINE",
"13 10 LINE",
"126 10 LINE",
"215 569 LINE"
);
}
);
width = 422;
}
);
unicode = 00F1;
},
{
glyphname = ograve;
layers = (
{
hints = (
{
horizontal = 1;
place = "{10, 123}";
type = Stem;
},
{
horizontal = 1;
place = "{569, 117}";
type = Stem;
},
{
horizontal = 1;
place = "{726, 107}";
type = Stem;
},
{
place = "{13, 506}";
type = Stem;
}
);
layerId = "0D67ACED-73D3-49C3-92B3-C98855658409";
paths = (
{
nodes = (
"120 686 LINE",
"13 10 LINE",
"412 10 LINE",
"519 686 LINE"
);
},
{
nodes = (
"319 133 LINE",
"145 133 LINE",
"214 569 LINE",
"388 569 LINE"
);
},
{
nodes = (
"282 726 LINE",
"397 726 LINE",
"324 833 LINE",
"209 833 LINE"
);
}
);
width = 423;
}
);
unicode = 00F2;
},
{
glyphname = oacute;
layers = (
{
hints = (
{
horizontal = 1;
place = "{10, 123}";
type = Stem;
},
{
horizontal = 1;
place = "{569, 117}";
type = Stem;
},
{
horizontal = 1;
place = "{726, 107}";
type = Stem;
},
{
place = "{13, 506}";
type = Stem;
}
);
layerId = "0D67ACED-73D3-49C3-92B3-C98855658409";
paths = (
{
nodes = (
"120 686 LINE",
"13 10 LINE",
"412 10 LINE",
"519 686 LINE"
);
},
{
nodes = (
"319 133 LINE",
"145 133 LINE",
"214 569 LINE",
"388 569 LINE"
);
},
{
nodes = (
"432 833 LINE",
"317 833 LINE",
"244 726 LINE",
"359 726 LINE"
);
}
);
width = 423;
}
);
unicode = 00F3;
},
{
glyphname = ocircumflex;
layers = (
{
hints = (
{
horizontal = 1;
place = "{10, 123}";
type = Stem;
},
{
horizontal = 1;
place = "{569, 117}";
type = Stem;
},
{
horizontal = 1;
place = "{726, 107}";
type = Stem;
},
{
place = "{13, 506}";
type = Stem;
}
);
layerId = "0D67ACED-73D3-49C3-92B3-C98855658409";
paths = (
{
nodes = (
"145 133 LINE",
"214 569 LINE",
"388 569 LINE",
"319 133 LINE"
);
},
{
nodes = (
"13 10 LINE",
"412 10 LINE",
"519 686 LINE",
"120 686 LINE"
);
},
{
nodes = (
"252 833 LINE",
"177 728 LINE",
"287 728 LINE",
"329 788 LINE",
"370 726 LINE",
"485 726 LINE",
"412 833 LINE"
);
}
);
width = 423;
}
);
unicode = 00F4;
},
{
glyphname = otilde;
layers = (
{
hints = (
{
horizontal = 1;
place = "{10, 123}";
type = Stem;
},
{
horizontal = 1;
place = "{569, 117}";
type = Stem;
},
{
horizontal = 1;
place = "{730, 101}";
type = Stem;
},
{
horizontal = 1;
place = "{777, 100}";
type = Stem;
},
{
place = "{13, 506}";
type = Stem;
}
);
layerId = "0D67ACED-73D3-49C3-92B3-C98855658409";
paths = (
{
nodes = (
"438 876 LINE",
"421 849 OFFCURVE",
"397 831 OFFCURVE",
"368 831 CURVE SMOOTH",
"328 831 OFFCURVE",
"310 877 OFFCURVE",
"246 877 CURVE SMOOTH",
"195 877 OFFCURVE",
"147 845 OFFCURVE",
"115 798 CURVE",
"174 733 LINE",
"191 757 OFFCURVE",
"216 777 OFFCURVE",
"244 777 CURVE SMOOTH",
"286 777 OFFCURVE",
"303 730 OFFCURVE",
"370 730 CURVE SMOOTH",
"421 730 OFFCURVE",
"467 763 OFFCURVE",
"498 810 CURVE"
);
},
{
nodes = (
"120 686 LINE",
"13 10 LINE",
"412 10 LINE",
"519 686 LINE"
);
},
{
nodes = (
"319 133 LINE",
"145 133 LINE",
"214 569 LINE",
"388 569 LINE"
);
}
);
width = 423;
}
);
unicode = 00F5;
},
{
glyphname = odieresis;
layers = (
{
hints = (
{
horizontal = 1;
place = "{10, 123}";
type = Stem;
},
{
horizontal = 1;
place = "{569, 117}";
type = Stem;
},
{
horizontal = 1;
place = "{727, 108}";
type = Stem;
},
{
place = "{13, 506}";
type = Stem;
}
);
layerId = "0D67ACED-73D3-49C3-92B3-C98855658409";
paths = (
{
nodes = (
"120 686 LINE",
"13 10 LINE",
"412 10 LINE",
"519 686 LINE"
);
},
{
nodes = (
"319 133 LINE",
"145 133 LINE",
"214 569 LINE",
"388 569 LINE"
);
},
{
nodes = (
"164 727 LINE",
"277 727 LINE",
"294 835 LINE",
"181 835 LINE"
);
},
{
nodes = (
"347 727 LINE",
"460 727 LINE",
"477 835 LINE",
"364 835 LINE"
);
}
);
width = 423;
}
);
unicode = 00F6;
},
{
glyphname = divide;
layers = (
{
hints = (
{
horizontal = 1;
place = "{69, 108}";
type = Stem;
},
{
horizontal = 1;
place = "{313, 114}";
type = Stem;
},
{
horizontal = 1;
place = "{538, 114}";
type = Stem;
},
{
place = "{86, 411}";
type = Stem;
}
);
layerId = "0D67ACED-73D3-49C3-92B3-C98855658409";
paths = (
{
nodes = (
"497 427 LINE",
"104 427 LINE",
"86 313 LINE",
"479 313 LINE"
);
},
{
nodes = (
"245 538 LINE",
"358 538 LINE",
"376 652 LINE",
"263 652 LINE"
);
},
{
nodes = (
"171 69 LINE",
"284 69 LINE",
"301 177 LINE",
"188 177 LINE"
);
}
);
width = 478;
}
);
unicode = 00F7;
},
{
glyphname = oslash;
layers = (
{
hints = (
{
horizontal = 1;
place = "{10, 123}";
type = Stem;
},
{
horizontal = 1;
place = "{569, 117}";
type = Stem;
},
{
place = "{13, 506}";
type = Stem;
}
);
layerId = "0D67ACED-73D3-49C3-92B3-C98855658409";
paths = (
{
nodes = (
"152 133 LINE",
"145 133 LINE",
"214 569 LINE",
"309 569 LINE"
);
},
{
nodes = (
"379 569 LINE",
"388 569 LINE",
"319 133 LINE",
"222 133 LINE"
);
},
{
nodes = (
"145 -81 LINE",
"178 10 LINE",
"412 10 LINE",
"519 686 LINE",
"421 686 LINE",
"455 779 LINE",
"385 779 LINE",
"351 686 LINE",
"120 686 LINE",
"13 10 LINE",
"108 10 LINE",
"75 -81 LINE"
);
}
);
width = 423;
}
);
unicode = 00F8;
},
{
glyphname = ugrave;
layers = (
{
hints = (
{
horizontal = 1;
place = "{10, 123}";
type = Stem;
},
{
horizontal = 1;
place = "{686, -20}";
target = down;
type = TopGhost;
},
{
horizontal = 1;
place = "{726, 107}";
type = Stem;
},
{
place = "{13, 506}";
type = Stem;
}
);
layerId = "0D67ACED-73D3-49C3-92B3-C98855658409";
paths = (
{
nodes = (
"319 133 LINE",
"145 133 LINE",
"232 686 LINE",
"120 686 LINE",
"13 10 LINE",
"412 10 LINE",
"519 686 LINE",
"406 686 LINE"
);
},
{
nodes = (
"294 726 LINE",
"409 726 LINE",
"336 833 LINE",
"221 833 LINE"
);
}
);
width = 423;
}
);
unicode = 00F9;
},
{
glyphname = uacute;
layers = (
{
hints = (
{
horizontal = 1;
place = "{10, 123}";
type = Stem;
},
{
horizontal = 1;
place = "{686, -20}";
target = down;
type = TopGhost;
},
{
horizontal = 1;
place = "{726, 107}";
type = Stem;
},
{
place = "{13, 506}";
type = Stem;
}
);
layerId = "0D67ACED-73D3-49C3-92B3-C98855658409";
paths = (
{
nodes = (
"319 133 LINE",
"145 133 LINE",
"232 686 LINE",
"120 686 LINE",
"13 10 LINE",
"412 10 LINE",
"519 686 LINE",
"406 686 LINE"
);
},
{
nodes = (
"458 833 LINE",
"343 833 LINE",
"270 726 LINE",
"385 726 LINE"
);
}
);
width = 423;
}
);
unicode = 00FA;
},
{
glyphname = ucircumflex;
layers = (
{
hints = (
{
horizontal = 1;
place = "{10, 123}";
type = Stem;
},
{
horizontal = 1;
place = "{686, -20}";
target = down;
type = TopGhost;
},
{
horizontal = 1;
place = "{726, 107}";
type = Stem;
},
{
place = "{13, 506}";
type = Stem;
}
);
layerId = "0D67ACED-73D3-49C3-92B3-C98855658409";
paths = (
{
nodes = (
"319 133 LINE",
"145 133 LINE",
"232 686 LINE",
"120 686 LINE",
"13 10 LINE",
"412 10 LINE",
"519 686 LINE",
"406 686 LINE"
);
},
{
nodes = (
"398 833 LINE",
"238 833 LINE",
"163 728 LINE",
"273 728 LINE",
"315 788 LINE",
"356 726 LINE",
"471 726 LINE"
);
}
);
width = 423;
}
);
unicode = 00FB;
},
{
glyphname = udieresis;
layers = (
{
hints = (
{
horizontal = 1;
place = "{10, 123}";
type = Stem;
},
{
horizontal = 1;
place = "{686, -20}";
target = down;
type = TopGhost;
},
{
horizontal = 1;
place = "{727, 108}";
type = Stem;
},
{
place = "{13, 506}";
type = Stem;
}
);
layerId = "0D67ACED-73D3-49C3-92B3-C98855658409";
paths = (
{
nodes = (
"319 133 LINE",
"145 133 LINE",
"232 686 LINE",
"120 686 LINE",
"13 10 LINE",
"412 10 LINE",
"519 686 LINE",
"406 686 LINE"
);
},
{
nodes = (
"169 727 LINE",
"282 727 LINE",
"299 835 LINE",
"186 835 LINE"
);
},
{
nodes = (
"352 727 LINE",
"465 727 LINE",
"482 835 LINE",
"369 835 LINE"
);
}
);
width = 423;
}
);
unicode = 00FC;
},
{
glyphname = yacute;
layers = (
{
hints = (
{
horizontal = 1;
place = "{686, -20}";
target = down;
type = TopGhost;
},
{
horizontal = 1;
place = "{726, 107}";
type = Stem;
},
{
place = "{76, 427}";
type = Stem;
}
);
layerId = "0D67ACED-73D3-49C3-92B3-C98855658409";
paths = (
{
nodes = (
"199 474 LINE",
"232 686 LINE",
"120 686 LINE",
"76 410 LINE",
"194 313 LINE",
"146 10 LINE",
"260 10 LINE",
"308 314 LINE",
"459 410 LINE",
"503 686 LINE",
"391 686 LINE",
"358 474 LINE",
"269 420 LINE"
);
},
{
nodes = (
"448 833 LINE",
"333 833 LINE",
"260 726 LINE",
"375 726 LINE"
);
}
);
width = 407;
}
);
unicode = 00FD;
},
{
glyphname = thorn;
layers = (
{
hints = (
{
horizontal = 1;
place = "{117, 123}";
type = Stem;
},
{
horizontal = 1;
place = "{481, 117}";
type = Stem;
},
{
place = "{-4, 507}";
type = Stem;
}
);
layerId = "0D67ACED-73D3-49C3-92B3-C98855658409";
paths = (
{
nodes = (
"159 240 LINE",
"198 481 LINE",
"372 481 LINE",
"333 240 LINE"
);
},
{
nodes = (
"245 793 LINE",
"136 793 LINE",
"-4 -79 LINE",
"105 -79 LINE",
"138 117 LINE",
"426 117 LINE",
"503 598 LINE",
"213 598 LINE"
);
}
);
width = 431;
}
);
unicode = 00FE;
},
{
glyphname = ydieresis;
layers = (
{
hints = (
{
horizontal = 1;
place = "{686, -20}";
target = down;
type = TopGhost;
},
{
horizontal = 1;
place = "{727, 108}";
type = Stem;
},
{
place = "{76, 427}";
type = Stem;
}
);
layerId = "0D67ACED-73D3-49C3-92B3-C98855658409";
paths = (
{
nodes = (
"199 474 LINE",
"232 686 LINE",
"120 686 LINE",
"76 410 LINE",
"194 313 LINE",
"146 10 LINE",
"260 10 LINE",
"308 314 LINE",
"459 410 LINE",
"503 686 LINE",
"391 686 LINE",
"358 474 LINE",
"269 420 LINE"
);
},
{
nodes = (
"151 727 LINE",
"264 727 LINE",
"281 835 LINE",
"168 835 LINE"
);
},
{
nodes = (
"334 727 LINE",
"447 727 LINE",
"464 835 LINE",
"351 835 LINE"
);
}
);
width = 407;
}
);
unicode = 00FF;
},
{
glyphname = Amacron;
layers = (
{
hints = (
{
horizontal = 1;
place = "{232, 113}";
type = Stem;
},
{
horizontal = 1;
place = "{569, 117}";
type = Stem;
},
{
horizontal = 1;
place = "{727, 114}";
type = Stem;
},
{
place = "{13, 486}";
type = Stem;
}
);
layerId = "0D67ACED-73D3-49C3-92B3-C98855658409";
paths = (
{
nodes = (
"215 569 LINE",
"275 569 LINE",
"376 496 LINE",
"352 345 LINE",
"179 345 LINE"
);
},
{
nodes = (
"411 10 LINE",
"499 564 LINE",
"321 686 LINE",
"120 686 LINE",
"13 10 LINE",
"126 10 LINE",
"161 232 LINE",
"334 232 LINE",
"299 10 LINE"
);
},
{
nodes = (
"191 841 LINE",
"173 727 LINE",
"453 727 LINE",
"471 841 LINE"
);
}
);
width = 422;
}
);
unicode = 0100;
},
{
glyphname = amacron;
layers = (
{
hints = (
{
horizontal = 1;
place = "{232, 113}";
type = Stem;
},
{
horizontal = 1;
place = "{569, 117}";
type = Stem;
},
{
horizontal = 1;
place = "{727, 114}";
type = Stem;
},
{
place = "{13, 486}";
type = Stem;
}
);
layerId = "0D67ACED-73D3-49C3-92B3-C98855658409";
paths = (
{
nodes = (
"215 569 LINE",
"275 569 LINE",
"376 496 LINE",
"352 345 LINE",
"179 345 LINE"
);
},
{
nodes = (
"411 10 LINE",
"499 564 LINE",
"321 686 LINE",
"120 686 LINE",
"13 10 LINE",
"126 10 LINE",
"161 232 LINE",
"334 232 LINE",
"299 10 LINE"
);
},
{
nodes = (
"191 841 LINE",
"173 727 LINE",
"453 727 LINE",
"471 841 LINE"
);
}
);
width = 422;
}
);
unicode = 0101;
},
{
glyphname = Abreve;
layers = (
{
hints = (
{
horizontal = 1;
place = "{232, 113}";
type = Stem;
},
{
horizontal = 1;
place = "{569, 117}";
type = Stem;
},
{
horizontal = 1;
place = "{711, 129}";
type = Stem;
},
{
place = "{13, 486}";
type = Stem;
}
);
layerId = "0D67ACED-73D3-49C3-92B3-C98855658409";
paths = (
{
nodes = (
"285 802 OFFCURVE",
"266 817 OFFCURVE",
"263 840 CURVE",
"170 840 LINE",
"173 767 OFFCURVE",
"232 711 OFFCURVE",
"308 711 CURVE SMOOTH",
"384 711 OFFCURVE",
"443 767 OFFCURVE",
"448 840 CURVE",
"353 840 LINE",
"350 817 OFFCURVE",
"331 802 OFFCURVE",
"308 802 CURVE SMOOTH"
);
},
{
nodes = (
"299 10 LINE",
"411 10 LINE",
"499 564 LINE",
"321 686 LINE",
"120 686 LINE",
"13 10 LINE",
"126 10 LINE",
"161 232 LINE",
"334 232 LINE"
);
},
{
nodes = (
"179 345 LINE",
"215 569 LINE",
"275 569 LINE",
"376 496 LINE",
"352 345 LINE"
);
}
);
width = 422;
}
);
unicode = 0102;
},
{
glyphname = abreve;
layers = (
{
hints = (
{
horizontal = 1;
place = "{232, 113}";
type = Stem;
},
{
horizontal = 1;
place = "{569, 117}";
type = Stem;
},
{
horizontal = 1;
place = "{711, 129}";
type = Stem;
},
{
place = "{13, 486}";
type = Stem;
}
);
layerId = "0D67ACED-73D3-49C3-92B3-C98855658409";
paths = (
{
nodes = (
"285 802 OFFCURVE",
"266 817 OFFCURVE",
"263 840 CURVE",
"170 840 LINE",
"173 767 OFFCURVE",
"232 711 OFFCURVE",
"308 711 CURVE SMOOTH",
"384 711 OFFCURVE",
"443 767 OFFCURVE",
"448 840 CURVE",
"353 840 LINE",
"350 817 OFFCURVE",
"331 802 OFFCURVE",
"308 802 CURVE SMOOTH"
);
},
{
nodes = (
"299 10 LINE",
"411 10 LINE",
"499 564 LINE",
"321 686 LINE",
"120 686 LINE",
"13 10 LINE",
"126 10 LINE",
"161 232 LINE",
"334 232 LINE"
);
},
{
nodes = (
"179 345 LINE",
"215 569 LINE",
"275 569 LINE",
"376 496 LINE",
"352 345 LINE"
);
}
);
width = 422;
}
);
unicode = 0103;
},
{
glyphname = Aogonek;
layers = (
{
hints = (
{
horizontal = 1;
place = "{-300, 99}";
type = Stem;
},
{
horizontal = 1;
place = "{-169, 89}";
type = Stem;
},
{
horizontal = 1;
place = "{232, 113}";
type = Stem;
},
{
horizontal = 1;
place = "{569, 117}";
type = Stem;
},
{
place = "{13, 486}";
type = Stem;
}
);
layerId = "0D67ACED-73D3-49C3-92B3-C98855658409";
paths = (
{
nodes = (
"215 569 LINE",
"275 569 LINE",
"376 496 LINE",
"352 345 LINE",
"179 345 LINE"
);
},
{
nodes = (
"402 10 LINE",
"411 10 LINE",
"499 564 LINE",
"321 686 LINE",
"120 686 LINE",
"13 10 LINE",
"126 10 LINE",
"161 232 LINE",
"334 232 LINE",
"299 10 LINE",
"298 10 LINE",
"282 -80 LINE",
"144 -80 LINE",
"106 -300 LINE",
"381 -300 LINE",
"398 -201 LINE",
"222 -201 LINE",
"225 -169 LINE",
"365 -169 LINE"
);
}
);
width = 422;
}
);
unicode = 0104;
},
{
glyphname = aogonek;
layers = (
{
hints = (
{
horizontal = 1;
place = "{-300, 99}";
type = Stem;
},
{
horizontal = 1;
place = "{-169, 89}";
type = Stem;
},
{
horizontal = 1;
place = "{232, 113}";
type = Stem;
},
{
horizontal = 1;
place = "{569, 117}";
type = Stem;
},
{
place = "{13, 486}";
type = Stem;
}
);
layerId = "0D67ACED-73D3-49C3-92B3-C98855658409";
paths = (
{
nodes = (
"215 569 LINE",
"275 569 LINE",
"376 496 LINE",
"352 345 LINE",
"179 345 LINE"
);
},
{
nodes = (
"402 10 LINE",
"411 10 LINE",
"499 564 LINE",
"321 686 LINE",
"120 686 LINE",
"13 10 LINE",
"126 10 LINE",
"161 232 LINE",
"334 232 LINE",
"299 10 LINE",
"298 10 LINE",
"282 -80 LINE",
"144 -80 LINE",
"106 -300 LINE",
"381 -300 LINE",
"398 -201 LINE",
"222 -201 LINE",
"225 -169 LINE",
"365 -169 LINE"
);
}
);
width = 422;
}
);
unicode = 0105;
},
{
glyphname = Cacute;
layers = (
{
hints = (
{
horizontal = 1;
place = "{10, 123}";
type = Stem;
},
{
horizontal = 1;
place = "{569, 117}";
type = Stem;
},
{
horizontal = 1;
place = "{726, 107}";
type = Stem;
},
{
place = "{13, 506}";
type = Stem;
}
);
layerId = "0D67ACED-73D3-49C3-92B3-C98855658409";
paths = (
{
nodes = (
"120 686 LINE",
"13 10 LINE",
"412 10 LINE",
"432 133 LINE",
"146 133 LINE",
"215 569 LINE",
"501 569 LINE",
"519 686 LINE"
);
},
{
nodes = (
"430 833 LINE",
"315 833 LINE",
"242 726 LINE",
"357 726 LINE"
);
}
);
width = 423;
}
);
unicode = 0106;
},
{
glyphname = cacute;
layers = (
{
hints = (
{
horizontal = 1;
place = "{10, 123}";
type = Stem;
},
{
horizontal = 1;
place = "{569, 117}";
type = Stem;
},
{
horizontal = 1;
place = "{726, 107}";
type = Stem;
},
{
place = "{13, 506}";
type = Stem;
}
);
layerId = "0D67ACED-73D3-49C3-92B3-C98855658409";
paths = (
{
nodes = (
"120 686 LINE",
"13 10 LINE",
"412 10 LINE",
"432 133 LINE",
"146 133 LINE",
"215 569 LINE",
"501 569 LINE",
"519 686 LINE"
);
},
{
nodes = (
"430 833 LINE",
"315 833 LINE",
"242 726 LINE",
"357 726 LINE"
);
}
);
width = 423;
}
);
unicode = 0107;
},
{
glyphname = Cdotaccent;
layers = (
{
hints = (
{
horizontal = 1;
place = "{10, 123}";
type = Stem;
},
{
horizontal = 1;
place = "{569, 117}";
type = Stem;
},
{
horizontal = 1;
place = "{727, 132}";
type = Stem;
},
{
place = "{13, 506}";
type = Stem;
}
);
layerId = "0D67ACED-73D3-49C3-92B3-C98855658409";
paths = (
{
nodes = (
"120 686 LINE",
"13 10 LINE",
"412 10 LINE",
"432 133 LINE",
"146 133 LINE",
"215 569 LINE",
"501 569 LINE",
"519 686 LINE"
);
},
{
nodes = (
"244 727 LINE",
"383 727 LINE",
"405 859 LINE",
"266 859 LINE"
);
}
);
width = 423;
}
);
unicode = 010A;
},
{
glyphname = cdotaccent;
layers = (
{
hints = (
{
horizontal = 1;
place = "{10, 123}";
type = Stem;
},
{
horizontal = 1;
place = "{569, 117}";
type = Stem;
},
{
horizontal = 1;
place = "{727, 132}";
type = Stem;
},
{
place = "{13, 506}";
type = Stem;
}
);
layerId = "0D67ACED-73D3-49C3-92B3-C98855658409";
paths = (
{
nodes = (
"120 686 LINE",
"13 10 LINE",
"412 10 LINE",
"432 133 LINE",
"146 133 LINE",
"215 569 LINE",
"501 569 LINE",
"519 686 LINE"
);
},
{
nodes = (
"244 727 LINE",
"383 727 LINE",
"405 859 LINE",
"266 859 LINE"
);
}
);
width = 423;
}
);
unicode = 010B;
},
{
glyphname = Ccaron;
layers = (
{
hints = (
{
horizontal = 1;
place = "{10, 123}";
type = Stem;
},
{
horizontal = 1;
place = "{569, 117}";
type = Stem;
},
{
horizontal = 1;
place = "{726, 107}";
type = Stem;
},
{
place = "{13, 507}";
type = Stem;
}
);
layerId = "0D67ACED-73D3-49C3-92B3-C98855658409";
paths = (
{
nodes = (
"120 686 LINE",
"13 10 LINE",
"412 10 LINE",
"432 133 LINE",
"146 133 LINE",
"215 569 LINE",
"501 569 LINE",
"519 686 LINE"
);
},
{
nodes = (
"520 833 LINE",
"405 833 LINE",
"364 771 LINE",
"322 831 LINE",
"212 831 LINE",
"287 726 LINE",
"447 726 LINE"
);
}
);
width = 423;
}
);
unicode = 010C;
},
{
glyphname = ccaron;
layers = (
{
hints = (
{
horizontal = 1;
place = "{10, 123}";
type = Stem;
},
{
horizontal = 1;
place = "{569, 117}";
type = Stem;
},
{
horizontal = 1;
place = "{726, 107}";
type = Stem;
},
{
place = "{13, 507}";
type = Stem;
}
);
layerId = "0D67ACED-73D3-49C3-92B3-C98855658409";
paths = (
{
nodes = (
"120 686 LINE",
"13 10 LINE",
"412 10 LINE",
"432 133 LINE",
"146 133 LINE",
"215 569 LINE",
"501 569 LINE",
"519 686 LINE"
);
},
{
nodes = (
"520 833 LINE",
"405 833 LINE",
"364 771 LINE",
"322 831 LINE",
"212 831 LINE",
"287 726 LINE",
"447 726 LINE"
);
}
);
width = 423;
}
);
unicode = 010D;
},
{
glyphname = Dcaron;
layers = (
{
hints = (
{
horizontal = 1;
place = "{10, 123}";
type = Stem;
},
{
horizontal = 1;
place = "{569, 117}";
type = Stem;
},
{
horizontal = 1;
place = "{726, 107}";
type = Stem;
},
{
place = "{13, 486}";
type = Stem;
}
);
layerId = "0D67ACED-73D3-49C3-92B3-C98855658409";
paths = (
{
nodes = (
"376 495 LINE",
"319 133 LINE",
"146 133 LINE",
"215 569 LINE",
"275 569 LINE"
);
},
{
nodes = (
"13 10 LINE",
"411 10 LINE",
"499 563 LINE",
"321 686 LINE",
"120 686 LINE"
);
},
{
nodes = (
"312 833 LINE",
"271 771 LINE",
"229 831 LINE",
"119 831 LINE",
"194 726 LINE",
"354 726 LINE",
"427 833 LINE"
);
}
);
width = 422;
}
);
unicode = 010E;
},
{
glyphname = dcaron;
layers = (
{
hints = (
{
horizontal = 1;
place = "{10, 123}";
type = Stem;
},
{
horizontal = 1;
place = "{569, 117}";
type = Stem;
},
{
horizontal = 1;
place = "{722, 114}";
type = Stem;
},
{
place = "{13, 486}";
type = Stem;
}
);
layerId = "0D67ACED-73D3-49C3-92B3-C98855658409";
paths = (
{
nodes = (
"376 495 LINE",
"319 133 LINE",
"146 133 LINE",
"215 569 LINE",
"275 569 LINE"
);
},
{
nodes = (
"13 10 LINE",
"411 10 LINE",
"499 563 LINE",
"321 686 LINE",
"120 686 LINE"
);
},
{
nodes = (
"175 836 LINE",
"157 722 LINE",
"437 722 LINE",
"455 836 LINE"
);
}
);
width = 422;
}
);
unicode = 010F;
},
{
glyphname = Dcroat;
layers = (
{
hints = (
{
horizontal = 1;
place = "{10, 123}";
type = Stem;
},
{
horizontal = 1;
place = "{310, 114}";
type = Stem;
},
{
horizontal = 1;
place = "{569, 117}";
type = Stem;
},
{
place = "{69, 493}";
type = Stem;
}
);
layerId = "0D67ACED-73D3-49C3-92B3-C98855658409";
paths = (
{
nodes = (
"255 424 LINE",
"278 569 LINE",
"338 569 LINE",
"439 495 LINE",
"382 133 LINE",
"209 133 LINE",
"237 310 LINE",
"349 310 LINE",
"367 424 LINE"
);
},
{
nodes = (
"87 424 LINE",
"69 310 LINE",
"123 310 LINE",
"76 10 LINE",
"474 10 LINE",
"562 563 LINE",
"384 686 LINE",
"183 686 LINE",
"142 424 LINE"
);
}
);
width = 493;
}
);
unicode = 0110;
},
{
glyphname = dcroat;
layers = (
{
hints = (
{
horizontal = 1;
place = "{10, 123}";
type = Stem;
},
{
horizontal = 1;
place = "{310, 114}";
type = Stem;
},
{
horizontal = 1;
place = "{569, 117}";
type = Stem;
},
{
place = "{69, 493}";
type = Stem;
}
);
layerId = "0D67ACED-73D3-49C3-92B3-C98855658409";
paths = (
{
nodes = (
"255 424 LINE",
"278 569 LINE",
"338 569 LINE",
"439 495 LINE",
"382 133 LINE",
"209 133 LINE",
"237 310 LINE",
"349 310 LINE",
"367 424 LINE"
);
},
{
nodes = (
"87 424 LINE",
"69 310 LINE",
"123 310 LINE",
"76 10 LINE",
"474 10 LINE",
"562 563 LINE",
"384 686 LINE",
"183 686 LINE",
"142 424 LINE"
);
}
);
width = 493;
}
);
unicode = 0111;
},
{
glyphname = Emacron;
layers = (
{
hints = (
{
horizontal = 1;
place = "{10, 123}";
type = Stem;
},
{
horizontal = 1;
place = "{569, 117}";
type = Stem;
},
{
horizontal = 1;
place = "{727, 114}";
type = Stem;
},
{
place = "{13, 494}";
type = Stem;
}
);
layerId = "0D67ACED-73D3-49C3-92B3-C98855658409";
paths = (
{
nodes = (
"215 569 LINE",
"489 569 LINE",
"507 686 LINE",
"120 686 LINE",
"13 10 LINE",
"400 10 LINE",
"420 133 LINE",
"146 133 LINE",
"169 280 LINE",
"354 358 LINE",
"374 484 LINE",
"189 406 LINE"
);
},
{
nodes = (
"480 841 LINE",
"200 841 LINE",
"182 727 LINE",
"462 727 LINE"
);
}
);
width = 411;
}
);
unicode = 0112;
},
{
glyphname = emacron;
layers = (
{
hints = (
{
horizontal = 1;
place = "{10, 123}";
type = Stem;
},
{
horizontal = 1;
place = "{569, 117}";
type = Stem;
},
{
horizontal = 1;
place = "{727, 114}";
type = Stem;
},
{
place = "{13, 494}";
type = Stem;
}
);
layerId = "0D67ACED-73D3-49C3-92B3-C98855658409";
paths = (
{
nodes = (
"215 569 LINE",
"489 569 LINE",
"507 686 LINE",
"120 686 LINE",
"13 10 LINE",
"400 10 LINE",
"420 133 LINE",
"146 133 LINE",
"169 280 LINE",
"354 358 LINE",
"374 484 LINE",
"189 406 LINE"
);
},
{
nodes = (
"480 841 LINE",
"200 841 LINE",
"182 727 LINE",
"462 727 LINE"
);
}
);
width = 411;
}
);
unicode = 0113;
},
{
glyphname = Edotaccent;
layers = (
{
hints = (
{
horizontal = 1;
place = "{10, 123}";
type = Stem;
},
{
horizontal = 1;
place = "{569, 117}";
type = Stem;
},
{
horizontal = 1;
place = "{727, 132}";
type = Stem;
},
{
place = "{13, 494}";
type = Stem;
}
);
layerId = "0D67ACED-73D3-49C3-92B3-C98855658409";
paths = (
{
nodes = (
"215 569 LINE",
"489 569 LINE",
"507 686 LINE",
"120 686 LINE",
"13 10 LINE",
"400 10 LINE",
"420 133 LINE",
"146 133 LINE",
"169 280 LINE",
"354 358 LINE",
"374 484 LINE",
"189 406 LINE"
);
},
{
nodes = (
"233 727 LINE",
"372 727 LINE",
"394 859 LINE",
"255 859 LINE"
);
}
);
width = 411;
}
);
unicode = 0116;
},
{
glyphname = edotaccent;
layers = (
{
hints = (
{
horizontal = 1;
place = "{10, 123}";
type = Stem;
},
{
horizontal = 1;
place = "{569, 117}";
type = Stem;
},
{
horizontal = 1;
place = "{727, 132}";
type = Stem;
},
{
place = "{13, 494}";
type = Stem;
}
);
layerId = "0D67ACED-73D3-49C3-92B3-C98855658409";
paths = (
{
nodes = (
"215 569 LINE",
"489 569 LINE",
"507 686 LINE",
"120 686 LINE",
"13 10 LINE",
"400 10 LINE",
"420 133 LINE",
"146 133 LINE",
"169 280 LINE",
"354 358 LINE",
"374 484 LINE",
"189 406 LINE"
);
},
{
nodes = (
"233 727 LINE",
"372 727 LINE",
"394 859 LINE",
"255 859 LINE"
);
}
);
width = 411;
}
);
unicode = 0117;
},
{
glyphname = Eogonek;
layers = (
{
hints = (
{
horizontal = 1;
place = "{-300, 99}";
type = Stem;
},
{
horizontal = 1;
place = "{-169, 89}";
type = Stem;
},
{
horizontal = 1;
place = "{10, 123}";
type = Stem;
},
{
horizontal = 1;
place = "{569, 117}";
type = Stem;
},
{
place = "{13, 494}";
type = Stem;
}
);
layerId = "0D67ACED-73D3-49C3-92B3-C98855658409";
paths = (
{
nodes = (
"326 10 LINE",
"400 10 LINE",
"420 133 LINE",
"146 133 LINE",
"169 280 LINE",
"354 358 LINE",
"374 484 LINE",
"189 406 LINE",
"215 569 LINE",
"489 569 LINE",
"507 686 LINE",
"120 686 LINE",
"13 10 LINE",
"222 10 LINE",
"206 -80 LINE",
"68 -80 LINE",
"30 -300 LINE",
"305 -300 LINE",
"322 -201 LINE",
"146 -201 LINE",
"149 -169 LINE",
"289 -169 LINE"
);
}
);
width = 411;
}
);
unicode = 0118;
},
{
glyphname = eogonek;
layers = (
{
hints = (
{
horizontal = 1;
place = "{-300, 99}";
type = Stem;
},
{
horizontal = 1;
place = "{-169, 89}";
type = Stem;
},
{
horizontal = 1;
place = "{10, 123}";
type = Stem;
},
{
horizontal = 1;
place = "{569, 117}";
type = Stem;
},
{
place = "{13, 494}";
type = Stem;
}
);
layerId = "0D67ACED-73D3-49C3-92B3-C98855658409";
paths = (
{
nodes = (
"326 10 LINE",
"400 10 LINE",
"420 133 LINE",
"146 133 LINE",
"169 280 LINE",
"354 358 LINE",
"374 484 LINE",
"189 406 LINE",
"215 569 LINE",
"489 569 LINE",
"507 686 LINE",
"120 686 LINE",
"13 10 LINE",
"222 10 LINE",
"206 -80 LINE",
"68 -80 LINE",
"30 -300 LINE",
"305 -300 LINE",
"322 -201 LINE",
"146 -201 LINE",
"149 -169 LINE",
"289 -169 LINE"
);
}
);
width = 411;
}
);
unicode = 0119;
},
{
glyphname = Ecaron;
layers = (
{
hints = (
{
horizontal = 1;
place = "{10, 123}";
type = Stem;
},
{
horizontal = 1;
place = "{569, 117}";
type = Stem;
},
{
horizontal = 1;
place = "{726, 107}";
type = Stem;
},
{
place = "{13, 494}";
type = Stem;
}
);
layerId = "0D67ACED-73D3-49C3-92B3-C98855658409";
paths = (
{
nodes = (
"215 569 LINE",
"489 569 LINE",
"507 686 LINE",
"120 686 LINE",
"13 10 LINE",
"400 10 LINE",
"420 133 LINE",
"146 133 LINE",
"169 280 LINE",
"354 358 LINE",
"374 484 LINE",
"189 406 LINE"
);
},
{
nodes = (
"465 833 LINE",
"350 833 LINE",
"309 771 LINE",
"267 831 LINE",
"157 831 LINE",
"232 726 LINE",
"392 726 LINE"
);
}
);
width = 411;
}
);
unicode = 011A;
},
{
glyphname = ecaron;
layers = (
{
hints = (
{
horizontal = 1;
place = "{10, 123}";
type = Stem;
},
{
horizontal = 1;
place = "{569, 117}";
type = Stem;
},
{
horizontal = 1;
place = "{726, 107}";
type = Stem;
},
{
place = "{13, 494}";
type = Stem;
}
);
layerId = "0D67ACED-73D3-49C3-92B3-C98855658409";
paths = (
{
nodes = (
"215 569 LINE",
"489 569 LINE",
"507 686 LINE",
"120 686 LINE",
"13 10 LINE",
"400 10 LINE",
"420 133 LINE",
"146 133 LINE",
"169 280 LINE",
"354 358 LINE",
"374 484 LINE",
"189 406 LINE"
);
},
{
nodes = (
"465 833 LINE",
"350 833 LINE",
"309 771 LINE",
"267 831 LINE",
"157 831 LINE",
"232 726 LINE",
"392 726 LINE"
);
}
);
width = 411;
}
);
unicode = 011B;
},
{
glyphname = Gbreve;
layers = (
{
hints = (
{
horizontal = 1;
place = "{10, 123}";
type = Stem;
},
{
horizontal = 1;
place = "{569, 117}";
type = Stem;
},
{
horizontal = 1;
place = "{711, 129}";
type = Stem;
},
{
place = "{13, 506}";
type = Stem;
}
);
layerId = "0D67ACED-73D3-49C3-92B3-C98855658409";
paths = (
{
nodes = (
"285 802 OFFCURVE",
"266 817 OFFCURVE",
"263 840 CURVE",
"170 840 LINE",
"173 767 OFFCURVE",
"232 711 OFFCURVE",
"308 711 CURVE SMOOTH",
"384 711 OFFCURVE",
"443 767 OFFCURVE",
"448 840 CURVE",
"353 840 LINE",
"350 817 OFFCURVE",
"331 802 OFFCURVE",
"308 802 CURVE SMOOTH"
);
},
{
nodes = (
"120 686 LINE",
"13 10 LINE",
"412 10 LINE",
"485 472 LINE",
"249 359 LINE",
"229 227 LINE",
"344 288 LINE",
"320 133 LINE",
"146 133 LINE",
"215 569 LINE",
"501 569 LINE",
"519 686 LINE"
);
}
);
width = 423;
}
);
unicode = 011E;
},
{
glyphname = gbreve;
layers = (
{
hints = (
{
horizontal = 1;
place = "{10, 123}";
type = Stem;
},
{
horizontal = 1;
place = "{569, 117}";
type = Stem;
},
{
horizontal = 1;
place = "{711, 129}";
type = Stem;
},
{
place = "{13, 506}";
type = Stem;
}
);
layerId = "0D67ACED-73D3-49C3-92B3-C98855658409";
paths = (
{
nodes = (
"285 802 OFFCURVE",
"266 817 OFFCURVE",
"263 840 CURVE",
"170 840 LINE",
"173 767 OFFCURVE",
"232 711 OFFCURVE",
"308 711 CURVE SMOOTH",
"384 711 OFFCURVE",
"443 767 OFFCURVE",
"448 840 CURVE",
"353 840 LINE",
"350 817 OFFCURVE",
"331 802 OFFCURVE",
"308 802 CURVE SMOOTH"
);
},
{
nodes = (
"120 686 LINE",
"13 10 LINE",
"412 10 LINE",
"485 472 LINE",
"249 359 LINE",
"229 227 LINE",
"344 288 LINE",
"320 133 LINE",
"146 133 LINE",
"215 569 LINE",
"501 569 LINE",
"519 686 LINE"
);
}
);
width = 423;
}
);
unicode = 011F;
},
{
glyphname = Gdotaccent;
layers = (
{
hints = (
{
horizontal = 1;
place = "{10, 123}";
type = Stem;
},
{
horizontal = 1;
place = "{569, 117}";
type = Stem;
},
{
horizontal = 1;
place = "{727, 132}";
type = Stem;
},
{
place = "{13, 506}";
type = Stem;
}
);
layerId = "0D67ACED-73D3-49C3-92B3-C98855658409";
paths = (
{
nodes = (
"120 686 LINE",
"13 10 LINE",
"412 10 LINE",
"485 472 LINE",
"249 359 LINE",
"229 227 LINE",
"344 288 LINE",
"320 133 LINE",
"146 133 LINE",
"215 569 LINE",
"501 569 LINE",
"519 686 LINE"
);
},
{
nodes = (
"233 727 LINE",
"372 727 LINE",
"394 859 LINE",
"255 859 LINE"
);
}
);
width = 423;
}
);
unicode = 0120;
},
{
glyphname = gdotaccent;
layers = (
{
hints = (
{
horizontal = 1;
place = "{10, 123}";
type = Stem;
},
{
horizontal = 1;
place = "{569, 117}";
type = Stem;
},
{
horizontal = 1;
place = "{727, 132}";
type = Stem;
},
{
place = "{13, 506}";
type = Stem;
}
);
layerId = "0D67ACED-73D3-49C3-92B3-C98855658409";
paths = (
{
nodes = (
"120 686 LINE",
"13 10 LINE",
"412 10 LINE",
"485 472 LINE",
"249 359 LINE",
"229 227 LINE",
"344 288 LINE",
"320 133 LINE",
"146 133 LINE",
"215 569 LINE",
"501 569 LINE",
"519 686 LINE"
);
},
{
nodes = (
"233 727 LINE",
"372 727 LINE",
"394 859 LINE",
"255 859 LINE"
);
}
);
width = 423;
}
);
unicode = 0121;
},
{
glyphname = uni0122;
layers = (
{
hints = (
{
horizontal = 1;
place = "{10, 123}";
type = Stem;
},
{
horizontal = 1;
place = "{569, 117}";
type = Stem;
},
{
horizontal = 1;
place = "{730, 235}";
type = Stem;
},
{
place = "{13, 506}";
type = Stem;
}
);
layerId = "0D67ACED-73D3-49C3-92B3-C98855658409";
paths = (
{
nodes = (
"120 686 LINE",
"13 10 LINE",
"412 10 LINE",
"485 472 LINE",
"249 359 LINE",
"229 227 LINE",
"344 288 LINE",
"320 133 LINE",
"146 133 LINE",
"215 569 LINE",
"501 569 LINE",
"519 686 LINE"
);
},
{
nodes = (
"248 730 LINE",
"361 730 LINE",
"399 965 LINE",
"286 965 LINE"
);
}
);
width = 423;
}
);
unicode = 0122;
},
{
glyphname = uni0123;
layers = (
{
hints = (
{
horizontal = 1;
place = "{10, 123}";
type = Stem;
},
{
horizontal = 1;
place = "{569, 117}";
type = Stem;
},
{
horizontal = 1;
place = "{730, 235}";
type = Stem;
},
{
place = "{13, 506}";
type = Stem;
}
);
layerId = "0D67ACED-73D3-49C3-92B3-C98855658409";
paths = (
{
nodes = (
"120 686 LINE",
"13 10 LINE",
"412 10 LINE",
"485 472 LINE",
"249 359 LINE",
"229 227 LINE",
"344 288 LINE",
"320 133 LINE",
"146 133 LINE",
"215 569 LINE",
"501 569 LINE",
"519 686 LINE"
);
},
{
nodes = (
"248 730 LINE",
"361 730 LINE",
"399 965 LINE",
"286 965 LINE"
);
}
);
width = 423;
}
);
unicode = 0123;
},
{
glyphname = Hbar;
layers = (
{
hints = (
{
horizontal = 1;
place = "{330, 114}";
type = Stem;
},
{
horizontal = 1;
place = "{500, 114}";
type = Stem;
},
{
horizontal = 1;
place = "{500, 186}";
type = Stem;
},
{
place = "{69, 556}";
type = Stem;
}
);
layerId = "0D67ACED-73D3-49C3-92B3-C98855658409";
paths = (
{
nodes = (
"426 444 LINE",
"251 444 LINE",
"260 500 LINE",
"435 500 LINE"
);
},
{
nodes = (
"464 686 LINE",
"453 614 LINE",
"278 614 LINE",
"289 686 LINE",
"176 686 LINE",
"165 614 LINE",
"102 614 LINE",
"84 500 LINE",
"147 500 LINE",
"69 10 LINE",
"182 10 LINE",
"233 330 LINE",
"408 330 LINE",
"357 10 LINE",
"471 10 LINE",
"549 500 LINE",
"607 500 LINE",
"625 614 LINE",
"567 614 LINE",
"578 686 LINE"
);
}
);
width = 537;
}
);
unicode = 0126;
},
{
glyphname = hbar;
layers = (
{
hints = (
{
horizontal = 1;
place = "{330, 114}";
type = Stem;
},
{
horizontal = 1;
place = "{500, 114}";
type = Stem;
},
{
horizontal = 1;
place = "{500, 186}";
type = Stem;
},
{
place = "{69, 556}";
type = Stem;
}
);
layerId = "0D67ACED-73D3-49C3-92B3-C98855658409";
paths = (
{
nodes = (
"426 444 LINE",
"251 444 LINE",
"260 500 LINE",
"435 500 LINE"
);
},
{
nodes = (
"464 686 LINE",
"453 614 LINE",
"278 614 LINE",
"289 686 LINE",
"176 686 LINE",
"165 614 LINE",
"102 614 LINE",
"84 500 LINE",
"147 500 LINE",
"69 10 LINE",
"182 10 LINE",
"233 330 LINE",
"408 330 LINE",
"357 10 LINE",
"471 10 LINE",
"549 500 LINE",
"607 500 LINE",
"625 614 LINE",
"567 614 LINE",
"578 686 LINE"
);
}
);
width = 537;
}
);
unicode = 0127;
},
{
glyphname = Imacron;
layers = (
{
hints = (
{
horizontal = 1;
place = "{686, -20}";
target = down;
type = TopGhost;
},
{
horizontal = 1;
place = "{727, 114}";
type = Stem;
},
{
place = "{13, 325}";
type = Stem;
}
);
layerId = "0D67ACED-73D3-49C3-92B3-C98855658409";
paths = (
{
nodes = (
"13 10 LINE",
"126 10 LINE",
"233 686 LINE",
"120 686 LINE"
);
},
{
nodes = (
"338 841 LINE",
"58 841 LINE",
"40 727 LINE",
"320 727 LINE"
);
}
);
width = 137;
}
);
unicode = 012A;
},
{
glyphname = imacron;
layers = (
{
hints = (
{
horizontal = 1;
place = "{686, -20}";
target = down;
type = TopGhost;
},
{
horizontal = 1;
place = "{727, 114}";
type = Stem;
},
{
place = "{13, 325}";
type = Stem;
}
);
layerId = "0D67ACED-73D3-49C3-92B3-C98855658409";
paths = (
{
nodes = (
"13 10 LINE",
"126 10 LINE",
"233 686 LINE",
"120 686 LINE"
);
},
{
nodes = (
"338 841 LINE",
"58 841 LINE",
"40 727 LINE",
"320 727 LINE"
);
}
);
width = 137;
}
);
unicode = 012B;
},
{
glyphname = Iogonek;
layers = (
{
hints = (
{
horizontal = 1;
place = "{-300, 99}";
type = Stem;
},
{
horizontal = 1;
place = "{-169, 89}";
type = Stem;
},
{
horizontal = 1;
place = "{686, -20}";
target = down;
type = TopGhost;
},
{
place = "{-178, 411}";
type = Stem;
}
);
layerId = "0D67ACED-73D3-49C3-92B3-C98855658409";
paths = (
{
nodes = (
"118 10 LINE",
"126 10 LINE",
"233 686 LINE",
"120 686 LINE",
"13 10 LINE",
"14 10 LINE",
"-2 -80 LINE",
"-140 -80 LINE",
"-178 -300 LINE",
"97 -300 LINE",
"114 -201 LINE",
"-62 -201 LINE",
"-59 -169 LINE",
"81 -169 LINE"
);
}
);
width = 137;
}
);
unicode = 012E;
},
{
glyphname = iogonek;
layers = (
{
hints = (
{
horizontal = 1;
place = "{-300, 99}";
type = Stem;
},
{
horizontal = 1;
place = "{-169, 89}";
type = Stem;
},
{
horizontal = 1;
place = "{686, -20}";
target = down;
type = TopGhost;
},
{
place = "{-178, 411}";
type = Stem;
}
);
layerId = "0D67ACED-73D3-49C3-92B3-C98855658409";
paths = (
{
nodes = (
"118 10 LINE",
"126 10 LINE",
"233 686 LINE",
"120 686 LINE",
"13 10 LINE",
"14 10 LINE",
"-2 -80 LINE",
"-140 -80 LINE",
"-178 -300 LINE",
"97 -300 LINE",
"114 -201 LINE",
"-62 -201 LINE",
"-59 -169 LINE",
"81 -169 LINE"
);
}
);
width = 137;
}
);
unicode = 012F;
},
{
glyphname = Idotaccent;
layers = (
{
hints = (
{
horizontal = 1;
place = "{686, -20}";
target = down;
type = TopGhost;
},
{
horizontal = 1;
place = "{735, 132}";
type = Stem;
},
{
place = "{13, 266}";
type = Stem;
}
);
layerId = "0D67ACED-73D3-49C3-92B3-C98855658409";
paths = (
{
nodes = (
"13 10 LINE",
"126 10 LINE",
"233 686 LINE",
"120 686 LINE"
);
},
{
nodes = (
"118 735 LINE",
"257 735 LINE",
"279 867 LINE",
"140 867 LINE"
);
}
);
width = 137;
}
);
unicode = 0130;
},
{
glyphname = dotlessi;
layers = (
{
hints = (
{
horizontal = 1;
place = "{686, -20}";
target = down;
type = TopGhost;
},
{
place = "{13, 220}";
type = Stem;
}
);
layerId = "0D67ACED-73D3-49C3-92B3-C98855658409";
paths = (
{
nodes = (
"13 10 LINE",
"126 10 LINE",
"233 686 LINE",
"120 686 LINE"
);
}
);
width = 137;
}
);
unicode = 0131;
},
{
glyphname = uni0136;
layers = (
{
hints = (
{
horizontal = 1;
place = "{-210, 167}";
type = Stem;
},
{
horizontal = 1;
place = "{324, 97}";
type = Stem;
},
{
horizontal = 1;
place = "{686, -20}";
target = down;
type = TopGhost;
},
{
place = "{13, 506}";
type = Stem;
}
);
layerId = "0D67ACED-73D3-49C3-92B3-C98855658409";
paths = (
{
nodes = (
"247 -210 LINE",
"273 -43 LINE",
"160 -43 LINE",
"134 -210 LINE"
);
},
{
nodes = (
"186 390 LINE",
"233 686 LINE",
"120 686 LINE",
"13 10 LINE",
"126 10 LINE",
"164 248 LINE",
"271 324 LINE",
"350 324 LINE",
"300 10 LINE",
"412 10 LINE",
"477 421 LINE",
"407 421 LINE",
"486 477 LINE",
"519 686 LINE",
"397 686 LINE",
"370 514 LINE"
);
}
);
width = 423;
}
);
unicode = 0136;
},
{
glyphname = uni0137;
layers = (
{
hints = (
{
horizontal = 1;
place = "{-210, 167}";
type = Stem;
},
{
horizontal = 1;
place = "{324, 97}";
type = Stem;
},
{
horizontal = 1;
place = "{686, -20}";
target = down;
type = TopGhost;
},
{
place = "{13, 506}";
type = Stem;
}
);
layerId = "0D67ACED-73D3-49C3-92B3-C98855658409";
paths = (
{
nodes = (
"247 -210 LINE",
"273 -43 LINE",
"160 -43 LINE",
"134 -210 LINE"
);
},
{
nodes = (
"186 390 LINE",
"233 686 LINE",
"120 686 LINE",
"13 10 LINE",
"126 10 LINE",
"164 248 LINE",
"271 324 LINE",
"350 324 LINE",
"300 10 LINE",
"412 10 LINE",
"477 421 LINE",
"407 421 LINE",
"486 477 LINE",
"519 686 LINE",
"397 686 LINE",
"370 514 LINE"
);
}
);
width = 423;
}
);
unicode = 0137;
},
{
glyphname = Lacute;
layers = (
{
hints = (
{
horizontal = 1;
place = "{10, 123}";
type = Stem;
},
{
horizontal = 1;
place = "{686, -20}";
target = down;
type = TopGhost;
},
{
horizontal = 1;
place = "{726, 107}";
type = Stem;
},
{
place = "{13, 390}";
type = Stem;
}
);
layerId = "0D67ACED-73D3-49C3-92B3-C98855658409";
paths = (
{
nodes = (
"233 686 LINE",
"120 686 LINE",
"13 10 LINE",
"383 10 LINE",
"403 133 LINE",
"146 133 LINE"
);
},
{
nodes = (
"291 833 LINE",
"176 833 LINE",
"103 726 LINE",
"218 726 LINE"
);
}
);
width = 394;
}
);
unicode = 0139;
},
{
glyphname = lacute;
layers = (
{
hints = (
{
horizontal = 1;
place = "{10, 123}";
type = Stem;
},
{
horizontal = 1;
place = "{686, -20}";
target = down;
type = TopGhost;
},
{
horizontal = 1;
place = "{726, 107}";
type = Stem;
},
{
place = "{13, 390}";
type = Stem;
}
);
layerId = "0D67ACED-73D3-49C3-92B3-C98855658409";
paths = (
{
nodes = (
"233 686 LINE",
"120 686 LINE",
"13 10 LINE",
"383 10 LINE",
"403 133 LINE",
"146 133 LINE"
);
},
{
nodes = (
"291 833 LINE",
"176 833 LINE",
"103 726 LINE",
"218 726 LINE"
);
}
);
width = 394;
}
);
unicode = 013A;
},
{
glyphname = uni013B;
layers = (
{
hints = (
{
horizontal = 1;
place = "{-210, 167}";
type = Stem;
},
{
horizontal = 1;
place = "{10, 123}";
type = Stem;
},
{
horizontal = 1;
place = "{686, -20}";
target = down;
type = TopGhost;
},
{
place = "{13, 390}";
type = Stem;
}
);
layerId = "0D67ACED-73D3-49C3-92B3-C98855658409";
paths = (
{
nodes = (
"209 -210 LINE",
"235 -43 LINE",
"122 -43 LINE",
"96 -210 LINE"
);
},
{
nodes = (
"233 686 LINE",
"120 686 LINE",
"13 10 LINE",
"383 10 LINE",
"403 133 LINE",
"146 133 LINE"
);
}
);
width = 394;
}
);
unicode = 013B;
},
{
glyphname = uni013C;
layers = (
{
hints = (
{
horizontal = 1;
place = "{-210, 167}";
type = Stem;
},
{
horizontal = 1;
place = "{10, 123}";
type = Stem;
},
{
horizontal = 1;
place = "{686, -20}";
target = down;
type = TopGhost;
},
{
place = "{13, 390}";
type = Stem;
}
);
layerId = "0D67ACED-73D3-49C3-92B3-C98855658409";
paths = (
{
nodes = (
"209 -210 LINE",
"235 -43 LINE",
"122 -43 LINE",
"96 -210 LINE"
);
},
{
nodes = (
"233 686 LINE",
"120 686 LINE",
"13 10 LINE",
"383 10 LINE",
"403 133 LINE",
"146 133 LINE"
);
}
);
width = 394;
}
);
unicode = 013C;
},
{
glyphname = Lcaron;
layers = (
{
hints = (
{
horizontal = 1;
place = "{10, 123}";
type = Stem;
},
{
horizontal = 1;
place = "{686, -20}";
target = down;
type = TopGhost;
},
{
horizontal = 1;
place = "{730, 235}";
type = Stem;
},
{
place = "{13, 390}";
type = Stem;
}
);
layerId = "0D67ACED-73D3-49C3-92B3-C98855658409";
paths = (
{
nodes = (
"233 686 LINE",
"120 686 LINE",
"13 10 LINE",
"383 10 LINE",
"403 133 LINE",
"146 133 LINE"
);
},
{
nodes = (
"140 730 LINE",
"253 730 LINE",
"291 965 LINE",
"178 965 LINE"
);
}
);
width = 394;
}
);
unicode = 013D;
},
{
glyphname = lcaron;
layers = (
{
hints = (
{
horizontal = 1;
place = "{10, 123}";
type = Stem;
},
{
horizontal = 1;
place = "{451, 235}";
type = Stem;
},
{
place = "{13, 433}";
type = Stem;
}
);
layerId = "0D67ACED-73D3-49C3-92B3-C98855658409";
paths = (
{
nodes = (
"233 686 LINE",
"120 686 LINE",
"13 10 LINE",
"383 10 LINE",
"403 133 LINE",
"146 133 LINE"
);
},
{
nodes = (
"295 451 LINE",
"408 451 LINE",
"446 686 LINE",
"333 686 LINE"
);
}
);
width = 394;
}
);
unicode = 013E;
},
{
glyphname = Lslash;
layers = (
{
hints = (
{
horizontal = 1;
place = "{10, 123}";
type = Stem;
},
{
horizontal = 1;
place = "{318, 114}";
type = Stem;
},
{
horizontal = 1;
place = "{686, -20}";
target = down;
type = TopGhost;
},
{
place = "{81, 408}";
type = Stem;
}
);
layerId = "0D67ACED-73D3-49C3-92B3-C98855658409";
paths = (
{
nodes = (
"279 432 LINE",
"319 686 LINE",
"206 686 LINE",
"166 432 LINE",
"99 432 LINE",
"81 318 LINE",
"148 318 LINE",
"99 10 LINE",
"469 10 LINE",
"489 133 LINE",
"232 133 LINE",
"261 318 LINE",
"361 318 LINE",
"379 432 LINE"
);
}
);
width = 491;
}
);
unicode = 0141;
},
{
glyphname = lslash;
layers = (
{
hints = (
{
horizontal = 1;
place = "{10, 123}";
type = Stem;
},
{
horizontal = 1;
place = "{318, 114}";
type = Stem;
},
{
horizontal = 1;
place = "{686, -20}";
target = down;
type = TopGhost;
},
{
place = "{81, 408}";
type = Stem;
}
);
layerId = "0D67ACED-73D3-49C3-92B3-C98855658409";
paths = (
{
nodes = (
"279 432 LINE",
"319 686 LINE",
"206 686 LINE",
"166 432 LINE",
"99 432 LINE",
"81 318 LINE",
"148 318 LINE",
"99 10 LINE",
"469 10 LINE",
"489 133 LINE",
"232 133 LINE",
"261 318 LINE",
"361 318 LINE",
"379 432 LINE"
);
}
);
width = 491;
}
);
unicode = 0142;
},
{
glyphname = Nacute;
layers = (
{
hints = (
{
horizontal = 1;
place = "{569, 117}";
type = Stem;
},
{
horizontal = 1;
place = "{726, 107}";
type = Stem;
},
{
place = "{13, 486}";
type = Stem;
}
);
layerId = "0D67ACED-73D3-49C3-92B3-C98855658409";
paths = (
{
nodes = (
"275 569 LINE",
"376 495 LINE",
"299 10 LINE",
"411 10 LINE",
"499 563 LINE",
"321 686 LINE",
"120 686 LINE",
"13 10 LINE",
"126 10 LINE",
"215 569 LINE"
);
},
{
nodes = (
"408 833 LINE",
"293 833 LINE",
"220 726 LINE",
"335 726 LINE"
);
}
);
width = 422;
}
);
unicode = 0143;
},
{
glyphname = nacute;
layers = (
{
hints = (
{
horizontal = 1;
place = "{569, 117}";
type = Stem;
},
{
horizontal = 1;
place = "{726, 107}";
type = Stem;
},
{
place = "{13, 486}";
type = Stem;
}
);
layerId = "0D67ACED-73D3-49C3-92B3-C98855658409";
paths = (
{
nodes = (
"275 569 LINE",
"376 495 LINE",
"299 10 LINE",
"411 10 LINE",
"499 563 LINE",
"321 686 LINE",
"120 686 LINE",
"13 10 LINE",
"126 10 LINE",
"215 569 LINE"
);
},
{
nodes = (
"408 833 LINE",
"293 833 LINE",
"220 726 LINE",
"335 726 LINE"
);
}
);
width = 422;
}
);
unicode = 0144;
},
{
glyphname = uni0145;
layers = (
{
hints = (
{
horizontal = 1;
place = "{-210, 167}";
type = Stem;
},
{
horizontal = 1;
place = "{569, 117}";
type = Stem;
},
{
place = "{13, 486}";
type = Stem;
}
);
layerId = "0D67ACED-73D3-49C3-92B3-C98855658409";
paths = (
{
nodes = (
"209 -210 LINE",
"235 -43 LINE",
"122 -43 LINE",
"96 -210 LINE"
);
},
{
nodes = (
"275 569 LINE",
"376 495 LINE",
"299 10 LINE",
"411 10 LINE",
"499 563 LINE",
"321 686 LINE",
"120 686 LINE",
"13 10 LINE",
"126 10 LINE",
"215 569 LINE"
);
}
);
width = 422;
}
);
unicode = 0145;
},
{
glyphname = uni0146;
layers = (
{
hints = (
{
horizontal = 1;
place = "{-210, 167}";
type = Stem;
},
{
horizontal = 1;
place = "{569, 117}";
type = Stem;
},
{
place = "{13, 486}";
type = Stem;
}
);
layerId = "0D67ACED-73D3-49C3-92B3-C98855658409";
paths = (
{
nodes = (
"209 -210 LINE",
"235 -43 LINE",
"122 -43 LINE",
"96 -210 LINE"
);
},
{
nodes = (
"275 569 LINE",
"376 495 LINE",
"299 10 LINE",
"411 10 LINE",
"499 563 LINE",
"321 686 LINE",
"120 686 LINE",
"13 10 LINE",
"126 10 LINE",
"215 569 LINE"
);
}
);
width = 422;
}
);
unicode = 0146;
},
{
glyphname = Ncaron;
layers = (
{
hints = (
{
horizontal = 1;
place = "{569, 117}";
type = Stem;
},
{
horizontal = 1;
place = "{726, 107}";
type = Stem;
},
{
place = "{13, 486}";
type = Stem;
}
);
layerId = "0D67ACED-73D3-49C3-92B3-C98855658409";
paths = (
{
nodes = (
"275 569 LINE",
"376 495 LINE",
"299 10 LINE",
"411 10 LINE",
"499 563 LINE",
"321 686 LINE",
"120 686 LINE",
"13 10 LINE",
"126 10 LINE",
"215 569 LINE"
);
},
{
nodes = (
"476 833 LINE",
"361 833 LINE",
"320 771 LINE",
"278 831 LINE",
"168 831 LINE",
"243 726 LINE",
"403 726 LINE"
);
}
);
width = 422;
}
);
unicode = 0147;
},
{
glyphname = ncaron;
layers = (
{
hints = (
{
horizontal = 1;
place = "{569, 117}";
type = Stem;
},
{
horizontal = 1;
place = "{726, 107}";
type = Stem;
},
{
place = "{13, 486}";
type = Stem;
}
);
layerId = "0D67ACED-73D3-49C3-92B3-C98855658409";
paths = (
{
nodes = (
"275 569 LINE",
"376 495 LINE",
"299 10 LINE",
"411 10 LINE",
"499 563 LINE",
"321 686 LINE",
"120 686 LINE",
"13 10 LINE",
"126 10 LINE",
"215 569 LINE"
);
},
{
nodes = (
"476 833 LINE",
"361 833 LINE",
"320 771 LINE",
"278 831 LINE",
"168 831 LINE",
"243 726 LINE",
"403 726 LINE"
);
}
);
width = 422;
}
);
unicode = 0148;
},
{
glyphname = Ohungarumlaut;
layers = (
{
hints = (
{
horizontal = 1;
place = "{10, 123}";
type = Stem;
},
{
horizontal = 1;
place = "{569, 117}";
type = Stem;
},
{
horizontal = 1;
place = "{726, 107}";
type = Stem;
},
{
place = "{13, 508}";
type = Stem;
}
);
layerId = "0D67ACED-73D3-49C3-92B3-C98855658409";
paths = (
{
nodes = (
"120 686 LINE",
"13 10 LINE",
"412 10 LINE",
"519 686 LINE"
);
},
{
nodes = (
"319 133 LINE",
"145 133 LINE",
"214 569 LINE",
"388 569 LINE"
);
},
{
nodes = (
"352 833 LINE",
"237 833 LINE",
"164 726 LINE",
"279 726 LINE"
);
},
{
nodes = (
"521 833 LINE",
"406 833 LINE",
"333 726 LINE",
"448 726 LINE"
);
}
);
width = 423;
}
);
unicode = 0150;
},
{
glyphname = ohungarumlaut;
layers = (
{
hints = (
{
horizontal = 1;
place = "{10, 123}";
type = Stem;
},
{
horizontal = 1;
place = "{569, 117}";
type = Stem;
},
{
horizontal = 1;
place = "{726, 107}";
type = Stem;
},
{
place = "{13, 508}";
type = Stem;
}
);
layerId = "0D67ACED-73D3-49C3-92B3-C98855658409";
paths = (
{
nodes = (
"120 686 LINE",
"13 10 LINE",
"412 10 LINE",
"519 686 LINE"
);
},
{
nodes = (
"319 133 LINE",
"145 133 LINE",
"214 569 LINE",
"388 569 LINE"
);
},
{
nodes = (
"352 833 LINE",
"237 833 LINE",
"164 726 LINE",
"279 726 LINE"
);
},
{
nodes = (
"521 833 LINE",
"406 833 LINE",
"333 726 LINE",
"448 726 LINE"
);
}
);
width = 423;
}
);
unicode = 0151;
},
{
glyphname = OE;
layers = (
{
hints = (
{
horizontal = 1;
place = "{10, 123}";
type = Stem;
},
{
horizontal = 1;
place = "{569, 117}";
type = Stem;
},
{
place = "{13, 780}";
type = Stem;
}
);
layerId = "0D67ACED-73D3-49C3-92B3-C98855658409";
paths = (
{
nodes = (
"387 569 LINE",
"318 133 LINE",
"145 133 LINE",
"214 569 LINE"
);
},
{
nodes = (
"775 569 LINE",
"793 686 LINE",
"120 686 LINE",
"13 10 LINE",
"686 10 LINE",
"706 133 LINE",
"432 133 LINE",
"455 280 LINE",
"640 358 LINE",
"660 484 LINE",
"475 406 LINE",
"501 569 LINE"
);
}
);
width = 696;
}
);
unicode = 0152;
},
{
glyphname = oe;
layers = (
{
hints = (
{
horizontal = 1;
place = "{10, 123}";
type = Stem;
},
{
horizontal = 1;
place = "{569, 117}";
type = Stem;
},
{
place = "{13, 780}";
type = Stem;
}
);
layerId = "0D67ACED-73D3-49C3-92B3-C98855658409";
paths = (
{
nodes = (
"387 569 LINE",
"318 133 LINE",
"145 133 LINE",
"214 569 LINE"
);
},
{
nodes = (
"775 569 LINE",
"793 686 LINE",
"120 686 LINE",
"13 10 LINE",
"686 10 LINE",
"706 133 LINE",
"432 133 LINE",
"455 280 LINE",
"640 358 LINE",
"660 484 LINE",
"475 406 LINE",
"501 569 LINE"
);
}
);
width = 696;
}
);
unicode = 0153;
},
{
glyphname = Racute;
layers = (
{
hints = (
{
horizontal = 1;
place = "{281, 97}";
type = Stem;
},
{
horizontal = 1;
place = "{569, 117}";
type = Stem;
},
{
horizontal = 1;
place = "{726, 107}";
type = Stem;
},
{
place = "{13, 506}";
type = Stem;
}
);
layerId = "0D67ACED-73D3-49C3-92B3-C98855658409";
paths = (
{
nodes = (
"215 569 LINE",
"389 569 LINE",
"375 482 LINE",
"179 347 LINE"
);
},
{
nodes = (
"264 281 LINE",
"343 281 LINE",
"300 10 LINE",
"412 10 LINE",
"470 378 LINE",
"400 378 LINE",
"479 434 LINE",
"519 686 LINE",
"120 686 LINE",
"13 10 LINE",
"126 10 LINE",
"157 205 LINE"
);
},
{
nodes = (
"302 833 LINE",
"229 726 LINE",
"344 726 LINE",
"417 833 LINE"
);
}
);
width = 423;
}
);
unicode = 0154;
},
{
glyphname = racute;
layers = (
{
hints = (
{
horizontal = 1;
place = "{281, 97}";
type = Stem;
},
{
horizontal = 1;
place = "{569, 117}";
type = Stem;
},
{
horizontal = 1;
place = "{726, 107}";
type = Stem;
},
{
place = "{13, 506}";
type = Stem;
}
);
layerId = "0D67ACED-73D3-49C3-92B3-C98855658409";
paths = (
{
nodes = (
"215 569 LINE",
"389 569 LINE",
"375 482 LINE",
"179 347 LINE"
);
},
{
nodes = (
"264 281 LINE",
"343 281 LINE",
"300 10 LINE",
"412 10 LINE",
"470 378 LINE",
"400 378 LINE",
"479 434 LINE",
"519 686 LINE",
"120 686 LINE",
"13 10 LINE",
"126 10 LINE",
"157 205 LINE"
);
},
{
nodes = (
"302 833 LINE",
"229 726 LINE",
"344 726 LINE",
"417 833 LINE"
);
}
);
width = 423;
}
);
unicode = 0155;
},
{
glyphname = Rcaron;
layers = (
{
hints = (
{
horizontal = 1;
place = "{281, 97}";
type = Stem;
},
{
horizontal = 1;
place = "{569, 117}";
type = Stem;
},
{
horizontal = 1;
place = "{726, 107}";
type = Stem;
},
{
place = "{13, 506}";
type = Stem;
}
);
layerId = "0D67ACED-73D3-49C3-92B3-C98855658409";
paths = (
{
nodes = (
"215 569 LINE",
"389 569 LINE",
"375 482 LINE",
"179 347 LINE"
);
},
{
nodes = (
"264 281 LINE",
"343 281 LINE",
"300 10 LINE",
"412 10 LINE",
"470 378 LINE",
"400 378 LINE",
"479 434 LINE",
"519 686 LINE",
"120 686 LINE",
"13 10 LINE",
"126 10 LINE",
"157 205 LINE"
);
},
{
nodes = (
"362 833 LINE",
"321 771 LINE",
"279 831 LINE",
"169 831 LINE",
"244 726 LINE",
"404 726 LINE",
"477 833 LINE"
);
}
);
width = 423;
}
);
unicode = 0158;
},
{
glyphname = rcaron;
layers = (
{
hints = (
{
horizontal = 1;
place = "{281, 97}";
type = Stem;
},
{
horizontal = 1;
place = "{569, 117}";
type = Stem;
},
{
horizontal = 1;
place = "{726, 107}";
type = Stem;
},
{
place = "{13, 506}";
type = Stem;
}
);
layerId = "0D67ACED-73D3-49C3-92B3-C98855658409";
paths = (
{
nodes = (
"215 569 LINE",
"389 569 LINE",
"375 482 LINE",
"179 347 LINE"
);
},
{
nodes = (
"264 281 LINE",
"343 281 LINE",
"300 10 LINE",
"412 10 LINE",
"470 378 LINE",
"400 378 LINE",
"479 434 LINE",
"519 686 LINE",
"120 686 LINE",
"13 10 LINE",
"126 10 LINE",
"157 205 LINE"
);
},
{
nodes = (
"362 833 LINE",
"321 771 LINE",
"279 831 LINE",
"169 831 LINE",
"244 726 LINE",
"404 726 LINE",
"477 833 LINE"
);
}
);
width = 423;
}
);
unicode = 0159;
},
{
glyphname = Sacute;
layers = (
{
hints = (
{
horizontal = 1;
place = "{10, 123}";
type = Stem;
},
{
horizontal = 1;
place = "{569, 117}";
type = Stem;
},
{
horizontal = 1;
place = "{726, 107}";
type = Stem;
},
{
place = "{13, 506}";
type = Stem;
}
);
layerId = "0D67ACED-73D3-49C3-92B3-C98855658409";
paths = (
{
nodes = (
"199 472 LINE",
"215 569 LINE",
"387 569 LINE",
"370 467 LINE",
"492 516 LINE",
"519 686 LINE",
"120 686 LINE",
"76 405 LINE",
"337 253 LINE",
"318 133 LINE",
"145 133 LINE",
"161 239 LINE",
"49 239 LINE",
"13 10 LINE",
"412 10 LINE",
"462 323 LINE"
);
},
{
nodes = (
"437 833 LINE",
"322 833 LINE",
"249 726 LINE",
"364 726 LINE"
);
}
);
width = 423;
}
);
unicode = 015A;
},
{
glyphname = sacute;
layers = (
{
hints = (
{
horizontal = 1;
place = "{10, 123}";
type = Stem;
},
{
horizontal = 1;
place = "{569, 117}";
type = Stem;
},
{
horizontal = 1;
place = "{726, 107}";
type = Stem;
},
{
place = "{13, 506}";
type = Stem;
}
);
layerId = "0D67ACED-73D3-49C3-92B3-C98855658409";
paths = (
{
nodes = (
"199 472 LINE",
"215 569 LINE",
"387 569 LINE",
"370 467 LINE",
"492 516 LINE",
"519 686 LINE",
"120 686 LINE",
"76 405 LINE",
"337 253 LINE",
"318 133 LINE",
"145 133 LINE",
"161 239 LINE",
"49 239 LINE",
"13 10 LINE",
"412 10 LINE",
"462 323 LINE"
);
},
{
nodes = (
"437 833 LINE",
"322 833 LINE",
"249 726 LINE",
"364 726 LINE"
);
}
);
width = 423;
}
);
unicode = 015B;
},
{
glyphname = Scedilla;
layers = (
{
hints = (
{
horizontal = 1;
place = "{-301, 103}";
type = Stem;
},
{
horizontal = 1;
place = "{10, 123}";
type = Stem;
},
{
horizontal = 1;
place = "{569, 117}";
type = Stem;
},
{
place = "{13, 506}";
type = Stem;
}
);
layerId = "0D67ACED-73D3-49C3-92B3-C98855658409";
paths = (
{
nodes = (
"222 10 LINE",
"412 10 LINE",
"462 323 LINE",
"199 472 LINE",
"215 569 LINE",
"387 569 LINE",
"370 467 LINE",
"492 516 LINE",
"519 686 LINE",
"120 686 LINE",
"76 405 LINE",
"337 253 LINE",
"318 133 LINE",
"145 133 LINE",
"161 239 LINE",
"49 239 LINE",
"13 10 LINE",
"115 10 LINE",
"91 -119 LINE",
"248 -198 LINE",
"77 -198 LINE",
"59 -301 LINE",
"338 -301 LINE",
"365 -140 LINE",
"207 -63 LINE"
);
}
);
width = 423;
}
);
unicode = 015E;
},
{
glyphname = scedilla;
layers = (
{
hints = (
{
horizontal = 1;
place = "{-301, 103}";
type = Stem;
},
{
horizontal = 1;
place = "{10, 123}";
type = Stem;
},
{
horizontal = 1;
place = "{569, 117}";
type = Stem;
},
{
place = "{13, 506}";
type = Stem;
}
);
layerId = "0D67ACED-73D3-49C3-92B3-C98855658409";
paths = (
{
nodes = (
"222 10 LINE",
"412 10 LINE",
"462 323 LINE",
"199 472 LINE",
"215 569 LINE",
"387 569 LINE",
"370 467 LINE",
"492 516 LINE",
"519 686 LINE",
"120 686 LINE",
"76 405 LINE",
"337 253 LINE",
"318 133 LINE",
"145 133 LINE",
"161 239 LINE",
"49 239 LINE",
"13 10 LINE",
"115 10 LINE",
"91 -119 LINE",
"248 -198 LINE",
"77 -198 LINE",
"59 -301 LINE",
"338 -301 LINE",
"365 -140 LINE",
"207 -63 LINE"
);
}
);
width = 423;
}
);
unicode = 015F;
},
{
glyphname = Scaron;
layers = (
{
hints = (
{
horizontal = 1;
place = "{10, 123}";
type = Stem;
},
{
horizontal = 1;
place = "{569, 117}";
type = Stem;
},
{
horizontal = 1;
place = "{726, 107}";
type = Stem;
},
{
place = "{13, 506}";
type = Stem;
}
);
layerId = "0D67ACED-73D3-49C3-92B3-C98855658409";
paths = (
{
nodes = (
"199 472 LINE",
"215 569 LINE",
"387 569 LINE",
"370 467 LINE",
"492 516 LINE",
"519 686 LINE",
"120 686 LINE",
"76 405 LINE",
"337 253 LINE",
"318 133 LINE",
"145 133 LINE",
"161 239 LINE",
"49 239 LINE",
"13 10 LINE",
"412 10 LINE",
"462 323 LINE"
);
},
{
nodes = (
"470 833 LINE",
"355 833 LINE",
"314 771 LINE",
"272 831 LINE",
"162 831 LINE",
"237 726 LINE",
"397 726 LINE"
);
}
);
width = 423;
}
);
unicode = 0160;
},
{
glyphname = scaron;
layers = (
{
hints = (
{
horizontal = 1;
place = "{10, 123}";
type = Stem;
},
{
horizontal = 1;
place = "{569, 117}";
type = Stem;
},
{
horizontal = 1;
place = "{726, 107}";
type = Stem;
},
{
place = "{13, 506}";
type = Stem;
}
);
layerId = "0D67ACED-73D3-49C3-92B3-C98855658409";
paths = (
{
nodes = (
"199 472 LINE",
"215 569 LINE",
"387 569 LINE",
"370 467 LINE",
"492 516 LINE",
"519 686 LINE",
"120 686 LINE",
"76 405 LINE",
"337 253 LINE",
"318 133 LINE",
"145 133 LINE",
"161 239 LINE",
"49 239 LINE",
"13 10 LINE",
"412 10 LINE",
"462 323 LINE"
);
},
{
nodes = (
"470 833 LINE",
"355 833 LINE",
"314 771 LINE",
"272 831 LINE",
"162 831 LINE",
"237 726 LINE",
"397 726 LINE"
);
}
);
width = 423;
}
);
unicode = 0161;
},
{
glyphname = uni0162;
layers = (
{
hints = (
{
horizontal = 1;
place = "{-210, 167}";
type = Stem;
},
{
horizontal = 1;
place = "{569, 117}";
type = Stem;
},
{
place = "{96, 377}";
type = Stem;
}
);
layerId = "0D67ACED-73D3-49C3-92B3-C98855658409";
paths = (
{
nodes = (
"209 -210 LINE",
"235 -43 LINE",
"122 -43 LINE",
"96 -210 LINE"
);
},
{
nodes = (
"102 569 LINE",
"224 569 LINE",
"135 10 LINE",
"248 10 LINE",
"337 569 LINE",
"455 569 LINE",
"473 686 LINE",
"120 686 LINE"
);
}
);
width = 377;
}
);
unicode = 0162;
},
{
glyphname = uni0163;
layers = (
{
hints = (
{
horizontal = 1;
place = "{-210, 167}";
type = Stem;
},
{
horizontal = 1;
place = "{569, 117}";
type = Stem;
},
{
place = "{96, 377}";
type = Stem;
}
);
layerId = "0D67ACED-73D3-49C3-92B3-C98855658409";
paths = (
{
nodes = (
"209 -210 LINE",
"235 -43 LINE",
"122 -43 LINE",
"96 -210 LINE"
);
},
{
nodes = (
"102 569 LINE",
"224 569 LINE",
"135 10 LINE",
"248 10 LINE",
"337 569 LINE",
"455 569 LINE",
"473 686 LINE",
"120 686 LINE"
);
}
);
width = 377;
}
);
unicode = 0163;
},
{
glyphname = Tcaron;
layers = (
{
hints = (
{
horizontal = 1;
place = "{569, 117}";
type = Stem;
},
{
horizontal = 1;
place = "{729, 107}";
type = Stem;
},
{
place = "{102, 371}";
type = Stem;
}
);
layerId = "0D67ACED-73D3-49C3-92B3-C98855658409";
paths = (
{
nodes = (
"102 569 LINE",
"224 569 LINE",
"135 10 LINE",
"248 10 LINE",
"337 569 LINE",
"455 569 LINE",
"473 686 LINE",
"120 686 LINE"
);
},
{
nodes = (
"448 836 LINE",
"333 836 LINE",
"292 774 LINE",
"250 834 LINE",
"140 834 LINE",
"215 729 LINE",
"375 729 LINE"
);
}
);
width = 377;
}
);
unicode = 0164;
},
{
glyphname = tcaron;
layers = (
{
hints = (
{
horizontal = 1;
place = "{569, 117}";
type = Stem;
},
{
place = "{102, 555}";
type = Stem;
}
);
layerId = "0D67ACED-73D3-49C3-92B3-C98855658409";
paths = (
{
nodes = (
"102 569 LINE",
"224 569 LINE",
"135 10 LINE",
"248 10 LINE",
"337 569 LINE",
"455 569 LINE",
"473 686 LINE",
"120 686 LINE"
);
},
{
nodes = (
"506 451 LINE",
"619 451 LINE",
"657 686 LINE",
"544 686 LINE"
);
}
);
width = 601;
}
);
unicode = 0165;
},
{
glyphname = Umacron;
layers = (
{
hints = (
{
horizontal = 1;
place = "{10, 123}";
type = Stem;
},
{
horizontal = 1;
place = "{686, -20}";
target = down;
type = TopGhost;
},
{
horizontal = 1;
place = "{727, 114}";
type = Stem;
},
{
place = "{13, 506}";
type = Stem;
}
);
layerId = "0D67ACED-73D3-49C3-92B3-C98855658409";
paths = (
{
nodes = (
"319 133 LINE",
"145 133 LINE",
"232 686 LINE",
"120 686 LINE",
"13 10 LINE",
"412 10 LINE",
"519 686 LINE",
"406 686 LINE"
);
},
{
nodes = (
"461 841 LINE",
"181 841 LINE",
"163 727 LINE",
"443 727 LINE"
);
}
);
width = 423;
}
);
unicode = 016A;
},
{
glyphname = umacron;
layers = (
{
hints = (
{
horizontal = 1;
place = "{10, 123}";
type = Stem;
},
{
horizontal = 1;
place = "{686, -20}";
target = down;
type = TopGhost;
},
{
horizontal = 1;
place = "{727, 114}";
type = Stem;
},
{
place = "{13, 506}";
type = Stem;
}
);
layerId = "0D67ACED-73D3-49C3-92B3-C98855658409";
paths = (
{
nodes = (
"319 133 LINE",
"145 133 LINE",
"232 686 LINE",
"120 686 LINE",
"13 10 LINE",
"412 10 LINE",
"519 686 LINE",
"406 686 LINE"
);
},
{
nodes = (
"461 841 LINE",
"181 841 LINE",
"163 727 LINE",
"443 727 LINE"
);
}
);
width = 423;
}
);
unicode = 016B;
},
{
glyphname = Uring;
layers = (
{
hints = (
{
horizontal = 1;
place = "{10, 123}";
type = Stem;
},
{
horizontal = 1;
place = "{686, -20}";
target = down;
type = TopGhost;
},
{
horizontal = 1;
place = "{725, 66}";
type = Stem;
},
{
horizontal = 1;
place = "{861, 67}";
type = Stem;
},
{
place = "{232, 63}";
type = Stem;
},
{
place = "{366, 66}";
type = Stem;
}
);
layerId = "0D67ACED-73D3-49C3-92B3-C98855658409";
paths = (
{
nodes = (
"232 770 OFFCURVE",
"275 725 OFFCURVE",
"332 725 CURVE SMOOTH",
"387 725 OFFCURVE",
"432 770 OFFCURVE",
"432 826 CURVE SMOOTH",
"432 882 OFFCURVE",
"387 928 OFFCURVE",
"332 928 CURVE SMOOTH",
"275 928 OFFCURVE",
"232 882 OFFCURVE",
"232 826 CURVE SMOOTH"
);
},
{
nodes = (
"295 846 OFFCURVE",
"311 861 OFFCURVE",
"330 861 CURVE SMOOTH",
"351 861 OFFCURVE",
"366 846 OFFCURVE",
"366 826 CURVE SMOOTH",
"366 806 OFFCURVE",
"351 791 OFFCURVE",
"330 791 CURVE SMOOTH",
"311 791 OFFCURVE",
"295 806 OFFCURVE",
"295 826 CURVE SMOOTH"
);
},
{
nodes = (
"319 133 LINE",
"145 133 LINE",
"232 686 LINE",
"120 686 LINE",
"13 10 LINE",
"412 10 LINE",
"519 686 LINE",
"406 686 LINE"
);
}
);
width = 423;
}
);
unicode = 016E;
},
{
glyphname = uring;
layers = (
{
hints = (
{
horizontal = 1;
place = "{10, 123}";
type = Stem;
},
{
horizontal = 1;
place = "{686, -20}";
target = down;
type = TopGhost;
},
{
horizontal = 1;
place = "{725, 66}";
type = Stem;
},
{
horizontal = 1;
place = "{861, 67}";
type = Stem;
},
{
place = "{232, 63}";
type = Stem;
},
{
place = "{366, 66}";
type = Stem;
}
);
layerId = "0D67ACED-73D3-49C3-92B3-C98855658409";
paths = (
{
nodes = (
"232 770 OFFCURVE",
"275 725 OFFCURVE",
"332 725 CURVE SMOOTH",
"387 725 OFFCURVE",
"432 770 OFFCURVE",
"432 826 CURVE SMOOTH",
"432 882 OFFCURVE",
"387 928 OFFCURVE",
"332 928 CURVE SMOOTH",
"275 928 OFFCURVE",
"232 882 OFFCURVE",
"232 826 CURVE SMOOTH"
);
},
{
nodes = (
"295 846 OFFCURVE",
"311 861 OFFCURVE",
"330 861 CURVE SMOOTH",
"351 861 OFFCURVE",
"366 846 OFFCURVE",
"366 826 CURVE SMOOTH",
"366 806 OFFCURVE",
"351 791 OFFCURVE",
"330 791 CURVE SMOOTH",
"311 791 OFFCURVE",
"295 806 OFFCURVE",
"295 826 CURVE SMOOTH"
);
},
{
nodes = (
"319 133 LINE",
"145 133 LINE",
"232 686 LINE",
"120 686 LINE",
"13 10 LINE",
"412 10 LINE",
"519 686 LINE",
"406 686 LINE"
);
}
);
width = 423;
}
);
unicode = 016F;
},
{
glyphname = Uhungarumlaut;
layers = (
{
hints = (
{
horizontal = 1;
place = "{10, 123}";
type = Stem;
},
{
horizontal = 1;
place = "{686, -20}";
target = down;
type = TopGhost;
},
{
horizontal = 1;
place = "{726, 107}";
type = Stem;
},
{
place = "{13, 510}";
type = Stem;
}
);
layerId = "0D67ACED-73D3-49C3-92B3-C98855658409";
paths = (
{
nodes = (
"319 133 LINE",
"145 133 LINE",
"232 686 LINE",
"120 686 LINE",
"13 10 LINE",
"412 10 LINE",
"519 686 LINE",
"406 686 LINE"
);
},
{
nodes = (
"354 833 LINE",
"239 833 LINE",
"166 726 LINE",
"281 726 LINE"
);
},
{
nodes = (
"523 833 LINE",
"408 833 LINE",
"335 726 LINE",
"450 726 LINE"
);
}
);
width = 423;
}
);
unicode = 0170;
},
{
glyphname = uhungarumlaut;
layers = (
{
hints = (
{
horizontal = 1;
place = "{10, 123}";
type = Stem;
},
{
horizontal = 1;
place = "{686, -20}";
target = down;
type = TopGhost;
},
{
horizontal = 1;
place = "{726, 107}";
type = Stem;
},
{
place = "{13, 510}";
type = Stem;
}
);
layerId = "0D67ACED-73D3-49C3-92B3-C98855658409";
paths = (
{
nodes = (
"319 133 LINE",
"145 133 LINE",
"232 686 LINE",
"120 686 LINE",
"13 10 LINE",
"412 10 LINE",
"519 686 LINE",
"406 686 LINE"
);
},
{
nodes = (
"354 833 LINE",
"239 833 LINE",
"166 726 LINE",
"281 726 LINE"
);
},
{
nodes = (
"523 833 LINE",
"408 833 LINE",
"335 726 LINE",
"450 726 LINE"
);
}
);
width = 423;
}
);
unicode = 0171;
},
{
glyphname = Uogonek;
layers = (
{
hints = (
{
horizontal = 1;
place = "{-300, 99}";
type = Stem;
},
{
horizontal = 1;
place = "{-169, 89}";
type = Stem;
},
{
horizontal = 1;
place = "{10, 123}";
type = Stem;
},
{
horizontal = 1;
place = "{686, -20}";
target = down;
type = TopGhost;
},
{
place = "{-31, 550}";
type = Stem;
}
);
layerId = "0D67ACED-73D3-49C3-92B3-C98855658409";
paths = (
{
nodes = (
"265 10 LINE",
"412 10 LINE",
"519 686 LINE",
"406 686 LINE",
"319 133 LINE",
"145 133 LINE",
"232 686 LINE",
"120 686 LINE",
"13 10 LINE",
"161 10 LINE",
"145 -80 LINE",
"7 -80 LINE",
"-31 -300 LINE",
"244 -300 LINE",
"261 -201 LINE",
"85 -201 LINE",
"88 -169 LINE",
"228 -169 LINE"
);
}
);
width = 423;
}
);
unicode = 0172;
},
{
glyphname = uogonek;
layers = (
{
hints = (
{
horizontal = 1;
place = "{-300, 99}";
type = Stem;
},
{
horizontal = 1;
place = "{-169, 89}";
type = Stem;
},
{
horizontal = 1;
place = "{10, 123}";
type = Stem;
},
{
horizontal = 1;
place = "{686, -20}";
target = down;
type = TopGhost;
},
{
place = "{-31, 550}";
type = Stem;
}
);
layerId = "0D67ACED-73D3-49C3-92B3-C98855658409";
paths = (
{
nodes = (
"265 10 LINE",
"412 10 LINE",
"519 686 LINE",
"406 686 LINE",
"319 133 LINE",
"145 133 LINE",
"232 686 LINE",
"120 686 LINE",
"13 10 LINE",
"161 10 LINE",
"145 -80 LINE",
"7 -80 LINE",
"-31 -300 LINE",
"244 -300 LINE",
"261 -201 LINE",
"85 -201 LINE",
"88 -169 LINE",
"228 -169 LINE"
);
}
);
width = 423;
}
);
unicode = 0173;
},
{
glyphname = Wcircumflex;
layers = (
{
hints = (
{
horizontal = 1;
place = "{10, 116}";
type = Stem;
},
{
horizontal = 1;
place = "{686, -20}";
target = down;
type = TopGhost;
},
{
horizontal = 1;
place = "{726, 107}";
type = Stem;
},
{
place = "{13, 694}";
type = Stem;
}
);
layerId = "0D67ACED-73D3-49C3-92B3-C98855658409";
paths = (
{
nodes = (
"266 126 LINE",
"144 126 LINE",
"233 686 LINE",
"120 686 LINE",
"13 10 LINE",
"403 10 LINE",
"619 132 LINE",
"707 686 LINE",
"595 686 LINE",
"518 200 LINE",
"393 126 LINE",
"379 126 LINE",
"468 686 LINE",
"355 686 LINE"
);
},
{
nodes = (
"505 833 LINE",
"345 833 LINE",
"270 728 LINE",
"380 728 LINE",
"422 788 LINE",
"463 726 LINE",
"578 726 LINE"
);
}
);
width = 611;
}
);
unicode = 0174;
},
{
glyphname = wcircumflex;
layers = (
{
hints = (
{
horizontal = 1;
place = "{10, 116}";
type = Stem;
},
{
horizontal = 1;
place = "{686, -20}";
target = down;
type = TopGhost;
},
{
horizontal = 1;
place = "{726, 107}";
type = Stem;
},
{
place = "{13, 694}";
type = Stem;
}
);
layerId = "0D67ACED-73D3-49C3-92B3-C98855658409";
paths = (
{
nodes = (
"266 126 LINE",
"144 126 LINE",
"233 686 LINE",
"120 686 LINE",
"13 10 LINE",
"403 10 LINE",
"619 132 LINE",
"707 686 LINE",
"595 686 LINE",
"518 200 LINE",
"393 126 LINE",
"379 126 LINE",
"468 686 LINE",
"355 686 LINE"
);
},
{
nodes = (
"505 833 LINE",
"345 833 LINE",
"270 728 LINE",
"380 728 LINE",
"422 788 LINE",
"463 726 LINE",
"578 726 LINE"
);
}
);
width = 611;
}
);
unicode = 0175;
},
{
glyphname = Ycircumflex;
layers = (
{
hints = (
{
horizontal = 1;
place = "{686, -20}";
target = down;
type = TopGhost;
},
{
horizontal = 1;
place = "{726, 107}";
type = Stem;
},
{
place = "{76, 427}";
type = Stem;
}
);
layerId = "0D67ACED-73D3-49C3-92B3-C98855658409";
paths = (
{
nodes = (
"199 474 LINE",
"232 686 LINE",
"120 686 LINE",
"76 410 LINE",
"194 313 LINE",
"146 10 LINE",
"260 10 LINE",
"308 314 LINE",
"459 410 LINE",
"503 686 LINE",
"391 686 LINE",
"358 474 LINE",
"269 420 LINE"
);
},
{
nodes = (
"389 833 LINE",
"229 833 LINE",
"154 728 LINE",
"264 728 LINE",
"306 788 LINE",
"347 726 LINE",
"462 726 LINE"
);
}
);
width = 407;
}
);
unicode = 0176;
},
{
glyphname = ycircumflex;
layers = (
{
hints = (
{
horizontal = 1;
place = "{686, -20}";
target = down;
type = TopGhost;
},
{
horizontal = 1;
place = "{726, 107}";
type = Stem;
},
{
place = "{76, 427}";
type = Stem;
}
);
layerId = "0D67ACED-73D3-49C3-92B3-C98855658409";
paths = (
{
nodes = (
"199 474 LINE",
"232 686 LINE",
"120 686 LINE",
"76 410 LINE",
"194 313 LINE",
"146 10 LINE",
"260 10 LINE",
"308 314 LINE",
"459 410 LINE",
"503 686 LINE",
"391 686 LINE",
"358 474 LINE",
"269 420 LINE"
);
},
{
nodes = (
"389 833 LINE",
"229 833 LINE",
"154 728 LINE",
"264 728 LINE",
"306 788 LINE",
"347 726 LINE",
"462 726 LINE"
);
}
);
width = 407;
}
);
unicode = 0177;
},
{
glyphname = Ydieresis;
layers = (
{
hints = (
{
horizontal = 1;
place = "{686, -20}";
target = down;
type = TopGhost;
},
{
place = "{76, 427}";
type = Stem;
}
);
layerId = "0D67ACED-73D3-49C3-92B3-C98855658409";
paths = (
{
nodes = (
"199 474 LINE",
"232 686 LINE",
"120 686 LINE",
"76 410 LINE",
"194 313 LINE",
"146 10 LINE",
"260 10 LINE",
"308 314 LINE",
"459 410 LINE",
"503 686 LINE",
"391 686 LINE",
"358 474 LINE",
"269 420 LINE"
);
}
);
width = 407;
}
);
unicode = 0178;
},
{
glyphname = Zacute;
layers = (
{
hints = (
{
horizontal = 1;
place = "{10, 123}";
type = Stem;
},
{
horizontal = 1;
place = "{569, 117}";
type = Stem;
},
{
horizontal = 1;
place = "{726, 107}";
type = Stem;
},
{
place = "{13, 506}";
type = Stem;
}
);
layerId = "0D67ACED-73D3-49C3-92B3-C98855658409";
paths = (
{
nodes = (
"102 569 LINE",
"366 569 LINE",
"32 132 LINE",
"13 10 LINE",
"412 10 LINE",
"433 133 LINE",
"175 133 LINE",
"501 569 LINE",
"519 686 LINE",
"120 686 LINE"
);
},
{
nodes = (
"433 833 LINE",
"318 833 LINE",
"245 726 LINE",
"360 726 LINE"
);
}
);
width = 424;
}
);
unicode = 0179;
},
{
glyphname = zacute;
layers = (
{
hints = (
{
horizontal = 1;
place = "{10, 123}";
type = Stem;
},
{
horizontal = 1;
place = "{569, 117}";
type = Stem;
},
{
horizontal = 1;
place = "{726, 107}";
type = Stem;
},
{
place = "{13, 506}";
type = Stem;
}
);
layerId = "0D67ACED-73D3-49C3-92B3-C98855658409";
paths = (
{
nodes = (
"102 569 LINE",
"366 569 LINE",
"32 132 LINE",
"13 10 LINE",
"412 10 LINE",
"433 133 LINE",
"175 133 LINE",
"501 569 LINE",
"519 686 LINE",
"120 686 LINE"
);
},
{
nodes = (
"433 833 LINE",
"318 833 LINE",
"245 726 LINE",
"360 726 LINE"
);
}
);
width = 424;
}
);
unicode = 017A;
},
{
glyphname = Zdotaccent;
layers = (
{
hints = (
{
horizontal = 1;
place = "{10, 123}";
type = Stem;
},
{
horizontal = 1;
place = "{569, 117}";
type = Stem;
},
{
horizontal = 1;
place = "{727, 132}";
type = Stem;
},
{
place = "{13, 506}";
type = Stem;
}
);
layerId = "0D67ACED-73D3-49C3-92B3-C98855658409";
paths = (
{
nodes = (
"102 569 LINE",
"366 569 LINE",
"32 132 LINE",
"13 10 LINE",
"412 10 LINE",
"433 133 LINE",
"175 133 LINE",
"501 569 LINE",
"519 686 LINE",
"120 686 LINE"
);
},
{
nodes = (
"222 727 LINE",
"361 727 LINE",
"383 859 LINE",
"244 859 LINE"
);
}
);
width = 424;
}
);
unicode = 017B;
},
{
glyphname = zdotaccent;
layers = (
{
hints = (
{
horizontal = 1;
place = "{10, 123}";
type = Stem;
},
{
horizontal = 1;
place = "{569, 117}";
type = Stem;
},
{
horizontal = 1;
place = "{727, 132}";
type = Stem;
},
{
place = "{13, 506}";
type = Stem;
}
);
layerId = "0D67ACED-73D3-49C3-92B3-C98855658409";
paths = (
{
nodes = (
"102 569 LINE",
"366 569 LINE",
"32 132 LINE",
"13 10 LINE",
"412 10 LINE",
"433 133 LINE",
"175 133 LINE",
"501 569 LINE",
"519 686 LINE",
"120 686 LINE"
);
},
{
nodes = (
"222 727 LINE",
"361 727 LINE",
"383 859 LINE",
"244 859 LINE"
);
}
);
width = 424;
}
);
unicode = 017C;
},
{
glyphname = Zcaron;
layers = (
{
hints = (
{
horizontal = 1;
place = "{10, 123}";
type = Stem;
},
{
horizontal = 1;
place = "{569, 117}";
type = Stem;
},
{
place = "{13, 506}";
type = Stem;
}
);
layerId = "0D67ACED-73D3-49C3-92B3-C98855658409";
paths = (
{
nodes = (
"102 569 LINE",
"366 569 LINE",
"32 132 LINE",
"13 10 LINE",
"412 10 LINE",
"433 133 LINE",
"175 133 LINE",
"501 569 LINE",
"519 686 LINE",
"120 686 LINE"
);
}
);
width = 424;
}
);
unicode = 017D;
},
{
glyphname = zcaron;
layers = (
{
hints = (
{
horizontal = 1;
place = "{10, 123}";
type = Stem;
},
{
horizontal = 1;
place = "{569, 117}";
type = Stem;
},
{
place = "{13, 506}";
type = Stem;
}
);
layerId = "0D67ACED-73D3-49C3-92B3-C98855658409";
paths = (
{
nodes = (
"102 569 LINE",
"366 569 LINE",
"32 132 LINE",
"13 10 LINE",
"412 10 LINE",
"433 133 LINE",
"175 133 LINE",
"501 569 LINE",
"519 686 LINE",
"120 686 LINE"
);
}
);
width = 424;
}
);
unicode = 017E;
},
{
glyphname = uni0218;
layers = (
{
hints = (
{
horizontal = 1;
place = "{10, 123}";
type = Stem;
},
{
horizontal = 1;
place = "{569, 117}";
type = Stem;
},
{
place = "{13, 506}";
type = Stem;
}
);
layerId = "0D67ACED-73D3-49C3-92B3-C98855658409";
paths = (
{
nodes = (
"199 472 LINE",
"215 569 LINE",
"387 569 LINE",
"370 467 LINE",
"492 516 LINE",
"519 686 LINE",
"120 686 LINE",
"76 405 LINE",
"337 253 LINE",
"318 133 LINE",
"145 133 LINE",
"161 239 LINE",
"49 239 LINE",
"13 10 LINE",
"412 10 LINE",
"462 323 LINE"
);
}
);
width = 423;
}
);
unicode = 0218;
},
{
glyphname = uni0219;
layers = (
{
hints = (
{
horizontal = 1;
place = "{10, 123}";
type = Stem;
},
{
horizontal = 1;
place = "{569, 117}";
type = Stem;
},
{
place = "{13, 506}";
type = Stem;
}
);
layerId = "0D67ACED-73D3-49C3-92B3-C98855658409";
paths = (
{
nodes = (
"199 472 LINE",
"215 569 LINE",
"387 569 LINE",
"370 467 LINE",
"492 516 LINE",
"519 686 LINE",
"120 686 LINE",
"76 405 LINE",
"337 253 LINE",
"318 133 LINE",
"145 133 LINE",
"161 239 LINE",
"49 239 LINE",
"13 10 LINE",
"412 10 LINE",
"462 323 LINE"
);
}
);
width = 423;
}
);
unicode = 0219;
},
{
glyphname = circumflex;
layers = (
{
hints = (
{
horizontal = 1;
place = "{726, 107}";
type = Stem;
},
{
place = "{127, 308}";
type = Stem;
}
);
layerId = "0D67ACED-73D3-49C3-92B3-C98855658409";
paths = (
{
nodes = (
"362 833 LINE",
"202 833 LINE",
"127 728 LINE",
"237 728 LINE",
"279 788 LINE",
"320 726 LINE",
"435 726 LINE"
);
}
);
width = 833;
}
);
unicode = 02C6;
},
{
glyphname = caron;
layers = (
{
hints = (
{
horizontal = 1;
place = "{726, 107}";
type = Stem;
},
{
place = "{127, 308}";
type = Stem;
}
);
layerId = "0D67ACED-73D3-49C3-92B3-C98855658409";
paths = (
{
nodes = (
"435 833 LINE",
"320 833 LINE",
"279 771 LINE",
"237 831 LINE",
"127 831 LINE",
"202 726 LINE",
"362 726 LINE"
);
}
);
width = 833;
}
);
unicode = 02C7;
},
{
glyphname = breve;
layers = (
{
hints = (
{
horizontal = 1;
place = "{711, 129}";
type = Stem;
},
{
place = "{123, 278}";
type = Stem;
}
);
layerId = "0D67ACED-73D3-49C3-92B3-C98855658409";
paths = (
{
nodes = (
"238 802 OFFCURVE",
"219 817 OFFCURVE",
"216 840 CURVE",
"123 840 LINE",
"126 767 OFFCURVE",
"185 711 OFFCURVE",
"261 711 CURVE SMOOTH",
"337 711 OFFCURVE",
"396 767 OFFCURVE",
"401 840 CURVE",
"306 840 LINE",
"303 817 OFFCURVE",
"284 802 OFFCURVE",
"261 802 CURVE SMOOTH"
);
}
);
width = 424;
}
);
unicode = 02D8;
},
{
glyphname = dotaccent;
layers = (
{
hints = (
{
horizontal = 1;
place = "{727, 132}";
type = Stem;
},
{
place = "{244, 161}";
type = Stem;
}
);
layerId = "0D67ACED-73D3-49C3-92B3-C98855658409";
paths = (
{
nodes = (
"244 727 LINE",
"383 727 LINE",
"405 859 LINE",
"266 859 LINE"
);
}
);
width = 833;
}
);
unicode = 02D9;
},
{
glyphname = ring;
layers = (
{
hints = (
{
horizontal = 1;
place = "{725, 66}";
type = Stem;
},
{
horizontal = 1;
place = "{861, 67}";
type = Stem;
},
{
place = "{121, 63}";
type = Stem;
},
{
place = "{255, 66}";
type = Stem;
}
);
layerId = "0D67ACED-73D3-49C3-92B3-C98855658409";
paths = (
{
nodes = (
"121 770 OFFCURVE",
"164 725 OFFCURVE",
"221 725 CURVE SMOOTH",
"276 725 OFFCURVE",
"321 770 OFFCURVE",
"321 826 CURVE SMOOTH",
"321 882 OFFCURVE",
"276 928 OFFCURVE",
"221 928 CURVE SMOOTH",
"164 928 OFFCURVE",
"121 882 OFFCURVE",
"121 826 CURVE SMOOTH"
);
},
{
nodes = (
"184 846 OFFCURVE",
"200 861 OFFCURVE",
"219 861 CURVE SMOOTH",
"240 861 OFFCURVE",
"255 846 OFFCURVE",
"255 826 CURVE SMOOTH",
"255 806 OFFCURVE",
"240 791 OFFCURVE",
"219 791 CURVE SMOOTH",
"200 791 OFFCURVE",
"184 806 OFFCURVE",
"184 826 CURVE SMOOTH"
);
}
);
width = 358;
}
);
unicode = 02DA;
},
{
glyphname = ogonek;
layers = (
{
hints = (
{
horizontal = 1;
place = "{-300, 99}";
type = Stem;
},
{
horizontal = 1;
place = "{-169, 89}";
type = Stem;
},
{
place = "{-2, 296}";
type = Stem;
}
);
layerId = "0D67ACED-73D3-49C3-92B3-C98855658409";
paths = (
{
nodes = (
"257 -169 LINE",
"294 10 LINE",
"190 10 LINE",
"174 -80 LINE",
"36 -80 LINE",
"-2 -300 LINE",
"273 -300 LINE",
"290 -201 LINE",
"114 -201 LINE",
"117 -169 LINE"
);
}
);
width = 396;
}
);
unicode = 02DB;
},
{
glyphname = tilde;
layers = (
{
hints = (
{
horizontal = 1;
place = "{730, 101}";
type = Stem;
},
{
horizontal = 1;
place = "{777, 100}";
type = Stem;
},
{
place = "{106, 383}";
type = Stem;
}
);
layerId = "0D67ACED-73D3-49C3-92B3-C98855658409";
paths = (
{
nodes = (
"429 876 LINE",
"412 849 OFFCURVE",
"388 831 OFFCURVE",
"359 831 CURVE SMOOTH",
"319 831 OFFCURVE",
"301 877 OFFCURVE",
"237 877 CURVE SMOOTH",
"186 877 OFFCURVE",
"138 845 OFFCURVE",
"106 798 CURVE",
"165 733 LINE",
"182 757 OFFCURVE",
"207 777 OFFCURVE",
"235 777 CURVE SMOOTH",
"277 777 OFFCURVE",
"294 730 OFFCURVE",
"361 730 CURVE SMOOTH",
"412 730 OFFCURVE",
"458 763 OFFCURVE",
"489 810 CURVE"
);
}
);
width = 543;
}
);
unicode = 02DC;
},
{
glyphname = hungarumlaut;
layers = (
{
hints = (
{
horizontal = 1;
place = "{726, 107}";
type = Stem;
},
{
place = "{247, 357}";
type = Stem;
}
);
layerId = "0D67ACED-73D3-49C3-92B3-C98855658409";
paths = (
{
nodes = (
"435 833 LINE",
"320 833 LINE",
"247 726 LINE",
"362 726 LINE"
);
},
{
nodes = (
"604 833 LINE",
"489 833 LINE",
"416 726 LINE",
"531 726 LINE"
);
}
);
width = 686;
}
);
unicode = 02DD;
},
{
glyphname = gravecomb;
layers = (
{
hints = (
{
horizontal = 1;
place = "{726, 107}";
type = Stem;
},
{
place = "{247, 188}";
type = Stem;
}
);
layerId = "0D67ACED-73D3-49C3-92B3-C98855658409";
paths = (
{
nodes = (
"320 726 LINE",
"435 726 LINE",
"362 833 LINE",
"247 833 LINE"
);
}
);
width = 343;
}
);
unicode = 0300;
},
{
glyphname = acutecomb;
layers = (
{
hints = (
{
horizontal = 1;
place = "{726, 107}";
type = Stem;
},
{
place = "{247, 188}";
type = Stem;
}
);
layerId = "0D67ACED-73D3-49C3-92B3-C98855658409";
paths = (
{
nodes = (
"435 833 LINE",
"320 833 LINE",
"247 726 LINE",
"362 726 LINE"
);
}
);
width = 343;
}
);
unicode = 0301;
},
{
glyphname = uni0302;
layers = (
{
hints = (
{
horizontal = 1;
place = "{726, 107}";
type = Stem;
},
{
place = "{127, 308}";
type = Stem;
}
);
layerId = "0D67ACED-73D3-49C3-92B3-C98855658409";
paths = (
{
nodes = (
"362 833 LINE",
"202 833 LINE",
"127 728 LINE",
"237 728 LINE",
"279 788 LINE",
"320 726 LINE",
"435 726 LINE"
);
}
);
width = 833;
}
);
unicode = 0302;
},
{
glyphname = tildecomb;
layers = (
{
hints = (
{
horizontal = 1;
place = "{730, 101}";
type = Stem;
},
{
horizontal = 1;
place = "{777, 100}";
type = Stem;
},
{
place = "{106, 383}";
type = Stem;
}
);
layerId = "0D67ACED-73D3-49C3-92B3-C98855658409";
paths = (
{
nodes = (
"429 876 LINE",
"412 849 OFFCURVE",
"388 831 OFFCURVE",
"359 831 CURVE SMOOTH",
"319 831 OFFCURVE",
"301 877 OFFCURVE",
"237 877 CURVE SMOOTH",
"186 877 OFFCURVE",
"138 845 OFFCURVE",
"106 798 CURVE",
"165 733 LINE",
"182 757 OFFCURVE",
"207 777 OFFCURVE",
"235 777 CURVE SMOOTH",
"277 777 OFFCURVE",
"294 730 OFFCURVE",
"361 730 CURVE SMOOTH",
"412 730 OFFCURVE",
"458 763 OFFCURVE",
"489 810 CURVE"
);
}
);
width = 543;
}
);
unicode = 0303;
},
{
glyphname = uni0304;
layers = (
{
hints = (
{
horizontal = 1;
place = "{727, 114}";
type = Stem;
},
{
place = "{186, 298}";
type = Stem;
}
);
layerId = "0D67ACED-73D3-49C3-92B3-C98855658409";
paths = (
{
nodes = (
"484 841 LINE",
"204 841 LINE",
"186 727 LINE",
"466 727 LINE"
);
}
);
width = 412;
}
);
unicode = 0304;
},
{
glyphname = uni0306;
layers = (
{
hints = (
{
horizontal = 1;
place = "{711, 129}";
type = Stem;
},
{
place = "{123, 278}";
type = Stem;
}
);
layerId = "0D67ACED-73D3-49C3-92B3-C98855658409";
paths = (
{
nodes = (
"238 802 OFFCURVE",
"219 817 OFFCURVE",
"216 840 CURVE",
"123 840 LINE",
"126 767 OFFCURVE",
"185 711 OFFCURVE",
"261 711 CURVE SMOOTH",
"337 711 OFFCURVE",
"396 767 OFFCURVE",
"401 840 CURVE",
"306 840 LINE",
"303 817 OFFCURVE",
"284 802 OFFCURVE",
"261 802 CURVE SMOOTH"
);
}
);
width = 424;
}
);
unicode = 0306;
},
{
glyphname = uni0307;
layers = (
{
hints = (
{
horizontal = 1;
place = "{727, 132}";
type = Stem;
},
{
place = "{244, 161}";
type = Stem;
}
);
layerId = "0D67ACED-73D3-49C3-92B3-C98855658409";
paths = (
{
nodes = (
"244 727 LINE",
"383 727 LINE",
"405 859 LINE",
"266 859 LINE"
);
}
);
width = 833;
}
);
unicode = 0307;
},
{
glyphname = uni0308;
layers = (
{
hints = (
{
horizontal = 1;
place = "{727, 108}";
type = Stem;
},
{
place = "{270, 313}";
type = Stem;
}
);
layerId = "0D67ACED-73D3-49C3-92B3-C98855658409";
paths = (
{
nodes = (
"270 727 LINE",
"383 727 LINE",
"400 835 LINE",
"287 835 LINE"
);
},
{
nodes = (
"453 727 LINE",
"566 727 LINE",
"583 835 LINE",
"470 835 LINE"
);
}
);
width = 833;
}
);
unicode = 0308;
},
{
glyphname = Wgrave;
layers = (
{
hints = (
{
horizontal = 1;
place = "{10, 116}";
type = Stem;
},
{
horizontal = 1;
place = "{686, -20}";
target = down;
type = TopGhost;
},
{
horizontal = 1;
place = "{726, 107}";
type = Stem;
},
{
place = "{13, 694}";
type = Stem;
}
);
layerId = "0D67ACED-73D3-49C3-92B3-C98855658409";
paths = (
{
nodes = (
"266 126 LINE",
"144 126 LINE",
"233 686 LINE",
"120 686 LINE",
"13 10 LINE",
"403 10 LINE",
"619 132 LINE",
"707 686 LINE",
"595 686 LINE",
"518 200 LINE",
"393 126 LINE",
"379 126 LINE",
"468 686 LINE",
"355 686 LINE"
);
},
{
nodes = (
"380 726 LINE",
"495 726 LINE",
"422 833 LINE",
"307 833 LINE"
);
}
);
width = 611;
}
);
unicode = 1E80;
},
{
glyphname = wgrave;
layers = (
{
hints = (
{
horizontal = 1;
place = "{10, 116}";
type = Stem;
},
{
horizontal = 1;
place = "{686, -20}";
target = down;
type = TopGhost;
},
{
horizontal = 1;
place = "{726, 107}";
type = Stem;
},
{
place = "{13, 694}";
type = Stem;
}
);
layerId = "0D67ACED-73D3-49C3-92B3-C98855658409";
paths = (
{
nodes = (
"266 126 LINE",
"144 126 LINE",
"233 686 LINE",
"120 686 LINE",
"13 10 LINE",
"403 10 LINE",
"619 132 LINE",
"707 686 LINE",
"595 686 LINE",
"518 200 LINE",
"393 126 LINE",
"379 126 LINE",
"468 686 LINE",
"355 686 LINE"
);
},
{
nodes = (
"380 726 LINE",
"495 726 LINE",
"422 833 LINE",
"307 833 LINE"
);
}
);
width = 611;
}
);
unicode = 1E81;
},
{
glyphname = Wacute;
layers = (
{
hints = (
{
horizontal = 1;
place = "{10, 116}";
type = Stem;
},
{
horizontal = 1;
place = "{686, -20}";
target = down;
type = TopGhost;
},
{
horizontal = 1;
place = "{726, 107}";
type = Stem;
},
{
place = "{13, 694}";
type = Stem;
}
);
layerId = "0D67ACED-73D3-49C3-92B3-C98855658409";
paths = (
{
nodes = (
"266 126 LINE",
"144 126 LINE",
"233 686 LINE",
"120 686 LINE",
"13 10 LINE",
"403 10 LINE",
"619 132 LINE",
"707 686 LINE",
"595 686 LINE",
"518 200 LINE",
"393 126 LINE",
"379 126 LINE",
"468 686 LINE",
"355 686 LINE"
);
},
{
nodes = (
"494 833 LINE",
"379 833 LINE",
"306 726 LINE",
"421 726 LINE"
);
}
);
width = 611;
}
);
unicode = 1E82;
},
{
glyphname = wacute;
layers = (
{
hints = (
{
horizontal = 1;
place = "{10, 116}";
type = Stem;
},
{
horizontal = 1;
place = "{686, -20}";
target = down;
type = TopGhost;
},
{
horizontal = 1;
place = "{726, 107}";
type = Stem;
},
{
place = "{13, 694}";
type = Stem;
}
);
layerId = "0D67ACED-73D3-49C3-92B3-C98855658409";
paths = (
{
nodes = (
"266 126 LINE",
"144 126 LINE",
"233 686 LINE",
"120 686 LINE",
"13 10 LINE",
"403 10 LINE",
"619 132 LINE",
"707 686 LINE",
"595 686 LINE",
"518 200 LINE",
"393 126 LINE",
"379 126 LINE",
"468 686 LINE",
"355 686 LINE"
);
},
{
nodes = (
"494 833 LINE",
"379 833 LINE",
"306 726 LINE",
"421 726 LINE"
);
}
);
width = 611;
}
);
unicode = 1E83;
},
{
glyphname = Wdieresis;
layers = (
{
hints = (
{
horizontal = 1;
place = "{10, 116}";
type = Stem;
},
{
horizontal = 1;
place = "{686, -20}";
target = down;
type = TopGhost;
},
{
horizontal = 1;
place = "{727, 108}";
type = Stem;
},
{
place = "{13, 694}";
type = Stem;
}
);
layerId = "0D67ACED-73D3-49C3-92B3-C98855658409";
paths = (
{
nodes = (
"266 126 LINE",
"144 126 LINE",
"233 686 LINE",
"120 686 LINE",
"13 10 LINE",
"403 10 LINE",
"619 132 LINE",
"707 686 LINE",
"595 686 LINE",
"518 200 LINE",
"393 126 LINE",
"379 126 LINE",
"468 686 LINE",
"355 686 LINE"
);
},
{
nodes = (
"270 727 LINE",
"383 727 LINE",
"400 835 LINE",
"287 835 LINE"
);
},
{
nodes = (
"453 727 LINE",
"566 727 LINE",
"583 835 LINE",
"470 835 LINE"
);
}
);
width = 611;
}
);
unicode = 1E84;
},
{
glyphname = wdieresis;
layers = (
{
hints = (
{
horizontal = 1;
place = "{10, 116}";
type = Stem;
},
{
horizontal = 1;
place = "{686, -20}";
target = down;
type = TopGhost;
},
{
horizontal = 1;
place = "{727, 108}";
type = Stem;
},
{
place = "{13, 694}";
type = Stem;
}
);
layerId = "0D67ACED-73D3-49C3-92B3-C98855658409";
paths = (
{
nodes = (
"266 126 LINE",
"144 126 LINE",
"233 686 LINE",
"120 686 LINE",
"13 10 LINE",
"403 10 LINE",
"619 132 LINE",
"707 686 LINE",
"595 686 LINE",
"518 200 LINE",
"393 126 LINE",
"379 126 LINE",
"468 686 LINE",
"355 686 LINE"
);
},
{
nodes = (
"270 727 LINE",
"383 727 LINE",
"400 835 LINE",
"287 835 LINE"
);
},
{
nodes = (
"453 727 LINE",
"566 727 LINE",
"583 835 LINE",
"470 835 LINE"
);
}
);
width = 611;
}
);
unicode = 1E85;
},
{
glyphname = Ygrave;
layers = (
{
hints = (
{
horizontal = 1;
place = "{686, -20}";
target = down;
type = TopGhost;
},
{
horizontal = 1;
place = "{726, 107}";
type = Stem;
},
{
place = "{76, 427}";
type = Stem;
}
);
layerId = "0D67ACED-73D3-49C3-92B3-C98855658409";
paths = (
{
nodes = (
"199 474 LINE",
"232 686 LINE",
"120 686 LINE",
"76 410 LINE",
"194 313 LINE",
"146 10 LINE",
"260 10 LINE",
"308 314 LINE",
"459 410 LINE",
"503 686 LINE",
"391 686 LINE",
"358 474 LINE",
"269 420 LINE"
);
},
{
nodes = (
"294 726 LINE",
"409 726 LINE",
"336 833 LINE",
"221 833 LINE"
);
}
);
width = 407;
}
);
unicode = 1EF2;
},
{
glyphname = ygrave;
layers = (
{
hints = (
{
horizontal = 1;
place = "{686, -20}";
target = down;
type = TopGhost;
},
{
horizontal = 1;
place = "{726, 107}";
type = Stem;
},
{
place = "{76, 427}";
type = Stem;
}
);
layerId = "0D67ACED-73D3-49C3-92B3-C98855658409";
paths = (
{
nodes = (
"199 474 LINE",
"232 686 LINE",
"120 686 LINE",
"76 410 LINE",
"194 313 LINE",
"146 10 LINE",
"260 10 LINE",
"308 314 LINE",
"459 410 LINE",
"503 686 LINE",
"391 686 LINE",
"358 474 LINE",
"269 420 LINE"
);
},
{
nodes = (
"294 726 LINE",
"409 726 LINE",
"336 833 LINE",
"221 833 LINE"
);
}
);
width = 407;
}
);
unicode = 1EF3;
},
{
glyphname = endash;
layers = (
{
hints = (
{
horizontal = 1;
place = "{318, 114}";
type = Stem;
},
{
place = "{82, 418}";
type = Stem;
}
);
layerId = "0D67ACED-73D3-49C3-92B3-C98855658409";
paths = (
{
nodes = (
"500 432 LINE",
"100 432 LINE",
"82 318 LINE",
"482 318 LINE"
);
}
);
width = 475;
}
);
unicode = 2013;
},
{
glyphname = emdash;
layers = (
{
hints = (
{
horizontal = 1;
place = "{318, 114}";
type = Stem;
},
{
place = "{82, 569}";
type = Stem;
}
);
layerId = "0D67ACED-73D3-49C3-92B3-C98855658409";
paths = (
{
nodes = (
"651 432 LINE",
"100 432 LINE",
"82 318 LINE",
"633 318 LINE"
);
}
);
width = 621;
}
);
unicode = 2014;
},
{
glyphname = quoteleft;
layers = (
{
hints = (
{
horizontal = 1;
place = "{451, 235}";
type = Stem;
},
{
place = "{129, 151}";
type = Stem;
}
);
layerId = "0D67ACED-73D3-49C3-92B3-C98855658409";
paths = (
{
nodes = (
"129 451 LINE",
"242 451 LINE",
"280 686 LINE",
"167 686 LINE"
);
}
);
width = 224;
}
);
unicode = 2018;
},
{
glyphname = quoteright;
layers = (
{
hints = (
{
horizontal = 1;
place = "{451, 235}";
type = Stem;
},
{
place = "{129, 151}";
type = Stem;
}
);
layerId = "0D67ACED-73D3-49C3-92B3-C98855658409";
paths = (
{
nodes = (
"129 451 LINE",
"242 451 LINE",
"280 686 LINE",
"167 686 LINE"
);
}
);
width = 224;
}
);
unicode = 2019;
},
{
glyphname = quotesinglbase;
layers = (
{
hints = (
{
horizontal = 1;
place = "{10, 167}";
type = Stem;
},
{
place = "{13, 139}";
type = Stem;
}
);
layerId = "0D67ACED-73D3-49C3-92B3-C98855658409";
paths = (
{
nodes = (
"126 10 LINE",
"152 177 LINE",
"39 177 LINE",
"13 10 LINE"
);
}
);
width = 115;
}
);
unicode = 201A;
},
{
glyphname = quotedblleft;
layers = (
{
hints = (
{
horizontal = 1;
place = "{451, 235}";
type = Stem;
},
{
place = "{90, 292}";
type = Stem;
}
);
layerId = "0D67ACED-73D3-49C3-92B3-C98855658409";
paths = (
{
nodes = (
"90 451 LINE",
"203 451 LINE",
"241 686 LINE",
"128 686 LINE"
);
},
{
nodes = (
"231 451 LINE",
"344 451 LINE",
"382 686 LINE",
"269 686 LINE"
);
}
);
width = 294;
}
);
unicode = 201C;
},
{
glyphname = quotedblright;
layers = (
{
hints = (
{
horizontal = 1;
place = "{451, 235}";
type = Stem;
},
{
place = "{90, 292}";
type = Stem;
}
);
layerId = "0D67ACED-73D3-49C3-92B3-C98855658409";
paths = (
{
nodes = (
"90 451 LINE",
"203 451 LINE",
"241 686 LINE",
"128 686 LINE"
);
},
{
nodes = (
"231 451 LINE",
"344 451 LINE",
"382 686 LINE",
"269 686 LINE"
);
}
);
width = 294;
}
);
unicode = 201D;
},
{
glyphname = quotedblbase;
layers = (
{
hints = (
{
horizontal = 1;
place = "{10, 167}";
type = Stem;
},
{
place = "{26, 288}";
type = Stem;
}
);
layerId = "0D67ACED-73D3-49C3-92B3-C98855658409";
paths = (
{
nodes = (
"139 10 LINE",
"165 177 LINE",
"52 177 LINE",
"26 10 LINE"
);
},
{
nodes = (
"288 10 LINE",
"314 177 LINE",
"201 177 LINE",
"175 10 LINE"
);
}
);
width = 310;
}
);
unicode = 201E;
},
{
glyphname = bullet;
layers = (
{
hints = (
{
horizontal = 1;
place = "{249, 235}";
type = Stem;
},
{
place = "{95, 235}";
type = Stem;
}
);
layerId = "0D67ACED-73D3-49C3-92B3-C98855658409";
paths = (
{
nodes = (
"95 301 OFFCURVE",
"147 249 OFFCURVE",
"212 249 CURVE SMOOTH",
"276 249 OFFCURVE",
"330 301 OFFCURVE",
"330 366 CURVE SMOOTH",
"330 430 OFFCURVE",
"276 484 OFFCURVE",
"212 484 CURVE SMOOTH",
"147 484 OFFCURVE",
"95 430 OFFCURVE",
"95 366 CURVE SMOOTH"
);
}
);
width = 315;
}
);
unicode = 2022;
},
{
glyphname = ellipsis;
layers = (
{
hints = (
{
horizontal = 1;
place = "{69, 108}";
type = Stem;
},
{
place = "{36, 466}";
type = Stem;
}
);
layerId = "0D67ACED-73D3-49C3-92B3-C98855658409";
paths = (
{
nodes = (
"36 69 LINE",
"149 69 LINE",
"166 177 LINE",
"53 177 LINE"
);
},
{
nodes = (
"204 69 LINE",
"317 69 LINE",
"334 177 LINE",
"221 177 LINE"
);
},
{
nodes = (
"372 69 LINE",
"485 69 LINE",
"502 177 LINE",
"389 177 LINE"
);
}
);
width = 504;
}
);
unicode = 2026;
},
{
glyphname = guilsinglleft;
layers = (
{
hints = (
{
horizontal = 1;
place = "{33, 616}";
type = Stem;
},
{
place = "{69, 419}";
type = Stem;
}
);
layerId = "0D67ACED-73D3-49C3-92B3-C98855658409";
paths = (
{
nodes = (
"210 341 LINE",
"465 509 LINE",
"488 649 LINE",
"83 384 LINE",
"69 298 LINE",
"390 33 LINE",
"412 174 LINE"
);
}
);
width = 407;
}
);
unicode = 2039;
},
{
glyphname = guilsinglright;
layers = (
{
hints = (
{
horizontal = 1;
place = "{33, 616}";
type = Stem;
},
{
place = "{50, 419}";
type = Stem;
}
);
layerId = "0D67ACED-73D3-49C3-92B3-C98855658409";
paths = (
{
nodes = (
"328 341 LINE",
"73 173 LINE",
"50 33 LINE",
"455 298 LINE",
"469 384 LINE",
"148 649 LINE",
"126 508 LINE"
);
}
);
width = 427;
}
);
unicode = 203A;
},
{
glyphname = Euro;
layers = (
{
hints = (
{
horizontal = 1;
place = "{10, 123}";
type = Stem;
},
{
horizontal = 1;
place = "{220, 114}";
type = Stem;
},
{
horizontal = 1;
place = "{406, 114}";
type = Stem;
},
{
horizontal = 1;
place = "{569, 117}";
type = Stem;
},
{
place = "{60, 525}";
type = Stem;
}
);
layerId = "0D67ACED-73D3-49C3-92B3-C98855658409";
paths = (
{
nodes = (
"243 334 LINE",
"254 406 LINE",
"360 406 LINE",
"378 520 LINE",
"272 520 LINE",
"280 569 LINE",
"454 569 LINE",
"442 494 LINE",
"554 494 LINE",
"585 686 LINE",
"186 686 LINE",
"160 520 LINE",
"111 520 LINE",
"93 406 LINE",
"142 406 LINE",
"130 334 LINE",
"78 334 LINE",
"60 220 LINE",
"112 220 LINE",
"79 10 LINE",
"478 10 LINE",
"510 213 LINE",
"397 213 LINE",
"385 133 LINE",
"211 133 LINE",
"225 220 LINE",
"327 220 LINE",
"345 334 LINE"
);
}
);
width = 489;
}
);
unicode = 20AC;
},
{
glyphname = trademark;
layers = (
{
hints = (
{
horizontal = 1;
place = "{635, 51}";
type = Stem;
},
{
place = "{118, 416}";
type = Stem;
}
);
layerId = "0D67ACED-73D3-49C3-92B3-C98855658409";
paths = (
{
nodes = (
"118 635 LINE",
"171 635 LINE",
"133 394 LINE",
"181 394 LINE",
"220 635 LINE",
"271 635 LINE",
"279 686 LINE",
"126 686 LINE"
);
},
{
nodes = (
"344 394 LINE",
"393 394 LINE",
"432 635 LINE",
"438 635 LINE",
"481 604 LINE",
"448 394 LINE",
"496 394 LINE",
"534 633 LINE",
"457 686 LINE",
"289 686 LINE",
"243 394 LINE",
"292 394 LINE",
"330 635 LINE",
"383 635 LINE"
);
}
);
width = 479;
}
);
unicode = 2122;
},
{
glyphname = minus;
layers = (
{
hints = (
{
horizontal = 1;
place = "{318, 114}";
type = Stem;
},
{
place = "{82, 298}";
type = Stem;
}
);
layerId = "0D67ACED-73D3-49C3-92B3-C98855658409";
paths = (
{
nodes = (
"380 432 LINE",
"100 432 LINE",
"82 318 LINE",
"362 318 LINE"
);
}
);
width = 337;
}
);
unicode = 2212;
},
{
glyphname = guillemetleft;
layers = (
{
hints = (
{
horizontal = 1;
place = "{33, 616}";
type = Stem;
},
{
place = "{35, 649}";
type = Stem;
}
);
layerId = "0D67ACED-73D3-49C3-92B3-C98855658409";
paths = (
{
nodes = (
"406 341 LINE",
"661 509 LINE",
"684 649 LINE",
"279 384 LINE",
"265 298 LINE",
"586 33 LINE",
"608 174 LINE"
);
},
{
nodes = (
"176 341 LINE",
"431 509 LINE",
"454 649 LINE",
"49 384 LINE",
"35 298 LINE",
"356 33 LINE",
"378 174 LINE"
);
}
);
width = 633;
}
);
},
{
glyphname = periodcentered.loclCAT;
layers = (
{
hints = (
{
horizontal = 1;
place = "{312, 132}";
type = Stem;
},
{
place = "{75, 161}";
type = Stem;
}
);
layerId = "0D67ACED-73D3-49C3-92B3-C98855658409";
paths = (
{
nodes = (
"75 312 LINE",
"214 312 LINE",
"236 444 LINE",
"97 444 LINE"
);
}
);
width = 184;
}
);
},
{
glyphname = periodcentered.loclCAT.case;
layers = (
{
hints = (
{
horizontal = 1;
place = "{312, 132}";
type = Stem;
},
{
place = "{75, 161}";
type = Stem;
}
);
layerId = "0D67ACED-73D3-49C3-92B3-C98855658409";
paths = (
{
nodes = (
"75 312 LINE",
"214 312 LINE",
"236 444 LINE",
"97 444 LINE"
);
}
);
width = 184;
}
);
},
{
glyphname = guillemetright;
layers = (
{
hints = (
{
horizontal = 1;
place = "{33, 616}";
type = Stem;
},
{
place = "{35, 649}";
type = Stem;
}
);
layerId = "0D67ACED-73D3-49C3-92B3-C98855658409";
paths = (
{
nodes = (
"313 341 LINE",
"58 173 LINE",
"35 33 LINE",
"440 298 LINE",
"454 384 LINE",
"133 649 LINE",
"111 508 LINE"
);
},
{
nodes = (
"543 341 LINE",
"288 173 LINE",
"265 33 LINE",
"670 298 LINE",
"684 384 LINE",
"363 649 LINE",
"341 508 LINE"
);
}
);
width = 633;
}
);
},
{
glyphname = ringcomb;
layers = (
{
hints = (
{
horizontal = 1;
place = "{725, 66}";
type = Stem;
},
{
horizontal = 1;
place = "{861, 67}";
type = Stem;
},
{
place = "{121, 63}";
type = Stem;
},
{
place = "{255, 66}";
type = Stem;
}
);
layerId = "0D67ACED-73D3-49C3-92B3-C98855658409";
paths = (
{
nodes = (
"121 770 OFFCURVE",
"164 725 OFFCURVE",
"221 725 CURVE SMOOTH",
"276 725 OFFCURVE",
"321 770 OFFCURVE",
"321 826 CURVE SMOOTH",
"321 882 OFFCURVE",
"276 928 OFFCURVE",
"221 928 CURVE SMOOTH",
"164 928 OFFCURVE",
"121 882 OFFCURVE",
"121 826 CURVE SMOOTH"
);
},
{
nodes = (
"184 846 OFFCURVE",
"200 861 OFFCURVE",
"219 861 CURVE SMOOTH",
"240 861 OFFCURVE",
"255 846 OFFCURVE",
"255 826 CURVE SMOOTH",
"255 806 OFFCURVE",
"240 791 OFFCURVE",
"219 791 CURVE SMOOTH",
"200 791 OFFCURVE",
"184 806 OFFCURVE",
"184 826 CURVE SMOOTH"
);
}
);
width = 358;
}
);
},
{
glyphname = hungarumlautcomb;
layers = (
{
hints = (
{
horizontal = 1;
place = "{726, 107}";
type = Stem;
},
{
place = "{247, 357}";
type = Stem;
}
);
layerId = "0D67ACED-73D3-49C3-92B3-C98855658409";
paths = (
{
nodes = (
"435 833 LINE",
"320 833 LINE",
"247 726 LINE",
"362 726 LINE"
);
},
{
nodes = (
"604 833 LINE",
"489 833 LINE",
"416 726 LINE",
"531 726 LINE"
);
}
);
width = 686;
}
);
},
{
glyphname = caroncomb;
layers = (
{
hints = (
{
horizontal = 1;
place = "{726, 107}";
type = Stem;
},
{
place = "{127, 308}";
type = Stem;
}
);
layerId = "0D67ACED-73D3-49C3-92B3-C98855658409";
paths = (
{
nodes = (
"435 833 LINE",
"320 833 LINE",
"279 771 LINE",
"237 831 LINE",
"127 831 LINE",
"202 726 LINE",
"362 726 LINE"
);
}
);
width = 833;
}
);
},
{
glyphname = caroncomb.alt;
layers = (
{
hints = (
{
horizontal = 1;
place = "{726, 107}";
type = Stem;
},
{
place = "{127, 308}";
type = Stem;
}
);
layerId = "0D67ACED-73D3-49C3-92B3-C98855658409";
paths = (
{
nodes = (
"435 833 LINE",
"320 833 LINE",
"279 771 LINE",
"237 831 LINE",
"127 831 LINE",
"202 726 LINE",
"362 726 LINE"
);
}
);
width = 833;
}
);
},
{
glyphname = cedillacomb;
layers = (
{
hints = (
{
horizontal = 1;
place = "{-301, 103}";
type = Stem;
},
{
horizontal = 1;
place = "{-63, 73}";
type = Stem;
},
{
place = "{122, 306}";
type = Stem;
}
);
layerId = "0D67ACED-73D3-49C3-92B3-C98855658409";
paths = (
{
nodes = (
"270 -63 LINE",
"285 10 LINE",
"178 10 LINE",
"154 -119 LINE",
"311 -198 LINE",
"140 -198 LINE",
"122 -301 LINE",
"401 -301 LINE",
"428 -140 LINE"
);
}
);
width = 481;
}
);
},
{
glyphname = ogonekcomb;
layers = (
{
hints = (
{
horizontal = 1;
place = "{-300, 99}";
type = Stem;
},
{
horizontal = 1;
place = "{-169, 89}";
type = Stem;
},
{
place = "{-2, 296}";
type = Stem;
}
);
layerId = "0D67ACED-73D3-49C3-92B3-C98855658409";
paths = (
{
nodes = (
"257 -169 LINE",
"294 10 LINE",
"190 10 LINE",
"174 -80 LINE",
"36 -80 LINE",
"-2 -300 LINE",
"273 -300 LINE",
"290 -201 LINE",
"114 -201 LINE",
"117 -169 LINE"
);
}
);
width = 396;
}
);
},
{
glyphname = Germandbls;
layers = (
{
hints = (
{
horizontal = 1;
place = "{10, 123}";
type = Stem;
},
{
horizontal = 1;
place = "{329, 95}";
type = Stem;
},
{
horizontal = 1;
place = "{572, 113}";
type = Stem;
},
{
place = "{25, 555}";
type = Stem;
}
);
layerId = "0D67ACED-73D3-49C3-92B3-C98855658409";
paths = (
{
nodes = (
"25 10 LINE",
"137 10 LINE",
"209 495 LINE",
"311 569 LINE",
"379 575 LINE",
"240 396 LINE",
"218 255 LINE",
"313 331 LINE",
"411 328 LINE",
"390 192 LINE",
"294 133 LINE",
"208 133 LINE",
"189 10 LINE",
"318 10 LINE",
"489 113 LINE",
"539 425 LINE",
"391 425 LINE",
"580 685 LINE",
"288 685 LINE",
"108 563 LINE"
);
}
);
width = 507;
}
);
},
